<?xml version="1.0" encoding="UTF-8" standalone="no"?>
<!-- Created with Inkscape (http://www.inkscape.org/) -->

<svg
   xmlns:rendltx="http://NOTSET"
   xmlns:dc="http://purl.org/dc/elements/1.1/"
   xmlns:cc="http://creativecommons.org/ns#"
   xmlns:rdf="http://www.w3.org/1999/02/22-rdf-syntax-ns#"
   xmlns:svg="http://www.w3.org/2000/svg"
   xmlns="http://www.w3.org/2000/svg"
   xmlns:xlink="http://www.w3.org/1999/xlink"
   xmlns:sodipodi="http://sodipodi.sourceforge.net/DTD/sodipodi-0.dtd"
   xmlns:inkscape="http://www.inkscape.org/namespaces/inkscape"
   id="svg8"
   version="1.1"
   viewBox="0 0 98.064003 82.913002"
   height="82.913002mm"
   width="98.064003mm"
   inkscape:version="0.92.5 (2060ec1f9f, 2020-04-08)"
   sodipodi:docname="Graphic2a.svg">
  <defs
     id="defs2">
    <marker
       inkscape:stockid="Arrow2Lstart"
       orient="auto"
       refY="0"
       refX="0"
       id="Arrow2Lstart"
       style="overflow:visible"
       inkscape:isstock="true">
      <path
         id="path1117"
         style="fill:#e1936b;fill-opacity:1;fill-rule:evenodd;stroke:#e1936b;stroke-width:0.625;stroke-linejoin:round;stroke-opacity:1"
         d="M 8.7185878,4.0337352 -2.2072895,0.01601326 8.7185884,-4.0017078 c -1.7454984,2.3720609 -1.7354408,5.6174519 -6e-7,8.035443 z"
         transform="matrix(1.1,0,0,1.1,1.1,0)"
         inkscape:connector-curvature="0" />
    </marker>
    <marker
       inkscape:stockid="Arrow1Mstart"
       orient="auto"
       refY="0"
       refX="0"
       id="Arrow1Mstart"
       style="overflow:visible"
       inkscape:isstock="true">
      <path
         id="path1105"
         d="M 0,0 5,-5 -12.5,0 5,5 Z"
         style="fill:#000000;fill-opacity:1;fill-rule:evenodd;stroke:#000000;stroke-width:1.00000003pt;stroke-opacity:1"
         transform="matrix(0.4,0,0,0.4,4,0)"
         inkscape:connector-curvature="0" />
    </marker>
  </defs>
  <sodipodi:namedview
     id="base"
     pagecolor="#ffffff"
     bordercolor="#666666"
     borderopacity="1.0"
     inkscape:pageopacity="0.0"
     inkscape:pageshadow="2"
     inkscape:zoom="1"
     inkscape:cx="87.124166"
     inkscape:cy="148.88404"
     inkscape:document-units="mm"
     inkscape:current-layer="layer1"
     showgrid="false"
     inkscape:window-width="1920"
     inkscape:window-height="986"
     inkscape:window-x="-11"
     inkscape:window-y="-11"
     inkscape:window-maximized="1" />
  <metadata
     id="metadata5">
    <rdf:RDF>
      <cc:Work
         rdf:about="">
        <dc:format>image/svg+xml</dc:format>
        <dc:type
           rdf:resource="http://purl.org/dc/dcmitype/StillImage" />
        <dc:title />
      </cc:Work>
    </rdf:RDF>
  </metadata>
  <g
     inkscape:label="Layer 1"
     inkscape:groupmode="layer"
     id="layer1"
     style="display:inline"
     transform="translate(-23.409541,-77.528634)">
    <rect
       style="opacity:1;fill:#f8f2e4;fill-opacity:1;stroke:#000000;stroke-width:0.32823083;stroke-miterlimit:4;stroke-dasharray:none;stroke-dashoffset:0;stroke-opacity:0.85882353"
       id="rect832"
       width="97.735771"
       height="82.58477"
       x="23.573656"
       y="77.692749" />
  </g>
  <g
     style="display:inline"
     inkscape:label="Layer 2 copy"
     id="g2794"
     inkscape:groupmode="layer"
     transform="translate(-23.409541,-77.528634)">
    <ellipse
       cy="132.41628"
       cx="60.715282"
       id="circle2790"
       style="opacity:1;fill:#d1b257;fill-opacity:0.55607473;stroke:#000000;stroke-width:0.27866045;stroke-miterlimit:4;stroke-dasharray:none;stroke-dashoffset:0;stroke-opacity:0.85882353"
       rx="19.625862"
       ry="19.625767" />
    <ellipse
       cy="132.41628"
       cx="84.336304"
       id="circle2792"
       style="opacity:1;fill:#ebb89d;fill-opacity:0.94941634;stroke:#000000;stroke-width:0.27866045;stroke-miterlimit:4;stroke-dasharray:none;stroke-dashoffset:0;stroke-opacity:0.85882353"
       rx="19.625864"
       ry="19.625767" />
    <ellipse
       cy="111.82963"
       cx="73.266228"
       id="circle2792-3"
       style="display:inline;opacity:1;fill:#a6bcaf;fill-opacity:0.74319063;stroke:none;stroke-width:0.27866045;stroke-miterlimit:4;stroke-dasharray:none;stroke-dashoffset:0;stroke-opacity:0.85882353"
       rx="19.625864"
       ry="19.625769" />
  </g>
  <g
     inkscape:groupmode="layer"
     id="layer4"
     inkscape:label="Layer 3"
     style="display:inline"
     transform="translate(-23.409541,-77.528634)">
    <path
       style="fill:#2f455c;fill-opacity:1;stroke:#000000;stroke-width:0.16605608px;stroke-linecap:butt;stroke-linejoin:miter;stroke-opacity:1"
       d="m 53.926239,113.96699 -0.20757,-1.53602 0.04152,-2.69841 0.664225,-2.94748 1.120882,-3.07204 1.909649,-3.11354 1.785108,-2.158724 1.743593,-1.660557 2.200248,-1.536015 2.20025,-1.120877 2.11722,-0.830278 2.200248,-0.622709 2.324792,-0.166056 2.781444,-0.124541 2.366302,0.415139 2.075706,0.539681 2.366307,0.830279 1.286937,0.830277 2.034193,1.162391 1.037852,0.788765 1.411482,1.28693 1.536025,1.702072 0.996334,1.452983 0.747257,1.49451 0.871795,1.82661 0.539686,1.57753 0.581193,1.99267 0.290602,2.49083 0.08302,2.86446 -0.290597,0.99634 -3.445674,-1.28693 -2.407821,-0.49817 h -4.192924 l -1.785109,0.16605 -3.5287,1.12088 -4.317468,2.15872 -0.373623,0.37362 -1.452993,-0.83027 -2.90599,-1.57753 -2.200248,-0.70574 -1.992678,-0.53968 -2.366305,-0.29059 -3.155074,0.083 -2.11722,0.37363 -1.70208,0.45665 z"
       id="path1747"
       inkscape:connector-curvature="0"
       sodipodi:nodetypes="cccccccccccccccccccccccccccccccccccccccccccccc" />
  </g>
  <g
     inkscape:groupmode="layer"
     id="layer3"
     inkscape:label="Layer 2"
     style="display:inline"
     transform="translate(-23.409541,-77.528634)">
    <ellipse
       style="opacity:1;fill:none;fill-opacity:0.99215686;stroke:#000000;stroke-width:0.27866045;stroke-miterlimit:4;stroke-dasharray:none;stroke-dashoffset:0;stroke-opacity:0.85882353"
       id="path815-3"
       cx="60.715282"
       cy="132.41628"
       rx="19.625862"
       ry="19.625767" />
    <ellipse
       style="opacity:1;fill:none;fill-opacity:0.99215686;stroke:#000000;stroke-width:0.27866045;stroke-miterlimit:4;stroke-dasharray:none;stroke-dashoffset:0;stroke-opacity:0.85882353"
       id="path815-8-8"
       cx="84.336304"
       cy="132.41628"
       rx="19.625864"
       ry="19.625767" />
    <ellipse
       cy="112.06449"
       cx="73.383652"
       id="circle2792-3-7"
       style="display:inline;opacity:1;fill:#a6bcaf;fill-opacity:0;stroke:#000000;stroke-width:0.27866045;stroke-miterlimit:4;stroke-dasharray:none;stroke-dashoffset:0;stroke-opacity:0.85882353"
       rx="19.625864"
       ry="19.625769" />
  </g>
  <g
     inkscape:groupmode="layer"
     id="layer2"
     inkscape:label="text"
     style="display:none"
     transform="translate(-23.409541,-77.528634)">
    <text
       xml:space="preserve"
       style="font-style:normal;font-weight:normal;font-size:4.58611107px;line-height:7.25;font-family:sans-serif;letter-spacing:0px;word-spacing:0px;fill:#000000;fill-opacity:1;stroke:none;stroke-width:0.26458332"
       x="42.597916"
       y="91.947914"
       id="text836"><tspan
         sodipodi:role="line"
         id="tspan834"
         x="42.597916"
         y="91.947914"
         style="stroke-width:0.26458332">$A$</tspan></text>
    <text
       xml:space="preserve"
       style="font-style:normal;font-weight:normal;font-size:4.58611107px;line-height:7.25;font-family:sans-serif;letter-spacing:0px;word-spacing:0px;fill:#000000;fill-opacity:1;stroke:none;stroke-width:0.26458332"
       x="140.62604"
       y="90.88958"
       id="text840"><tspan
         sodipodi:role="line"
         id="tspan838"
         x="140.62604"
         y="90.88958"
         style="stroke-width:0.26458332">$B$</tspan></text>
    <text
       xml:space="preserve"
       style="font-style:normal;font-weight:normal;font-size:4.58611107px;line-height:7.25;font-family:sans-serif;letter-spacing:0px;word-spacing:0px;fill:#000000;fill-opacity:1;stroke:none;stroke-width:0.26458332"
       x="62.734177"
       y="153.08614"
       id="text844"><tspan
         sodipodi:role="line"
         id="tspan842"
         x="62.734177"
         y="153.08614"
         style="stroke-width:0.26458332">$A \backslash (B \cup C) $</tspan></text>
    <text
       xml:space="preserve"
       style="font-style:normal;font-weight:normal;font-size:4.58611107px;line-height:7.25;font-family:sans-serif;letter-spacing:0px;word-spacing:0px;fill:#000000;fill-opacity:1;stroke:none;stroke-width:0.26458332"
       x="148.17422"
       y="139.09717"
       id="text1724"><tspan
         sodipodi:role="line"
         id="tspan1722"
         x="148.17422"
         y="139.09717"
         style="stroke-width:0.26458332">$C$</tspan></text>
  </g>
  <g
     rendltx:math="False"
     rendltx:newline="False"
     rendltx:fontsize="10"
     rendltx:depth="0"
     rendltx:scale="1.0"
     rendltx:packages="amsmath,amssymb"
     rendltx:preamble=""
     id="ltx-render-layer"
     inkscape:groupmode="layer"
     inkscape:label="Rendered Latex"
     transform="translate(-23.409541,-77.528634)">
    <g
       id="lx-text836"
       transform="matrix(0.60715128,0,0,0.59696923,91.162295,97.959304)"
       style="fill:#000000;fill-opacity:1">
      <defs
         id="defs1800">
        <g
           id="g1798">
          <symbol
             id="lx-text836-glyph0-0"
             overflow="visible"
             style="overflow:visible">
            <path
               id="path1792"
               d=""
               style="stroke:none"
               inkscape:connector-curvature="0" />
          </symbol>
          <symbol
             id="lx-text836-glyph0-1"
             overflow="visible"
             style="overflow:visible">
            <path
               id="path1795"
               d="M 1.78125,-1.140625 C 1.390625,-0.484375 1,-0.34375 0.5625,-0.3125 0.4375,-0.296875 0.34375,-0.296875 0.34375,-0.109375 0.34375,-0.046875 0.40625,0 0.484375,0 0.75,0 1.0625,-0.03125 1.328125,-0.03125 c 0.34375,0 0.6875,0.03125 1,0.03125 0.0625,0 0.1875,0 0.1875,-0.1875 0,-0.109375 -0.078125,-0.125 -0.15625,-0.125 -0.21875,-0.015625 -0.46875,-0.09375 -0.46875,-0.34375 0,-0.125 0.0625,-0.234375 0.140625,-0.375 l 0.765625,-1.265625 h 2.5 c 0.015625,0.203125 0.15625,1.5625 0.15625,1.65625 0,0.296875 -0.515625,0.328125 -0.71875,0.328125 C 4.59375,-0.3125 4.5,-0.3125 4.5,-0.109375 4.5,0 4.609375,0 4.640625,0 5.046875,0 5.46875,-0.03125 5.875,-0.03125 6.125,-0.03125 6.765625,0 7.015625,0 7.0625,0 7.1875,0 7.1875,-0.203125 7.1875,-0.3125 7.09375,-0.3125 6.953125,-0.3125 6.34375,-0.3125 6.34375,-0.375 6.3125,-0.671875 l -0.609375,-6.21875 c -0.015625,-0.203125 -0.015625,-0.25 -0.1875,-0.25 -0.15625,0 -0.203125,0.078125 -0.265625,0.171875 z M 2.984375,-2.609375 4.9375,-5.90625 5.265625,-2.609375 Z m 0,0"
               style="stroke:none"
               inkscape:connector-curvature="0" />
          </symbol>
        </g>
      </defs>
      <g
         id="lx-text836-surface1"
         style="fill:#000000;fill-opacity:1">
        <g
           id="g1804"
           style="fill:#000000;fill-opacity:1">
          <use
             id="use1802"
             y="0"
             x="0"
             xlink:href="#lx-text836-glyph0-1"
             width="100%"
             height="100%"
             style="fill:#000000;fill-opacity:1" />
        </g>
      </g>
    </g>
    <g
       id="lx-text840"
       transform="matrix(0.60715128,0,0,0.59696923,37.809356,148.41464)">
      <defs
         id="defs1816">
        <g
           id="g1814">
          <symbol
             id="lx-text840-glyph0-0"
             overflow="visible"
             style="overflow:visible">
            <path
               id="path1808"
               d=""
               style="stroke:none"
               inkscape:connector-curvature="0" />
          </symbol>
          <symbol
             id="lx-text840-glyph0-1"
             overflow="visible"
             style="overflow:visible">
            <path
               id="path1811"
               d="M 1.59375,-0.78125 C 1.5,-0.390625 1.46875,-0.3125 0.6875,-0.3125 c -0.171875,0 -0.265625,0 -0.265625,0.203125 C 0.421875,0 0.515625,0 0.6875,0 H 4.25 C 5.828125,0 7,-1.171875 7,-2.15625 7,-2.875 6.421875,-3.453125 5.453125,-3.5625 6.484375,-3.75 7.53125,-4.484375 7.53125,-5.4375 c 0,-0.734375 -0.65625,-1.375 -1.84375,-1.375 H 2.328125 c -0.1875,0 -0.28125,0 -0.28125,0.203125 0,0.109375 0.09375,0.109375 0.28125,0.109375 0.015625,0 0.203125,0 0.375,0.015625 0.171875,0.03125 0.265625,0.03125 0.265625,0.171875 0,0.03125 -0.015625,0.0625 -0.03125,0.1875 z m 1.5,-2.875 0.625,-2.46875 C 3.8125,-6.46875 3.828125,-6.5 4.25,-6.5 h 1.296875 c 0.875,0 1.078125,0.59375 1.078125,1.03125 0,0.875 -0.859375,1.8125 -2.0625,1.8125 z m -0.4375,3.34375 c -0.140625,0 -0.15625,0 -0.21875,0 -0.109375,-0.015625 -0.140625,-0.03125 -0.140625,-0.109375 0,-0.03125 0,-0.046875 0.0625,-0.21875 l 0.6875,-2.78125 h 1.875 c 0.953125,0 1.15625,0.734375 1.15625,1.15625 C 6.078125,-1.28125 5.1875,-0.3125 4,-0.3125 Z m 0,0"
               style="stroke:none"
               inkscape:connector-curvature="0" />
          </symbol>
        </g>
      </defs>
      <g
         id="lx-text840-surface1">
        <g
           id="g1820"
           style="fill:#000000;fill-opacity:1">
          <use
             id="use1818"
             y="0"
             x="0"
             xlink:href="#lx-text840-glyph0-1"
             width="100%"
             height="100%" />
        </g>
      </g>
    </g>
    <g
       id="lx-text844"
       transform="matrix(0.60715128,0,0,0.59696923,59.045333,89.503186)"
       style="fill:#2f455c;fill-opacity:1;stroke:#000000;stroke-opacity:1">
      <defs
         id="defs1856">
        <g
           id="g1854">
          <symbol
             id="lx-text844-glyph0-0"
             overflow="visible"
             style="overflow:visible">
            <path
               id="path1824"
               d=""
               style="stroke:none"
               inkscape:connector-curvature="0" />
          </symbol>
          <symbol
             id="lx-text844-glyph0-1"
             overflow="visible"
             style="overflow:visible">
            <path
               id="path1827"
               d="M 1.78125,-1.140625 C 1.390625,-0.484375 1,-0.34375 0.5625,-0.3125 0.4375,-0.296875 0.34375,-0.296875 0.34375,-0.109375 0.34375,-0.046875 0.40625,0 0.484375,0 0.75,0 1.0625,-0.03125 1.328125,-0.03125 c 0.34375,0 0.6875,0.03125 1,0.03125 0.0625,0 0.1875,0 0.1875,-0.1875 0,-0.109375 -0.078125,-0.125 -0.15625,-0.125 -0.21875,-0.015625 -0.46875,-0.09375 -0.46875,-0.34375 0,-0.125 0.0625,-0.234375 0.140625,-0.375 l 0.765625,-1.265625 h 2.5 c 0.015625,0.203125 0.15625,1.5625 0.15625,1.65625 0,0.296875 -0.515625,0.328125 -0.71875,0.328125 C 4.59375,-0.3125 4.5,-0.3125 4.5,-0.109375 4.5,0 4.609375,0 4.640625,0 5.046875,0 5.46875,-0.03125 5.875,-0.03125 6.125,-0.03125 6.765625,0 7.015625,0 7.0625,0 7.1875,0 7.1875,-0.203125 7.1875,-0.3125 7.09375,-0.3125 6.953125,-0.3125 6.34375,-0.3125 6.34375,-0.375 6.3125,-0.671875 l -0.609375,-6.21875 c -0.015625,-0.203125 -0.015625,-0.25 -0.1875,-0.25 -0.15625,0 -0.203125,0.078125 -0.265625,0.171875 z M 2.984375,-2.609375 4.9375,-5.90625 5.265625,-2.609375 Z m 0,0"
               style="stroke:none"
               inkscape:connector-curvature="0" />
          </symbol>
          <symbol
             id="lx-text844-glyph0-2"
             overflow="visible"
             style="overflow:visible">
            <path
               id="path1830"
               d="M 1.59375,-0.78125 C 1.5,-0.390625 1.46875,-0.3125 0.6875,-0.3125 c -0.171875,0 -0.265625,0 -0.265625,0.203125 C 0.421875,0 0.515625,0 0.6875,0 H 4.25 C 5.828125,0 7,-1.171875 7,-2.15625 7,-2.875 6.421875,-3.453125 5.453125,-3.5625 6.484375,-3.75 7.53125,-4.484375 7.53125,-5.4375 c 0,-0.734375 -0.65625,-1.375 -1.84375,-1.375 H 2.328125 c -0.1875,0 -0.28125,0 -0.28125,0.203125 0,0.109375 0.09375,0.109375 0.28125,0.109375 0.015625,0 0.203125,0 0.375,0.015625 0.171875,0.03125 0.265625,0.03125 0.265625,0.171875 0,0.03125 -0.015625,0.0625 -0.03125,0.1875 z m 1.5,-2.875 0.625,-2.46875 C 3.8125,-6.46875 3.828125,-6.5 4.25,-6.5 h 1.296875 c 0.875,0 1.078125,0.59375 1.078125,1.03125 0,0.875 -0.859375,1.8125 -2.0625,1.8125 z m -0.4375,3.34375 c -0.140625,0 -0.15625,0 -0.21875,0 -0.109375,-0.015625 -0.140625,-0.03125 -0.140625,-0.109375 0,-0.03125 0,-0.046875 0.0625,-0.21875 l 0.6875,-2.78125 h 1.875 c 0.953125,0 1.15625,0.734375 1.15625,1.15625 C 6.078125,-1.28125 5.1875,-0.3125 4,-0.3125 Z m 0,0"
               style="stroke:none"
               inkscape:connector-curvature="0" />
          </symbol>
          <symbol
             id="lx-text844-glyph0-3"
             overflow="visible"
             style="overflow:visible">
            <path
               id="path1833"
               d="m 7.578125,-6.921875 c 0,-0.03125 -0.015625,-0.109375 -0.109375,-0.109375 -0.03125,0 -0.046875,0.015625 -0.15625,0.125 L 6.625,-6.140625 C 6.53125,-6.28125 6.078125,-7.03125 4.96875,-7.03125 2.734375,-7.03125 0.5,-4.828125 0.5,-2.515625 0.5,-0.875 1.671875,0.21875 3.203125,0.21875 c 0.859375,0 1.625,-0.390625 2.15625,-0.859375 0.921875,-0.8125 1.09375,-1.71875 1.09375,-1.75 C 6.453125,-2.5 6.34375,-2.5 6.328125,-2.5 c -0.0625,0 -0.109375,0.03125 -0.125,0.109375 -0.09375,0.28125 -0.328125,1 -1.015625,1.578125 -0.6875,0.546875 -1.3125,0.71875 -1.828125,0.71875 -0.890625,0 -1.953125,-0.515625 -1.953125,-2.0625 0,-0.578125 0.203125,-2.1875 1.203125,-3.359375 0.609375,-0.703125 1.546875,-1.203125 2.4375,-1.203125 1.015625,0 1.609375,0.765625 1.609375,1.921875 0,0.40625 -0.03125,0.40625 -0.03125,0.515625 0,0.09375 0.109375,0.09375 0.140625,0.09375 0.125,0 0.125,-0.015625 0.1875,-0.203125 z m 0,0"
               style="stroke:none"
               inkscape:connector-curvature="0" />
          </symbol>
          <symbol
             id="lx-text844-glyph1-0"
             overflow="visible"
             style="overflow:visible">
            <path
               id="path1836"
               d=""
               style="stroke:none"
               inkscape:connector-curvature="0" />
          </symbol>
          <symbol
             id="lx-text844-glyph1-1"
             overflow="visible"
             style="overflow:visible">
            <path
               id="path1839"
               d="m 4,2.25 c 0.046875,0.140625 0.09375,0.25 0.234375,0.25 0.109375,0 0.1875,-0.09375 0.1875,-0.203125 0,-0.03125 0,-0.046875 -0.046875,-0.15625 l -3.40625,-9.375 c -0.0625,-0.171875 -0.09375,-0.25 -0.21875,-0.25 -0.109375,0 -0.203125,0.09375 -0.203125,0.203125 0,0.03125 0,0.046875 0.046875,0.15625 z m 0,0"
               style="stroke:none"
               inkscape:connector-curvature="0" />
          </symbol>
          <symbol
             id="lx-text844-glyph1-2"
             overflow="visible"
             style="overflow:visible">
            <path
               id="path1842"
               d="m 6.09375,-5.609375 c 0,-0.171875 0,-0.359375 -0.203125,-0.359375 -0.203125,0 -0.203125,0.1875 -0.203125,0.359375 V -2 c 0,1.5 -1.625,1.828125 -2.375,1.828125 -0.4375,0 -1.0625,-0.09375 -1.59375,-0.4375 C 0.953125,-1.09375 0.953125,-1.734375 0.953125,-2 v -3.609375 c 0,-0.171875 0,-0.359375 -0.203125,-0.359375 -0.203125,0 -0.203125,0.1875 -0.203125,0.359375 v 3.65625 c 0,1.515625 1.53125,2.171875 2.765625,2.171875 1.296875,0 2.78125,-0.703125 2.78125,-2.15625 z m 0,0"
               style="stroke:none"
               inkscape:connector-curvature="0" />
          </symbol>
          <symbol
             id="lx-text844-glyph2-0"
             overflow="visible"
             style="overflow:visible">
            <path
               id="path1845"
               d=""
               style="stroke:none"
               inkscape:connector-curvature="0" />
          </symbol>
          <symbol
             id="lx-text844-glyph2-1"
             overflow="visible"
             style="overflow:visible">
            <path
               id="path1848"
               d="m 3.296875,2.390625 c 0,-0.03125 0,-0.046875 -0.171875,-0.21875 C 1.890625,0.921875 1.5625,-0.96875 1.5625,-2.5 c 0,-1.734375 0.375,-3.46875 1.609375,-4.703125 0.125,-0.125 0.125,-0.140625 0.125,-0.171875 0,-0.078125 -0.03125,-0.109375 -0.09375,-0.109375 -0.109375,0 -1,0.6875 -1.59375,1.953125 -0.5,1.09375 -0.625,2.203125 -0.625,3.03125 0,0.78125 0.109375,1.984375 0.65625,3.125 C 2.25,1.84375 3.09375,2.5 3.203125,2.5 c 0.0625,0 0.09375,-0.03125 0.09375,-0.109375 z m 0,0"
               style="stroke:none"
               inkscape:connector-curvature="0" />
          </symbol>
          <symbol
             id="lx-text844-glyph2-2"
             overflow="visible"
             style="overflow:visible">
            <path
               id="path1851"
               d="m 2.875,-2.5 c 0,-0.765625 -0.109375,-1.96875 -0.65625,-3.109375 -0.59375,-1.21875 -1.453125,-1.875 -1.546875,-1.875 -0.0625,0 -0.109375,0.046875 -0.109375,0.109375 0,0.03125 0,0.046875 0.1875,0.234375 0.984375,0.984375 1.546875,2.5625 1.546875,4.640625 0,1.71875 -0.359375,3.46875 -1.59375,4.71875 C 0.5625,2.34375 0.5625,2.359375 0.5625,2.390625 0.5625,2.453125 0.609375,2.5 0.671875,2.5 0.765625,2.5 1.671875,1.8125 2.25,0.546875 2.765625,-0.546875 2.875,-1.65625 2.875,-2.5 Z m 0,0"
               style="stroke:none"
               inkscape:connector-curvature="0" />
          </symbol>
        </g>
      </defs>
      <g
         id="lx-text844-surface1"
         style="fill:#2f455c;fill-opacity:1;stroke:#000000;stroke-opacity:1">
        <g
           id="g1860"
           style="fill:#2f455c;fill-opacity:1;stroke:#000000;stroke-opacity:1">
          <use
             id="use1858"
             y="0"
             x="0"
             xlink:href="#lx-text844-glyph0-1"
             width="100%"
             height="100%"
             style="fill:#2f455c;fill-opacity:1;stroke:#000000;stroke-opacity:1" />
        </g>
        <g
           id="g1864"
           style="fill:#2f455c;fill-opacity:1;stroke:#000000;stroke-opacity:1">
          <use
             id="use1862"
             y="0"
             x="7.4720001"
             xlink:href="#lx-text844-glyph1-1"
             width="100%"
             height="100%"
             style="fill:#2f455c;fill-opacity:1;stroke:#000000;stroke-opacity:1" />
        </g>
        <g
           id="g1868"
           style="fill:#2f455c;fill-opacity:1;stroke:#000000;stroke-opacity:1">
          <use
             id="use1866"
             y="0"
             x="12.454"
             xlink:href="#lx-text844-glyph2-1"
             width="100%"
             height="100%"
             style="fill:#2f455c;fill-opacity:1;stroke:#000000;stroke-opacity:1" />
        </g>
        <g
           id="g1872"
           style="fill:#2f455c;fill-opacity:1;stroke:#000000;stroke-opacity:1">
          <use
             id="use1870"
             y="0"
             x="16.327999"
             xlink:href="#lx-text844-glyph0-2"
             width="100%"
             height="100%"
             style="fill:#2f455c;fill-opacity:1;stroke:#000000;stroke-opacity:1" />
        </g>
        <g
           id="g1876"
           style="fill:#2f455c;fill-opacity:1;stroke:#000000;stroke-opacity:1">
          <use
             id="use1874"
             y="0"
             x="26.598"
             xlink:href="#lx-text844-glyph1-2"
             width="100%"
             height="100%"
             style="fill:#2f455c;fill-opacity:1;stroke:#000000;stroke-opacity:1" />
        </g>
        <g
           id="g1880"
           style="fill:#2f455c;fill-opacity:1;stroke:#000000;stroke-opacity:1">
          <use
             id="use1878"
             y="0"
             x="35.453999"
             xlink:href="#lx-text844-glyph0-3"
             width="100%"
             height="100%"
             style="fill:#2f455c;fill-opacity:1;stroke:#000000;stroke-opacity:1" />
        </g>
        <g
           id="g1884"
           style="fill:#2f455c;fill-opacity:1;stroke:#000000;stroke-opacity:1">
          <use
             id="use1882"
             y="0"
             x="43.286999"
             xlink:href="#lx-text844-glyph2-2"
             width="100%"
             height="100%"
             style="fill:#2f455c;fill-opacity:1;stroke:#000000;stroke-opacity:1" />
        </g>
      </g>
    </g>
    <g
       id="lx-text1724"
       transform="matrix(0.60715128,0,0,0.59696923,106.76125,140.15516)"
       style="fill:#000000;fill-opacity:1">
      <defs
         id="defs1896">
        <g
           id="g1894">
          <symbol
             id="lx-text1724-glyph0-0"
             overflow="visible"
             style="overflow:visible">
            <path
               id="path1888"
               d=""
               style="stroke:none"
               inkscape:connector-curvature="0" />
          </symbol>
          <symbol
             id="lx-text1724-glyph0-1"
             overflow="visible"
             style="overflow:visible">
            <path
               id="path1891"
               d="m 7.578125,-6.921875 c 0,-0.03125 -0.015625,-0.109375 -0.109375,-0.109375 -0.03125,0 -0.046875,0.015625 -0.15625,0.125 L 6.625,-6.140625 C 6.53125,-6.28125 6.078125,-7.03125 4.96875,-7.03125 2.734375,-7.03125 0.5,-4.828125 0.5,-2.515625 0.5,-0.875 1.671875,0.21875 3.203125,0.21875 c 0.859375,0 1.625,-0.390625 2.15625,-0.859375 0.921875,-0.8125 1.09375,-1.71875 1.09375,-1.75 C 6.453125,-2.5 6.34375,-2.5 6.328125,-2.5 c -0.0625,0 -0.109375,0.03125 -0.125,0.109375 -0.09375,0.28125 -0.328125,1 -1.015625,1.578125 -0.6875,0.546875 -1.3125,0.71875 -1.828125,0.71875 -0.890625,0 -1.953125,-0.515625 -1.953125,-2.0625 0,-0.578125 0.203125,-2.1875 1.203125,-3.359375 0.609375,-0.703125 1.546875,-1.203125 2.4375,-1.203125 1.015625,0 1.609375,0.765625 1.609375,1.921875 0,0.40625 -0.03125,0.40625 -0.03125,0.515625 0,0.09375 0.109375,0.09375 0.140625,0.09375 0.125,0 0.125,-0.015625 0.1875,-0.203125 z m 0,0"
               style="stroke:none"
               inkscape:connector-curvature="0" />
          </symbol>
        </g>
      </defs>
      <g
         id="lx-text1724-surface1"
         style="fill:#000000;fill-opacity:1">
        <g
           id="g1900"
           style="fill:#000000;fill-opacity:1">
          <use
             id="use1898"
             y="0"
             x="0"
             xlink:href="#lx-text1724-glyph0-1"
             width="100%"
             height="100%"
             style="fill:#000000;fill-opacity:1" />
        </g>
      </g>
    </g>
  </g>
</svg>
