<?xml version="1.0" encoding="UTF-8" standalone="no"?>
<!-- Created with Inkscape (http://www.inkscape.org/) -->

<svg
   xmlns:rendltx="http://NOTSET"
   xmlns:dc="http://purl.org/dc/elements/1.1/"
   xmlns:cc="http://creativecommons.org/ns#"
   xmlns:rdf="http://www.w3.org/1999/02/22-rdf-syntax-ns#"
   xmlns:svg="http://www.w3.org/2000/svg"
   xmlns="http://www.w3.org/2000/svg"
   xmlns:xlink="http://www.w3.org/1999/xlink"
   xmlns:sodipodi="http://sodipodi.sourceforge.net/DTD/sodipodi-0.dtd"
   xmlns:inkscape="http://www.inkscape.org/namespaces/inkscape"
   id="svg8"
   version="1.1"
   viewBox="0 0 210 297"
   height="297mm"
   width="210mm"
   inkscape:version="0.92.5 (2060ec1f9f, 2020-04-08)"
   sodipodi:docname="Graphic1b.svg">
  <defs
     id="defs2">
    <marker
       inkscape:stockid="Arrow2Lstart"
       orient="auto"
       refY="0.0"
       refX="0.0"
       id="Arrow2Lstart"
       style="overflow:visible"
       inkscape:isstock="true">
      <path
         id="path1117"
         style="fill-rule:evenodd;stroke-width:0.625;stroke-linejoin:round;stroke:#2f455c;stroke-opacity:1;fill:#2f455c;fill-opacity:1"
         d="M 8.7185878,4.0337352 L -2.2072895,0.016013256 L 8.7185884,-4.0017078 C 6.9730900,-1.6296469 6.9831476,1.6157441 8.7185878,4.0337352 z "
         transform="scale(1.1) translate(1,0)" />
    </marker>
    <marker
       inkscape:stockid="Arrow1Mstart"
       orient="auto"
       refY="0.0"
       refX="0.0"
       id="Arrow1Mstart"
       style="overflow:visible"
       inkscape:isstock="true">
      <path
         id="path1105"
         d="M 0.0,0.0 L 5.0,-5.0 L -12.5,0.0 L 5.0,5.0 L 0.0,0.0 z "
         style="fill-rule:evenodd;stroke:#000000;stroke-width:1pt;stroke-opacity:1;fill:#000000;fill-opacity:1"
         transform="scale(0.4) translate(10,0)" />
    </marker>
  </defs>
  <sodipodi:namedview
     id="base"
     pagecolor="#ffffff"
     bordercolor="#666666"
     borderopacity="1.0"
     inkscape:pageopacity="0.0"
     inkscape:pageshadow="2"
     inkscape:zoom="2"
     inkscape:cx="357.51076"
     inkscape:cy="665.9681"
     inkscape:document-units="mm"
     inkscape:current-layer="ltx-render-layer"
     showgrid="false"
     inkscape:window-width="1920"
     inkscape:window-height="986"
     inkscape:window-x="-11"
     inkscape:window-y="-11"
     inkscape:window-maximized="1" />
  <metadata
     id="metadata5">
    <rdf:RDF>
      <cc:Work
         rdf:about="">
        <dc:format>image/svg+xml</dc:format>
        <dc:type
           rdf:resource="http://purl.org/dc/dcmitype/StillImage" />
        <dc:title></dc:title>
      </cc:Work>
    </rdf:RDF>
  </metadata>
  <g
     inkscape:label="Layer 1"
     inkscape:groupmode="layer"
     id="layer1"
     style="display:inline">
    <rect
       style="opacity:1;fill:#f8f2e4;fill-opacity:1;stroke:#000000;stroke-width:0.44400001;stroke-miterlimit:4;stroke-dasharray:none;stroke-dashoffset:0;stroke-opacity:0.85882353"
       id="rect832"
       width="155.70729"
       height="94.853127"
       x="23.680208"
       y="75.046432" />
  </g>
  <g
     inkscape:groupmode="layer"
     id="layer4"
     inkscape:label="Layer 3"
     style="display:inline">
    <circle
       style="display:inline;opacity:1;fill:#2f455c;fill-opacity:0.9844358;stroke:none;stroke-width:0.44400001;stroke-miterlimit:4;stroke-dasharray:none;stroke-dashoffset:0;stroke-opacity:0.85882353"
       id="path815"
       cx="81.517204"
       cy="122.473"
       r="31.270535" />
    <circle
       style="display:inline;opacity:1;fill:#c2cdc5;fill-opacity:1;stroke:none;stroke-width:0.44400001;stroke-miterlimit:4;stroke-dasharray:none;stroke-dashoffset:0;stroke-opacity:0.85882353"
       id="path815-8"
       cx="119.15334"
       cy="122.473"
       r="31.270536" />
  </g>
  <g
     inkscape:groupmode="layer"
     id="layer3"
     inkscape:label="Layer 2"
     style="display:inline">
    <circle
       style="opacity:1;fill:none;fill-opacity:0.99215686;stroke:#000000;stroke-width:0.44400001;stroke-miterlimit:4;stroke-dasharray:none;stroke-dashoffset:0;stroke-opacity:0.85882353"
       id="path815-3"
       cx="81.591309"
       cy="122.50729"
       r="31.270536" />
    <circle
       style="opacity:1;fill:none;fill-opacity:0.99215686;stroke:#000000;stroke-width:0.44400001;stroke-miterlimit:4;stroke-dasharray:none;stroke-dashoffset:0;stroke-opacity:0.85882353"
       id="path815-8-8"
       cx="119.22745"
       cy="122.50729"
       r="31.270538" />
  </g>
  <g
     inkscape:groupmode="layer"
     id="layer2"
     inkscape:label="text"
     style="display:none">
    <text
       xml:space="preserve"
       style="font-style:normal;font-weight:normal;font-size:4.58611107px;line-height:7.25;font-family:sans-serif;letter-spacing:0px;word-spacing:0px;fill:#000000;fill-opacity:1;stroke:none;stroke-width:0.26458332"
       x="42.597916"
       y="91.947914"
       id="text836"><tspan
         sodipodi:role="line"
         id="tspan834"
         x="42.597916"
         y="91.947914"
         style="stroke-width:0.26458332">$A$</tspan></text>
    <text
       xml:space="preserve"
       style="font-style:normal;font-weight:normal;font-size:4.58611107px;line-height:7.25;font-family:sans-serif;letter-spacing:0px;word-spacing:0px;fill:#000000;fill-opacity:1;stroke:none;stroke-width:0.26458332"
       x="140.62604"
       y="90.88958"
       id="text840"><tspan
         sodipodi:role="line"
         id="tspan838"
         x="140.62604"
         y="90.88958"
         style="stroke-width:0.26458332">$B$</tspan></text>
    <text
       xml:space="preserve"
       style="font-style:normal;font-weight:normal;font-size:4.58611107px;line-height:7.25;font-family:sans-serif;letter-spacing:0px;word-spacing:0px;fill:#000000;fill-opacity:1;stroke:none;stroke-width:0.26458332"
       x="91.54583"
       y="164.31146"
       id="text844"><tspan
         sodipodi:role="line"
         id="tspan842"
         x="91.54583"
         y="164.31146"
         style="stroke-width:0.26458332">$A \backslash B$</tspan></text>
  </g>
  <g
     rendltx:math="False"
     rendltx:newline="False"
     rendltx:fontsize="10"
     rendltx:depth="0"
     rendltx:scale="1.0"
     rendltx:packages="amsmath,amssymb"
     rendltx:preamble=""
     id="ltx-render-layer"
     inkscape:groupmode="layer"
     inkscape:label="Rendered Latex"
     style="display:inline">
    <path
       style="fill:none;stroke:#2f455c;stroke-width:0.26191601;stroke-linecap:butt;stroke-linejoin:miter;stroke-miterlimit:4;stroke-dasharray:none;stroke-opacity:1;marker-start:url(#Arrow2Lstart)"
       d="m 96.874008,151.2145 c 1.123907,1.95666 2.907449,4.79637 3.970852,6.35849"
       id="path1097"
       inkscape:connector-curvature="0"
       sodipodi:nodetypes="cc" />
    <g
       id="lx-text836"
       transform="matrix(0.76022704,0,0,0.79963046,40.341188,92.971429)">
      <defs
         id="defs3548">
        <g
           id="g3546">
          <symbol
             id="lx-text836-glyph0-0"
             overflow="visible"
             style="overflow:visible">
            <path
               id="path3540"
               d=""
               style="stroke:none"
               inkscape:connector-curvature="0" />
          </symbol>
          <symbol
             id="lx-text836-glyph0-1"
             overflow="visible"
             style="overflow:visible">
            <path
               id="path3543"
               d="M 1.78125,-1.140625 C 1.390625,-0.484375 1,-0.34375 0.5625,-0.3125 0.4375,-0.296875 0.34375,-0.296875 0.34375,-0.109375 0.34375,-0.046875 0.40625,0 0.484375,0 0.75,0 1.0625,-0.03125 1.328125,-0.03125 c 0.34375,0 0.6875,0.03125 1,0.03125 0.0625,0 0.1875,0 0.1875,-0.1875 0,-0.109375 -0.078125,-0.125 -0.15625,-0.125 -0.21875,-0.015625 -0.46875,-0.09375 -0.46875,-0.34375 0,-0.125 0.0625,-0.234375 0.140625,-0.375 l 0.765625,-1.265625 h 2.5 c 0.015625,0.203125 0.15625,1.5625 0.15625,1.65625 0,0.296875 -0.515625,0.328125 -0.71875,0.328125 C 4.59375,-0.3125 4.5,-0.3125 4.5,-0.109375 4.5,0 4.609375,0 4.640625,0 5.046875,0 5.46875,-0.03125 5.875,-0.03125 6.125,-0.03125 6.765625,0 7.015625,0 7.0625,0 7.1875,0 7.1875,-0.203125 7.1875,-0.3125 7.09375,-0.3125 6.953125,-0.3125 6.34375,-0.3125 6.34375,-0.375 6.3125,-0.671875 l -0.609375,-6.21875 c -0.015625,-0.203125 -0.015625,-0.25 -0.1875,-0.25 -0.15625,0 -0.203125,0.078125 -0.265625,0.171875 z M 2.984375,-2.609375 4.9375,-5.90625 5.265625,-2.609375 Z m 0,0"
               style="stroke:none"
               inkscape:connector-curvature="0" />
          </symbol>
        </g>
      </defs>
      <g
         id="lx-text836-surface1"
         transform="translate(16.879552,7.6102862)">
        <g
           id="g3552"
           style="fill:#000000;fill-opacity:1">
          <use
             id="use3550"
             y="0"
             x="0"
             xlink:href="#lx-text836-glyph0-1"
             width="100%"
             height="100%" />
        </g>
      </g>
    </g>
    <g
       id="lx-text840"
       transform="matrix(0.7873283,0,0,0.8281364,141.24681,99.022755)">
      <defs
         id="defs3564">
        <g
           id="g3562">
          <symbol
             id="lx-text840-glyph0-0"
             overflow="visible"
             style="overflow:visible">
            <path
               id="path3556"
               d=""
               style="stroke:none"
               inkscape:connector-curvature="0" />
          </symbol>
          <symbol
             id="lx-text840-glyph0-1"
             overflow="visible"
             style="overflow:visible">
            <path
               id="path3559"
               d="M 1.59375,-0.78125 C 1.5,-0.390625 1.46875,-0.3125 0.6875,-0.3125 c -0.171875,0 -0.265625,0 -0.265625,0.203125 C 0.421875,0 0.515625,0 0.6875,0 H 4.25 C 5.828125,0 7,-1.171875 7,-2.15625 7,-2.875 6.421875,-3.453125 5.453125,-3.5625 6.484375,-3.75 7.53125,-4.484375 7.53125,-5.4375 c 0,-0.734375 -0.65625,-1.375 -1.84375,-1.375 H 2.328125 c -0.1875,0 -0.28125,0 -0.28125,0.203125 0,0.109375 0.09375,0.109375 0.28125,0.109375 0.015625,0 0.203125,0 0.375,0.015625 0.171875,0.03125 0.265625,0.03125 0.265625,0.171875 0,0.03125 -0.015625,0.0625 -0.03125,0.1875 z m 1.5,-2.875 0.625,-2.46875 C 3.8125,-6.46875 3.828125,-6.5 4.25,-6.5 h 1.296875 c 0.875,0 1.078125,0.59375 1.078125,1.03125 0,0.875 -0.859375,1.8125 -2.0625,1.8125 z m -0.4375,3.34375 c -0.140625,0 -0.15625,0 -0.21875,0 -0.109375,-0.015625 -0.140625,-0.03125 -0.140625,-0.109375 0,-0.03125 0,-0.046875 0.0625,-0.21875 l 0.6875,-2.78125 h 1.875 c 0.953125,0 1.15625,0.734375 1.15625,1.15625 C 6.078125,-1.28125 5.1875,-0.3125 4,-0.3125 Z m 0,0"
               style="stroke:none"
               inkscape:connector-curvature="0" />
          </symbol>
        </g>
      </defs>
      <g
         id="lx-text840-surface1">
        <g
           id="g3568"
           style="fill:#000000;fill-opacity:1">
          <use
             id="use3566"
             y="0"
             x="0"
             xlink:href="#lx-text840-glyph0-1"
             width="100%"
             height="100%" />
        </g>
      </g>
    </g>
    <g
       id="lx-text844"
       transform="matrix(0.76022704,0,0,0.79963046,92.910208,164.17516)">
      <defs
         id="defs3589">
        <g
           id="g3587">
          <symbol
             id="lx-text844-glyph0-0"
             overflow="visible"
             style="overflow:visible">
            <path
               id="path3572"
               d=""
               style="stroke:none"
               inkscape:connector-curvature="0" />
          </symbol>
          <symbol
             id="lx-text844-glyph0-1"
             overflow="visible"
             style="overflow:visible">
            <path
               id="path3575"
               d="M 1.78125,-1.140625 C 1.390625,-0.484375 1,-0.34375 0.5625,-0.3125 0.4375,-0.296875 0.34375,-0.296875 0.34375,-0.109375 0.34375,-0.046875 0.40625,0 0.484375,0 0.75,0 1.0625,-0.03125 1.328125,-0.03125 c 0.34375,0 0.6875,0.03125 1,0.03125 0.0625,0 0.1875,0 0.1875,-0.1875 0,-0.109375 -0.078125,-0.125 -0.15625,-0.125 -0.21875,-0.015625 -0.46875,-0.09375 -0.46875,-0.34375 0,-0.125 0.0625,-0.234375 0.140625,-0.375 l 0.765625,-1.265625 h 2.5 c 0.015625,0.203125 0.15625,1.5625 0.15625,1.65625 0,0.296875 -0.515625,0.328125 -0.71875,0.328125 C 4.59375,-0.3125 4.5,-0.3125 4.5,-0.109375 4.5,0 4.609375,0 4.640625,0 5.046875,0 5.46875,-0.03125 5.875,-0.03125 6.125,-0.03125 6.765625,0 7.015625,0 7.0625,0 7.1875,0 7.1875,-0.203125 7.1875,-0.3125 7.09375,-0.3125 6.953125,-0.3125 6.34375,-0.3125 6.34375,-0.375 6.3125,-0.671875 l -0.609375,-6.21875 c -0.015625,-0.203125 -0.015625,-0.25 -0.1875,-0.25 -0.15625,0 -0.203125,0.078125 -0.265625,0.171875 z M 2.984375,-2.609375 4.9375,-5.90625 5.265625,-2.609375 Z m 0,0"
               style="stroke:none"
               inkscape:connector-curvature="0" />
          </symbol>
          <symbol
             id="lx-text844-glyph0-2"
             overflow="visible"
             style="overflow:visible">
            <path
               id="path3578"
               d="M 1.59375,-0.78125 C 1.5,-0.390625 1.46875,-0.3125 0.6875,-0.3125 c -0.171875,0 -0.265625,0 -0.265625,0.203125 C 0.421875,0 0.515625,0 0.6875,0 H 4.25 C 5.828125,0 7,-1.171875 7,-2.15625 7,-2.875 6.421875,-3.453125 5.453125,-3.5625 6.484375,-3.75 7.53125,-4.484375 7.53125,-5.4375 c 0,-0.734375 -0.65625,-1.375 -1.84375,-1.375 H 2.328125 c -0.1875,0 -0.28125,0 -0.28125,0.203125 0,0.109375 0.09375,0.109375 0.28125,0.109375 0.015625,0 0.203125,0 0.375,0.015625 0.171875,0.03125 0.265625,0.03125 0.265625,0.171875 0,0.03125 -0.015625,0.0625 -0.03125,0.1875 z m 1.5,-2.875 0.625,-2.46875 C 3.8125,-6.46875 3.828125,-6.5 4.25,-6.5 h 1.296875 c 0.875,0 1.078125,0.59375 1.078125,1.03125 0,0.875 -0.859375,1.8125 -2.0625,1.8125 z m -0.4375,3.34375 c -0.140625,0 -0.15625,0 -0.21875,0 -0.109375,-0.015625 -0.140625,-0.03125 -0.140625,-0.109375 0,-0.03125 0,-0.046875 0.0625,-0.21875 l 0.6875,-2.78125 h 1.875 c 0.953125,0 1.15625,0.734375 1.15625,1.15625 C 6.078125,-1.28125 5.1875,-0.3125 4,-0.3125 Z m 0,0"
               style="stroke:none"
               inkscape:connector-curvature="0" />
          </symbol>
          <symbol
             id="lx-text844-glyph1-0"
             overflow="visible"
             style="overflow:visible">
            <path
               id="path3581"
               d=""
               style="stroke:none"
               inkscape:connector-curvature="0" />
          </symbol>
          <symbol
             id="lx-text844-glyph1-1"
             overflow="visible"
             style="overflow:visible">
            <path
               id="path3584"
               d="m 4,2.25 c 0.046875,0.140625 0.09375,0.25 0.234375,0.25 0.109375,0 0.1875,-0.09375 0.1875,-0.203125 0,-0.03125 0,-0.046875 -0.046875,-0.15625 l -3.40625,-9.375 c -0.0625,-0.171875 -0.09375,-0.25 -0.21875,-0.25 -0.109375,0 -0.203125,0.09375 -0.203125,0.203125 0,0.03125 0,0.046875 0.046875,0.15625 z m 0,0"
               style="stroke:none"
               inkscape:connector-curvature="0" />
          </symbol>
        </g>
      </defs>
      <g
         id="lx-text844-surface1">
        <g
           id="g3593"
           style="fill:#000000;fill-opacity:1">
          <use
             id="use3591"
             y="0"
             x="0"
             xlink:href="#lx-text844-glyph0-1"
             width="100%"
             height="100%" />
        </g>
        <g
           id="g3597"
           style="fill:#000000;fill-opacity:1">
          <use
             id="use3595"
             y="0"
             x="7.4720001"
             xlink:href="#lx-text844-glyph1-1"
             width="100%"
             height="100%" />
        </g>
        <g
           id="g3601"
           style="fill:#000000;fill-opacity:1">
          <use
             id="use3599"
             y="0"
             x="12.454"
             xlink:href="#lx-text844-glyph0-2"
             width="100%"
             height="100%" />
        </g>
      </g>
    </g>
  </g>
</svg>
