<?xml version="1.0" encoding="UTF-8" standalone="no"?>
<svg
   xmlns:rendltx="http://NOTSET"
   xmlns:dc="http://purl.org/dc/elements/1.1/"
   xmlns:cc="http://creativecommons.org/ns#"
   xmlns:rdf="http://www.w3.org/1999/02/22-rdf-syntax-ns#"
   xmlns:svg="http://www.w3.org/2000/svg"
   xmlns="http://www.w3.org/2000/svg"
   xmlns:xlink="http://www.w3.org/1999/xlink"
   xmlns:sodipodi="http://sodipodi.sourceforge.net/DTD/sodipodi-0.dtd"
   xmlns:inkscape="http://www.inkscape.org/namespaces/inkscape"
   x="0"
   y="0"
   width="620"
   height="270"
   style="fill:none"
   version="1.1"
   id="svg125"
   sodipodi:docname="Graphic5.svg"
   inkscape:version="0.92.5 (2060ec1f9f, 2020-04-08)">
  <metadata
     id="metadata131">
    <rdf:RDF>
      <cc:Work
         rdf:about="">
        <dc:format>image/svg+xml</dc:format>
        <dc:type
           rdf:resource="http://purl.org/dc/dcmitype/StillImage" />
        <dc:title></dc:title>
      </cc:Work>
    </rdf:RDF>
  </metadata>
  <defs
     id="defs129" />
  <sodipodi:namedview
     pagecolor="#ffffff"
     bordercolor="#666666"
     borderopacity="1"
     objecttolerance="10"
     gridtolerance="10"
     guidetolerance="10"
     inkscape:pageopacity="0"
     inkscape:pageshadow="2"
     inkscape:window-width="1920"
     inkscape:window-height="986"
     id="namedview127"
     showgrid="false"
     inkscape:zoom="1.7645625"
     inkscape:cx="292.9163"
     inkscape:cy="125.92152"
     inkscape:window-x="-11"
     inkscape:window-y="-11"
     inkscape:window-maximized="1"
     inkscape:current-layer="g52" />
  <svg
     version="1.1"
     id="svg2"
     width="100%"
     height="100%"
     transform="translate(-20,-9)" />
  <svg
     class="role-diagram-draw-area"
     version="1.1"
     id="svg121"
     width="100%"
     height="100%"
     transform="translate(-20,-9)">
    <g
       style="fill:none;stroke:#000000"
       id="g109"
       transform="translate(20,9)"
       data-amt="diagram/shapes/plot"
       class="composite-shape">
      <g
         id="g32">
        <g
           class="test-xgi"
           id="g20">
          <line
             x1="77.132553"
             y1="0"
             x2="77.132553"
             y2="270"
             id="line4"
             style="fill:none;stroke:#c3c3c3;stroke-width:0.5" />
          <line
             x1="154.33255"
             y1="0"
             x2="154.33255"
             y2="270"
             id="line6"
             style="fill:none;stroke:#c3c3c3;stroke-width:0.5" />
          <line
             x1="231.53256"
             y1="0"
             x2="231.53256"
             y2="270"
             id="line8"
             style="fill:none;stroke:#c3c3c3;stroke-width:0.5" />
          <line
             x1="308.73254"
             y1="0"
             x2="308.73254"
             y2="270"
             id="line10"
             style="fill:none;stroke:#c3c3c3;stroke-width:0.5" />
          <line
             x1="385.93256"
             y1="0"
             x2="385.93256"
             y2="270"
             id="line12"
             style="fill:none;stroke:#c3c3c3;stroke-width:0.5" />
          <line
             x1="463.13257"
             y1="0"
             x2="463.13257"
             y2="270"
             id="line14"
             style="fill:none;stroke:#c3c3c3;stroke-width:0.5" />
          <line
             x1="540.33258"
             y1="0"
             x2="540.33258"
             y2="270"
             id="line16"
             style="fill:none;stroke:#c3c3c3;stroke-width:0.5" />
          <line
             x1="617.53253"
             y1="0"
             x2="617.53253"
             y2="270"
             id="line18"
             style="fill:none;stroke:#c3c3c3;stroke-width:0.5" />
        </g>
        <g
           class="test-ygi"
           id="g30">
          <line
             x1="0"
             y1="213.12741"
             x2="620"
             y2="213.12741"
             id="line22"
             style="fill:none;stroke:#c3c3c3;stroke-width:0.5" />
          <line
             x1="0"
             y1="144.72777"
             x2="620"
             y2="144.72777"
             id="line24"
             style="fill:none;stroke:#c3c3c3;stroke-width:0.5" />
          <line
             x1="0"
             y1="76.328117"
             x2="620"
             y2="76.328117"
             id="line26"
             style="fill:none;stroke:#c3c3c3;stroke-width:0.5" />
          <line
             x1="0"
             y1="7.9284644"
             x2="620"
             y2="7.9284644"
             id="line28"
             style="fill:none;stroke:#c3c3c3;stroke-width:0.5" />
        </g>
      </g>
      <g
         id="g52"
         style="font-family:Asana-Math, Asana"
         class="test-xti">
        <line
           style="fill:none;stroke:#323232;stroke-width:1;stroke-opacity:1"
           id="line34"
           y2="213.12741"
           x2="616"
           y1="213.12741"
           x1="0" />
        <line
           style="fill:none;stroke:#323232;stroke-width:1;stroke-opacity:1"
           id="line36"
           y2="217.12741"
           x2="77.132553"
           y1="209.12741"
           x1="77.132553" />
        <line
           style="fill:none;stroke:#323232;stroke-width:1;stroke-opacity:1"
           id="line38"
           y2="217.12741"
           x2="154.33255"
           y1="209.12741"
           x1="154.33255" />
        <line
           style="fill:none;stroke:#323232;stroke-width:1;stroke-opacity:1"
           id="line40"
           y2="217.12741"
           x2="231.53256"
           y1="209.12741"
           x1="231.53256" />
        <line
           style="fill:none;stroke:#323232;stroke-width:1;stroke-opacity:1"
           id="line42"
           y2="217.12741"
           x2="385.93256"
           y1="209.12741"
           x1="385.93256" />
        <line
           style="fill:none;stroke:#323232;stroke-width:1;stroke-opacity:1"
           id="line44"
           y2="217.12741"
           x2="463.13257"
           y1="209.12741"
           x1="463.13257" />
        <line
           style="fill:none;stroke:#323232;stroke-width:1;stroke-opacity:1"
           id="line46"
           y2="217.12741"
           x2="540.33258"
           y1="209.12741"
           x1="540.33258" />
        <line
           style="fill:none;stroke:#323232;stroke-width:1;stroke-opacity:1"
           id="line48"
           y2="217.12741"
           x2="617.53253"
           y1="209.12741"
           x1="617.53253" />
        <path
           style="fill:#323232;fill-opacity:1;stroke:none;stroke-width:1"
           inkscape:connector-curvature="0"
           id="path50"
           d="m 587,209.52741 8,3.6 -8,3.6 z" />
      </g>
      <g
         id="g64"
         style="font-family:Asana-Math, Asana"
         class="test-yti">
        <line
           style="fill:none;stroke:#323232;stroke-width:1;stroke-opacity:1"
           id="line54"
           y2="270"
           x2="308.73254"
           y1="4"
           x1="308.73254" />
        <line
           style="fill:none;stroke:#323232;stroke-width:1;stroke-opacity:1"
           id="line56"
           y2="144.72777"
           x2="312.73254"
           y1="144.72777"
           x1="304.73254" />
        <line
           style="fill:none;stroke:#323232;stroke-width:1;stroke-opacity:1"
           id="line58"
           y2="76.328117"
           x2="312.73254"
           y1="76.328117"
           x1="304.73254" />
        <line
           style="fill:none;stroke:#323232;stroke-width:1;stroke-opacity:1"
           id="line60"
           y2="7.9284644"
           x2="312.73254"
           y1="7.9284644"
           x1="304.73254" />
        <path
           style="fill:#323232;fill-opacity:1;stroke:none;stroke-width:1"
           inkscape:connector-curvature="0"
           id="path62"
           d="m 305.13256,9 3.6,-8 3.6,8 z" />
      </g>
      <g
         id="g75"
         class="test-plot-expression">
        <defs
           id="defs69">
          <clipPath
             id="cp2mijwljbb">
            <rect
               id="rect66"
               height="268"
               width="618"
               y="1"
               x="1" />
          </clipPath>
        </defs>
        <g
           id="g73"
           clip-path="url(#cp2mijwljbb)">
          <path
             inkscape:connector-curvature="0"
             id="path71"
             style="stroke:#ebb89d;stroke-width:2;stroke-opacity:1"
             d="m 0,-270 h 0.56 0.57 0.56 0.57 0.56 0.56 0.57 0.56 0.57 0.56 0.57 0.56 0.56 0.57 0.56 0.57 0.56 0.56 0.57 0.56 0.57 0.56 0.57 0.56 0.56 0.57 0.56 0.57 0.56 0.56 0.57 0.56 0.57 0.56 0.57 0.56 0.56 0.57 0.56 0.57 0.56 0.56 0.57 0.56 0.57 0.56 0.57 0.56 0.56 0.57 0.56 0.57 0.56 0.56 0.57 0.56 0.57 0.56 0.56 0.57 0.56 0.57 0.56 0.57 0.56 0.56 0.57 0.56 0.57 0.56 0.56 0.57 0.56 0.57 0.56 0.57 0.56 0.56 0.57 0.56 0.57 0.56 0.56 0.57 0.56 0.57 0.56 0.57 0.56 0.56 0.57 0.56 0.57 0.56 0.56 0.57 0.56 0.57 0.56 0.56 0.57 0.56 0.57 0.56 0.57 0.56 0.56 0.57 0.56 0.57 0.56 0.56 0.57 0.56 0.57 0.56 0.57 0.56 0.56 0.57 0.56 0.57 0.56 0.56 0.57 0.56 0.57 0.56 0.57 0.56 0.56 0.57 0.56 0.57 0.56 0.56 0.57 0.56 0.57 0.56 0.57 0.56 0.56 0.57 0.56 0.57 l 0.56,1.32 0.56,2.33 0.57,2.33 0.56,2.33 0.57,2.32 0.56,2.31 0.56,2.31 0.57,2.3 0.56,2.29 0.57,2.29 0.56,2.29 0.57,2.27 0.56,2.28 0.56,2.26 0.57,2.26 0.56,2.26 0.57,2.25 0.56,2.24 0.56,2.24 0.57,2.23 0.56,2.22 0.57,2.22 0.56,2.21 0.57,2.21 0.56,2.2 0.56,2.2 0.57,2.19 0.56,2.18 0.57,2.18 0.56,2.18 0.56,2.16 0.57,2.16 0.56,2.16 0.57,2.15 0.56,2.14 0.57,2.14 0.56,2.13 0.56,2.13 0.57,2.12 0.56,2.11 0.57,2.11 0.56,2.1 0.56,2.1 0.57,2.09 0.56,2.08 0.57,2.08 0.56,2.08 0.56,2.06 0.57,2.06 0.56,2.06 0.57,2.05 0.56,2.04 0.57,2.04 0.56,2.03 0.56,2.03 0.57,2.02 0.56,2.02 0.57,2.01 0.56,2 0.56,2 0.57,1.99 0.56,1.98 0.57,1.98 0.56,1.98 0.57,1.96 0.56,1.97 0.56,1.95 0.57,1.95 0.56,1.95 0.57,1.94 0.56,1.93 0.56,1.93 0.57,1.92 0.56,1.91 0.57,1.91 0.56,1.91 0.57,1.9 0.56,1.89 0.56,1.88 0.57,1.88 0.56,1.88 0.57,1.87 0.56,1.86 0.56,1.86 0.57,1.85 0.56,1.84 0.57,1.84 0.56,1.84 0.57,1.83 0.56,1.82 0.56,1.81 0.57,1.81 0.56,1.81 0.57,1.8 0.56,1.79 0.56,1.79 0.57,1.78 0.56,1.77 0.57,1.77 0.56,1.77 0.56,1.75 0.57,1.75 0.56,1.75 0.57,1.74 0.56,1.74 0.57,1.72 0.56,1.73 0.56,1.71 0.57,1.71 0.56,1.71 0.57,1.7 0.56,1.69 0.56,1.69 0.57,1.68 0.56,1.68 0.57,1.67 0.56,1.66 0.57,1.66 0.56,1.65 0.56,1.65 0.57,1.64 0.56,1.63 0.57,1.63 0.56,1.63 0.56,1.61 0.57,1.62 0.56,1.6 0.57,1.6 0.56,1.59 0.57,1.59 0.56,1.59 0.56,1.57 0.57,1.57 0.56,1.57 0.57,1.56 0.56,1.55 0.56,1.55 0.57,1.54 0.56,1.53 0.57,1.53 0.56,1.53 0.56,1.52 0.57,1.51 0.56,1.5 0.57,1.5 0.56,1.5 0.57,1.49 0.56,1.48 0.56,1.48 0.57,1.47 0.56,1.46 0.57,1.46 0.56,1.46 0.56,1.45 0.57,1.44 0.56,1.43 0.57,1.43 0.56,1.43 0.57,1.42 0.56,1.41 0.56,1.41 0.57,1.4 0.56,1.39 0.57,1.39 0.56,1.39 0.56,1.38 0.57,1.37 0.56,1.36 0.57,1.36 0.56,1.36 0.57,1.35 0.56,1.34 0.56,1.34 0.57,1.33 0.56,1.32 0.57,1.32 0.56,1.32 0.56,1.3 0.57,1.31 0.56,1.29 0.57,1.29 0.56,1.29 0.57,1.27 0.56,1.28 0.56,1.26 0.57,1.26 0.56,1.26 0.57,1.25 0.56,1.24 0.56,1.24 0.57,1.23 0.56,1.23 0.57,1.22 0.56,1.21 0.56,1.21 0.57,1.2 0.56,1.2 0.57,1.19 0.56,1.18 0.57,1.18 0.56,1.18 0.56,1.16 0.57,1.17 0.56,1.15 0.57,1.15 0.56,1.15 0.56,1.13 0.57,1.14 0.56,1.12 0.57,1.12 0.56,1.12 0.57,1.11 0.56,1.1 0.56,1.1 0.57,1.09 0.56,1.08 0.57,1.08 0.56,1.08 0.56,1.07 0.57,1.06 0.56,1.05 0.57,1.05 0.56,1.05 0.57,1.04 0.56,1.03 0.56,1.03 0.57,1.02 0.56,1.02 0.57,1 0.56,1.01 0.56,1 0.57,0.99 0.56,0.98 0.57,0.99 0.56,0.97 0.57,0.97 0.56,0.96 0.56,0.96 0.57,0.95 0.56,0.94 0.57,0.94 0.56,0.94 0.56,0.93 0.57,0.92 0.56,0.91 0.57,0.91 0.56,0.91 0.56,0.9 0.57,0.89 0.56,0.89 0.57,0.88 0.56,0.87 0.57,0.87 0.56,0.87 0.56,0.85 0.57,0.86 0.56,0.84 0.57,0.84 0.56,0.84 0.56,0.82 0.57,0.83 0.56,0.81 0.57,0.81 0.56,0.81 0.57,0.8 0.56,0.79 0.56,0.79 0.57,0.78 0.56,0.78 0.57,0.77 0.56,0.76 0.56,0.76 0.57,0.75 0.56,0.75 0.57,0.74 0.56,0.73 0.57,0.73 0.56,0.73 0.56,0.71 0.57,0.72 0.56,0.7 0.57,0.7 0.56,0.7 0.56,0.68 0.57,0.69 0.56,0.67 0.57,0.67 0.56,0.67 0.56,0.66 0.57,0.65 0.56,0.65 0.57,0.64 0.56,0.63 0.57,0.63 0.56,0.63 0.56,0.62 0.57,0.61 0.56,0.6 0.57,0.6 0.56,0.6 0.56,0.59 0.57,0.58 0.56,0.58 0.57,0.57 0.56,0.56 0.57,0.56 0.56,0.56 0.56,0.55 0.57,0.54 0.56,0.53 0.57,0.53 0.56,0.53 0.56,0.52 0.57,0.51 0.56,0.51 0.57,0.5 0.56,0.49 0.57,0.49 0.56,0.49 0.56,0.48 0.57,0.47 0.56,0.46 0.57,0.46 0.56,0.46 0.56,0.45 0.57,0.44 0.56,0.44 0.57,0.43 0.56,0.42 0.57,0.42 0.56,0.42 0.56,0.4 0.57,0.4 0.56,0.4 0.57,0.39 0.56,0.39 0.56,0.37 0.57,0.38 0.56,0.36 0.57,0.36 0.56,0.36 0.56,0.35 0.57,0.34 0.56,0.34 0.57,0.33 0.56,0.33 0.57,0.32 0.56,0.31 0.56,0.31 0.57,0.3 0.56,0.3 0.57,0.29 0.56,0.28 0.56,0.28 0.57,0.28 0.56,0.26 0.57,0.26 0.56,0.26 0.57,0.25 0.56,0.24 0.56,0.24 0.57,0.24 0.56,0.22 0.57,0.22 0.56,0.22 0.56,0.21 0.57,0.2 0.56,0.2 0.57,0.19 0.56,0.18 0.57,0.18 0.56,0.18 0.56,0.16 0.57,0.17 0.56,0.15 0.57,0.15 0.56,0.15 0.56,0.14 0.57,0.13 0.56,0.13 0.57,0.12 0.56,0.11 0.56,0.11 0.57,0.11 0.56,0.1 0.57,0.09 0.56,0.08 0.57,0.08 0.56,0.08 0.56,0.07 0.57,0.06 0.56,0.06 0.57,0.05 0.56,0.04 0.56,0.04 0.57,0.04 0.56,0.02 0.57,0.03 0.56,0.01 0.57,0.01 0.56,0.01 h 0.56 l 0.57,-0.01 0.56,-0.01 0.57,-0.02 0.56,-0.03 0.56,-0.03 0.57,-0.04 0.56,-0.04 0.57,-0.05 0.56,-0.05 0.57,-0.06 0.56,-0.07 0.56,-0.07 0.57,-0.07 0.56,-0.09 0.57,-0.09 0.56,-0.09 0.56,-0.1 0.57,-0.11 0.56,-0.11 0.57,-0.12 0.56,-0.12 0.57,-0.13 0.56,-0.14 0.56,-0.14 0.57,-0.15 0.56,-0.15 0.57,-0.16 0.56,-0.17 0.56,-0.17 0.57,-0.17 0.56,-0.19 0.57,-0.19 0.56,-0.19 0.56,-0.2 0.57,-0.21 0.56,-0.21 0.57,-0.22 0.56,-0.22 0.57,-0.23 0.56,-0.23 0.56,-0.25 0.57,-0.24 0.56,-0.25 0.57,-0.26 0.56,-0.27 0.56,-0.27 0.57,-0.27 0.56,-0.29 0.57,-0.28 0.56,-0.3 0.57,-0.3 0.56,-0.3 0.56,-0.31 0.57,-0.32 0.56,-0.32 0.57,-0.33 0.56,-0.34 0.56,-0.34 0.57,-0.34 0.56,-0.36 0.57,-0.35 0.56,-0.37 0.57,-0.37 0.56,-0.37 0.56,-0.38 0.57,-0.39 0.56,-0.39 0.57,-0.4 0.56,-0.41 0.56,-0.41 0.57,-0.41 0.56,-0.43 0.57,-0.42 0.56,-0.44 0.56,-0.44 0.57,-0.44 0.56,-0.46 0.57,-0.45 0.56,-0.47 0.57,-0.46 0.56,-0.48 0.56,-0.48 0.57,-0.49 0.56,-0.49 0.57,-0.5 0.56,-0.5 0.56,-0.51 0.57,-0.52 0.56,-0.52 0.57,-0.53 0.56,-0.53 0.57,-0.54 0.56,-0.54 0.56,-0.55 0.57,-0.56 0.56,-0.56 0.57,-0.57 0.56,-0.58 0.56,-0.58 0.57,-0.58 0.56,-0.59 0.57,-0.6 0.56,-0.6 0.57,-0.61 0.56,-0.62 0.56,-0.62 0.57,-0.63 0.56,-0.63 0.57,-0.64 0.56,-0.64 0.56,-0.65 0.57,-0.66 0.56,-0.66 0.57,-0.67 0.56,-0.67 0.57,-0.68 0.56,-0.69 0.56,-0.69 0.57,-0.69 0.56,-0.71 0.57,-0.7 0.56,-0.72 0.56,-0.72 0.57,-0.73 0.56,-0.73 0.57,-0.74 0.56,-0.74 0.56,-0.75 0.57,-0.75 0.56,-0.77 0.57,-0.76 0.56,-0.78 0.57,-0.77 0.56,-0.79 0.56,-0.79 0.57,-0.8 0.56,-0.8 0.57,-0.81 0.56,-0.81 0.56,-0.82 0.57,-0.82 0.56,-0.84 0.57,-0.83 0.56,-0.85 0.57,-0.84 0.56,-0.86 0.56,-0.86 0.57,-0.87 0.56,-0.87 0.57,-0.88 0.56,-0.88 0.56,-0.89 0.57,-0.9 0.56,-0.9 0.57,-0.9 0.56,-0.92 0.57,-0.92 0.56,-0.92 0.56,-0.93 0.57,-0.94 0.56,-0.94 0.57,-0.95 0.56,-0.95 0.56,-0.96 0.57,-0.97 0.56,-0.97 0.57,-0.98 0.56,-0.98 0.56,-0.99 0.57,-1 0.56,-1 0.57,-1 0.56,-1.02 0.57,-1.01 0.56,-1.03 0.56,-1.03 0.57,-1.03 0.56,-1.05 0.57,-1.04 0.56,-1.06 0.56,-1.06 0.57,-1.06 0.56,-1.07 0.57,-1.08 0.56,-1.08 0.57,-1.09 0.56,-1.09 0.56,-1.1 0.57,-1.11 0.56,-1.11 0.57,-1.12 0.56,-1.12 0.56,-1.13 0.57,-1.14 0.56,-1.14 0.57,-1.15 0.56,-1.15 0.57,-1.16 0.56,-1.16 0.56,-1.17 0.57,-1.18 0.56,-1.18 0.57,-1.19 0.56,-1.19 0.56,-1.2 0.57,-1.21 0.56,-1.21 0.57,-1.21 0.56,-1.23 0.57,-1.23 0.56,-1.23 0.56,-1.24 0.57,-1.25 0.56,-1.25 0.57,-1.26 0.56,-1.26 0.56,-1.27 0.57,-1.28 0.56,-1.28 0.57,-1.28 0.56,-1.3 0.56,-1.3 0.57,-1.3 0.56,-1.31 0.57,-1.32 0.56,-1.32 0.57,-1.33 0.56,-1.33 0.56,-1.34 0.57,-1.35 0.56,-1.35 0.57,-1.36 0.56,-1.36 0.56,-1.37 0.57,-1.37 0.56,-1.38 0.57,-1.39 0.56,-1.39 0.57,-1.4 0.56,-1.41 0.56,-1.41 0.57,-1.41 0.56,-1.42 0.57,-1.43 0.56,-1.43 0.56,-1.44 0.57,-1.45 0.56,-1.45 0.57,-1.45 0.56,-1.47 0.57,-1.47 0.56,-1.47 0.56,-1.48 0.57,-1.49 0.56,-1.49 0.57,-1.49 0.56,-1.51 0.56,-1.51 0.57,-1.51 0.56,-1.52 0.57,-1.53 0.56,-1.53 0.57,-1.54 0.56,-1.55 0.56,-1.55 0.57,-1.55 0.56,-1.56 0.57,-1.57 0.56,-1.58 0.56,-1.57 0.57,-1.59 0.56,-1.59 0.57,-1.6 0.56,-1.6 0.56,-1.61 0.57,-1.61 0.56,-1.62 0.57,-1.63 0.56,-1.63 0.57,-1.64 0.56,-1.64 0.56,-1.65 0.57,-1.66 0.56,-1.66 0.57,-1.67 0.56,-1.67 0.56,-1.68 0.57,-1.68 0.56,-1.69 0.57,-1.7 0.56,-1.7 0.57,-1.71 0.56,-1.71 0.56,-1.72 0.57,-1.73 0.56,-1.73 0.57,-1.74 0.56,-1.74 0.56,-1.75 0.57,-1.75 0.56,-1.76 0.57,-1.77 0.56,-1.77 0.57,-1.78 0.56,-1.78 0.56,-1.79 0.57,-1.8 0.56,-1.8 0.57,-1.81 0.56,-1.81 0.56,-1.82 0.57,-1.83 0.56,-1.83 0.57,-1.83 0.56,-1.85 0.56,-1.84 0.57,-1.86 0.56,-1.86 0.57,-1.86 0.56,-1.88 0.57,-1.87 0.56,-1.89 0.56,-1.88 0.57,-1.9 0.56,-1.9 0.57,-1.91 0.56,-1.91 0.56,-1.92 0.57,-1.92 0.56,-1.93 0.57,-1.94 0.56,-1.94 0.57,-1.95 0.56,-1.95 0.56,-1.96 0.57,-1.97 0.56,-1.97 0.57,-1.97 0.56,-1.99 0.56,-1.98 0.57,-2 0.56,-2 0.57,-2 0.56,-2.02 0.57,-2.01 0.56,-2.03 0.56,-2.03 0.57,-2.03 0.56,-2.04 0.57,-2.05 0.56,-2.05 0.56,-2.06 0.57,-2.07 0.56,-2.07 0.57,-2.07 0.56,-2.08 0.57,-2.09 0.56,-2.1 0.56,-2.1 0.57,-2.1 0.56,-2.11 0.57,-2.12 0.56,-2.12 0.56,-2.13 0.57,-2.14 0.56,-2.14 0.57,-2.14 0.56,-2.15 0.56,-2.16 0.57,-2.17 0.56,-2.17 0.57,-2.17 0.56,-2.18 0.57,-2.19 0.56,-2.19 0.56,-2.2 0.57,-2.21 0.56,-2.21 0.57,-2.21 0.56,-2.23 0.56,-2.22 0.57,-2.24 0.56,-2.24 0.57,-2.24 0.56,-2.25 0.57,-2.26 0.56,-2.27 0.56,-2.26 0.57,-2.28 0.56,-2.28 0.57,-2.29 0.56,-2.29 0.56,-2.3 0.57,-2.3 0.56,-2.31 0.57,-2.32 0.56,-2.32 0.57,-2.33 0.56,-2.33 0.56,-2.34 0.57,-0.16 h 0.56 0.57 0.56 0.56 0.57 0.56 0.57 0.56 0.56 0.57 0.56 0.57 0.56 0.57 0.56 0.56 0.57 0.56 0.57 0.56 0.56 0.57 0.56 0.57 0.56 0.57 0.56 0.56 0.57 0.56 0.57 0.56 0.56 0.57 0.56 0.57 0.56 0.57 0.56 0.56 0.57 0.56 0.57 0.56 0.56 0.57 0.56 0.57 0.56 0.57 0.56 0.56 0.57 0.56 0.57 0.56 0.56 0.57 0.56 0.57 0.56 0.56 0.57 0.56 0.57 0.56 0.57 0.56 0.56 0.57 0.56 0.57 0.56 0.56 0.57 0.56 0.57 0.56 0.57 0.56 0.56 0.57 0.56 0.57 0.56 0.56 0.57 0.56 0.57 0.56 0.57 0.56 0.56 0.57 0.56 0.57 0.56 0.56 0.57 0.56 0.57 0.56 0.56 0.57 0.56 0.57 0.56 0.57 0.56 0.56 0.57 0.56 0.57 0.56 0.56 0.57 0.56 0.57 0.56 0.57 0.56 0.56 0.57 0.56 0.57 0.56 0.56 0.57 0.56 0.57 0.56 0.57 0.56 0.56 0.57 0.56 0.57 0.56 0.56 0.57 0.56 0.57 0.56 0.57 0.56 0.56 0.57 0.56 0.57 0.56" />
        </g>
      </g>
      <g
         id="g101"
         style="font-family:'Open Sans', verdana, arial, sans-serif"
         class="test-ytl" />
      <rect
         id="rect103"
         style="stroke:none"
         height="268"
         width="618"
         y="1"
         x="1"
         class="real" />
    </g>
    <g
       style="fill:none;stroke:#000000"
       id="g111" />
    <g
       id="g115" />
    <g
       id="g117" />
    <g
       id="g119" />
  </svg>
  <g
     inkscape:groupmode="layer"
     id="layer1"
     inkscape:label="text"
     style="display:none"
     transform="translate(-20,-9)">
    <text
       xml:space="preserve"
       style="font-style:normal;font-weight:normal;font-size:17.33333397px;line-height:7.25;font-family:sans-serif;letter-spacing:0px;word-spacing:0px;fill:#000000;fill-opacity:1;stroke:none"
       x="497.00705"
       y="89.281906"
       id="text4644"><tspan
         sodipodi:role="line"
         id="tspan4642"
         x="497.00705"
         y="89.281906">$f(x)=x^2+1$</tspan></text>
    <text
       xml:space="preserve"
       style="font-style:normal;font-weight:normal;font-size:17.33333397px;line-height:7.25;font-family:sans-serif;letter-spacing:0px;word-spacing:0px;fill:#000000;fill-opacity:1;stroke:none"
       x="99.174721"
       y="172.02196"
       id="text4648"><tspan
         sodipodi:role="line"
         id="tspan4646"
         x="99.174721"
         y="172.02196">$f(-2)$</tspan></text>
    <text
       xml:space="preserve"
       style="font-style:normal;font-weight:normal;font-size:17.33333397px;line-height:7.25;font-family:sans-serif;letter-spacing:0px;word-spacing:0px;fill:#000000;fill-opacity:1;stroke:none"
       x="439.76904"
       y="177.12238"
       id="text4652"><tspan
         sodipodi:role="line"
         id="tspan4650"
         x="439.76904"
         y="177.12238">$f(2)$</tspan></text>
    <text
       xml:space="preserve"
       style="font-style:normal;font-weight:normal;font-size:17.33333397px;line-height:7.25;font-family:sans-serif;letter-spacing:0px;word-spacing:0px;fill:#000000;fill-opacity:1;stroke:none"
       x="371.76352"
       y="113.08384"
       id="text5475"><tspan
         sodipodi:role="line"
         id="tspan5473"
         x="371.76352"
         y="113.08384">$5$</tspan></text>
  </g>
  <svg
     width="660"
     height="310"
     style="font-family:Asana-Math, Asana"
     version="1.1"
     id="svg123"
     transform="translate(-20,-9)" />
  <g
     rendltx:math="False"
     rendltx:newline="False"
     rendltx:fontsize="10"
     rendltx:depth="0"
     rendltx:scale="1.0"
     rendltx:packages="amsmath,amssymb"
     rendltx:preamble=""
     id="ltx-render-layer"
     inkscape:groupmode="layer"
     inkscape:label="Rendered Latex"
     style="display:inline"
     transform="translate(-20,-9)">
    <g
       id="lx-text77"
       transform="matrix(1.25,0,0,1.25,90.688805,239.89304)">
      <defs
         id="defs4737">
        <g
           id="g4735">
          <symbol
             id="lx-text77-glyph0-0"
             overflow="visible"
             style="overflow:visible">
            <path
               id="path4726"
               d=""
               style="stroke:none"
               inkscape:connector-curvature="0" />
          </symbol>
          <symbol
             id="lx-text77-glyph0-1"
             overflow="visible"
             style="overflow:visible">
            <path
               id="path4729"
               d="M 2.75,-1.859375 V -2.4375 H 0.109375 v 0.578125 z m 0,0"
               style="stroke:none"
               inkscape:connector-curvature="0" />
          </symbol>
          <symbol
             id="lx-text77-glyph0-2"
             overflow="visible"
             style="overflow:visible">
            <path
               id="path4732"
               d="m 1.3125,-3.265625 v -0.25 c 0,-2.515625 1.234375,-2.875 1.75,-2.875 0.234375,0 0.65625,0.0625 0.875,0.40625 -0.15625,0 -0.546875,0 -0.546875,0.4375 0,0.3125 0.234375,0.46875 0.453125,0.46875 0.15625,0 0.46875,-0.09375 0.46875,-0.484375 0,-0.59375 -0.4375,-1.078125 -1.265625,-1.078125 -1.28125,0 -2.625,1.28125 -2.625,3.484375 0,2.671875 1.15625,3.375 2.078125,3.375 1.109375,0 2.0625,-0.9375 2.0625,-2.25 0,-1.265625 -0.890625,-2.21875 -2,-2.21875 -0.671875,0 -1.046875,0.5 -1.25,0.984375 z M 2.5,-0.0625 c -0.625,0 -0.921875,-0.59375 -0.984375,-0.75 -0.1875,-0.46875 -0.1875,-1.265625 -0.1875,-1.4375 0,-0.78125 0.328125,-1.78125 1.21875,-1.78125 0.171875,0 0.625,0 0.9375,0.625 0.171875,0.359375 0.171875,0.875 0.171875,1.359375 0,0.484375 0,0.984375 -0.171875,1.34375 C 3.1875,-0.109375 2.734375,-0.0625 2.5,-0.0625 Z m 0,0"
               style="stroke:none"
               inkscape:connector-curvature="0" />
          </symbol>
        </g>
      </defs>
      <g
         id="lx-text77-surface1">
        <g
           id="g4743"
           style="fill:#000000;fill-opacity:1">
          <use
             id="use4739"
             y="0"
             x="0"
             xlink:href="#lx-text77-glyph0-1"
             width="100%"
             height="100%" />
          <use
             id="use4741"
             y="0"
             x="3.3205349"
             xlink:href="#lx-text77-glyph0-2"
             width="100%"
             height="100%" />
        </g>
      </g>
    </g>
    <g
       id="lx-text79"
       transform="matrix(1.25,0,0,1.25,171.48255,229.12741)">
      <defs
         id="defs4758">
        <g
           id="g4756">
          <symbol
             id="lx-text79-glyph0-0"
             overflow="visible"
             style="overflow:visible">
            <path
               id="path4747"
               d=""
               style="stroke:none"
               inkscape:connector-curvature="0" />
          </symbol>
          <symbol
             id="lx-text79-glyph0-1"
             overflow="visible"
             style="overflow:visible">
            <path
               id="path4750"
               d="M 2.75,-1.859375 V -2.4375 H 0.109375 v 0.578125 z m 0,0"
               style="stroke:none"
               inkscape:connector-curvature="0" />
          </symbol>
          <symbol
             id="lx-text79-glyph0-2"
             overflow="visible"
             style="overflow:visible">
            <path
               id="path4753"
               d="m 2.9375,-1.640625 v 0.859375 c 0,0.359375 -0.03125,0.46875 -0.765625,0.46875 H 1.96875 V 0 C 2.375,-0.03125 2.890625,-0.03125 3.3125,-0.03125 c 0.421875,0 0.9375,0 1.359375,0.03125 v -0.3125 h -0.21875 c -0.734375,0 -0.75,-0.109375 -0.75,-0.46875 V -1.640625 H 4.6875 v -0.3125 H 3.703125 v -4.53125 c 0,-0.203125 0,-0.265625 -0.171875,-0.265625 -0.078125,0 -0.109375,0 -0.1875,0.125 l -3.0625,4.671875 v 0.3125 z m 0.046875,-0.3125 H 0.5625 l 2.421875,-3.71875 z m 0,0"
               style="stroke:none"
               inkscape:connector-curvature="0" />
          </symbol>
        </g>
      </defs>
      <g
         id="lx-text79-surface1">
        <g
           id="g4764"
           style="fill:#000000;fill-opacity:1">
          <use
             id="use4760"
             y="0"
             x="0"
             xlink:href="#lx-text79-glyph0-1"
             width="100%"
             height="100%" />
          <use
             id="use4762"
             y="0"
             x="3.3205349"
             xlink:href="#lx-text79-glyph0-2"
             transform="translate(-2.875,8.6125)"
             width="100%"
             height="100%" />
        </g>
      </g>
    </g>
    <g
       id="lx-text81"
       transform="matrix(1.25,0,0,1.25,245.0888,239.89304)">
      <defs
         id="defs4779">
        <g
           id="g4777">
          <symbol
             id="lx-text81-glyph0-0"
             overflow="visible"
             style="overflow:visible">
            <path
               id="path4768"
               d=""
               style="stroke:none"
               inkscape:connector-curvature="0" />
          </symbol>
          <symbol
             id="lx-text81-glyph0-1"
             overflow="visible"
             style="overflow:visible">
            <path
               id="path4771"
               d="M 2.75,-1.859375 V -2.4375 H 0.109375 v 0.578125 z m 0,0"
               style="stroke:none"
               inkscape:connector-curvature="0" />
          </symbol>
          <symbol
             id="lx-text81-glyph0-2"
             overflow="visible"
             style="overflow:visible">
            <path
               id="path4774"
               d="m 1.265625,-0.765625 1.0625,-1.03125 c 1.546875,-1.375 2.140625,-1.90625 2.140625,-2.90625 0,-1.140625 -0.890625,-1.9375 -2.109375,-1.9375 -1.125,0 -1.859375,0.921875 -1.859375,1.8125 0,0.546875 0.5,0.546875 0.53125,0.546875 0.171875,0 0.515625,-0.109375 0.515625,-0.53125 0,-0.25 -0.1875,-0.515625 -0.53125,-0.515625 -0.078125,0 -0.09375,0 -0.125,0.015625 0.21875,-0.65625 0.765625,-1.015625 1.34375,-1.015625 0.90625,0 1.328125,0.8125 1.328125,1.625 C 3.5625,-3.90625 3.078125,-3.125 2.515625,-2.5 l -1.90625,2.125 C 0.5,-0.265625 0.5,-0.234375 0.5,0 H 4.203125 L 4.46875,-1.734375 H 4.234375 C 4.171875,-1.4375 4.109375,-1 4,-0.84375 3.9375,-0.765625 3.28125,-0.765625 3.0625,-0.765625 Z m 0,0"
               style="stroke:none"
               inkscape:connector-curvature="0" />
          </symbol>
        </g>
      </defs>
      <g
         id="lx-text81-surface1">
        <g
           id="g4785"
           style="fill:#000000;fill-opacity:1">
          <use
             id="use4781"
             y="0"
             x="0"
             xlink:href="#lx-text81-glyph0-1"
             width="100%"
             height="100%" />
          <use
             id="use4783"
             y="0"
             x="3.3205349"
             xlink:href="#lx-text81-glyph0-2"
             width="100%"
             height="100%" />
        </g>
      </g>
    </g>
    <g
       id="lx-text83"
       transform="matrix(1.25,0,0,1.25,402.3388,239.89304)">
      <defs
         id="defs4797">
        <g
           id="g4795">
          <symbol
             id="lx-text83-glyph0-0"
             overflow="visible"
             style="overflow:visible">
            <path
               id="path4789"
               d=""
               style="stroke:none"
               inkscape:connector-curvature="0" />
          </symbol>
          <symbol
             id="lx-text83-glyph0-1"
             overflow="visible"
             style="overflow:visible">
            <path
               id="path4792"
               d="m 1.265625,-0.765625 1.0625,-1.03125 c 1.546875,-1.375 2.140625,-1.90625 2.140625,-2.90625 0,-1.140625 -0.890625,-1.9375 -2.109375,-1.9375 -1.125,0 -1.859375,0.921875 -1.859375,1.8125 0,0.546875 0.5,0.546875 0.53125,0.546875 0.171875,0 0.515625,-0.109375 0.515625,-0.53125 0,-0.25 -0.1875,-0.515625 -0.53125,-0.515625 -0.078125,0 -0.09375,0 -0.125,0.015625 0.21875,-0.65625 0.765625,-1.015625 1.34375,-1.015625 0.90625,0 1.328125,0.8125 1.328125,1.625 C 3.5625,-3.90625 3.078125,-3.125 2.515625,-2.5 l -1.90625,2.125 C 0.5,-0.265625 0.5,-0.234375 0.5,0 H 4.203125 L 4.46875,-1.734375 H 4.234375 C 4.171875,-1.4375 4.109375,-1 4,-0.84375 3.9375,-0.765625 3.28125,-0.765625 3.0625,-0.765625 Z m 0,0"
               style="stroke:none"
               inkscape:connector-curvature="0" />
          </symbol>
        </g>
      </defs>
      <g
         id="lx-text83-surface1">
        <g
           id="g4801"
           style="fill:#000000;fill-opacity:1">
          <use
             id="use4799"
             y="0"
             x="0"
             xlink:href="#lx-text83-glyph0-1"
             width="100%"
             height="100%" />
        </g>
      </g>
    </g>
    <g
       id="lx-text85"
       transform="matrix(1.25,0,0,1.25,479.53881,239.89304)">
      <defs
         id="defs4813">
        <g
           id="g4811">
          <symbol
             id="lx-text85-glyph0-0"
             overflow="visible"
             style="overflow:visible">
            <path
               id="path4805"
               d=""
               style="stroke:none"
               inkscape:connector-curvature="0" />
          </symbol>
          <symbol
             id="lx-text85-glyph0-1"
             overflow="visible"
             style="overflow:visible">
            <path
               id="path4808"
               d="m 2.9375,-1.640625 v 0.859375 c 0,0.359375 -0.03125,0.46875 -0.765625,0.46875 H 1.96875 V 0 C 2.375,-0.03125 2.890625,-0.03125 3.3125,-0.03125 c 0.421875,0 0.9375,0 1.359375,0.03125 v -0.3125 h -0.21875 c -0.734375,0 -0.75,-0.109375 -0.75,-0.46875 V -1.640625 H 4.6875 v -0.3125 H 3.703125 v -4.53125 c 0,-0.203125 0,-0.265625 -0.171875,-0.265625 -0.078125,0 -0.109375,0 -0.1875,0.125 l -3.0625,4.671875 v 0.3125 z m 0.046875,-0.3125 H 0.5625 l 2.421875,-3.71875 z m 0,0"
               style="stroke:none"
               inkscape:connector-curvature="0" />
          </symbol>
        </g>
      </defs>
      <g
         id="lx-text85-surface1">
        <g
           id="g4817"
           style="fill:#000000;fill-opacity:1">
          <use
             id="use4815"
             y="0"
             x="0"
             xlink:href="#lx-text85-glyph0-1"
             width="100%"
             height="100%" />
        </g>
      </g>
    </g>
    <g
       id="lx-text87"
       transform="matrix(1.25,0,0,1.25,556.7388,239.89304)">
      <defs
         id="defs4829">
        <g
           id="g4827">
          <symbol
             id="lx-text87-glyph0-0"
             overflow="visible"
             style="overflow:visible">
            <path
               id="path4821"
               d=""
               style="stroke:none"
               inkscape:connector-curvature="0" />
          </symbol>
          <symbol
             id="lx-text87-glyph0-1"
             overflow="visible"
             style="overflow:visible">
            <path
               id="path4824"
               d="m 1.3125,-3.265625 v -0.25 c 0,-2.515625 1.234375,-2.875 1.75,-2.875 0.234375,0 0.65625,0.0625 0.875,0.40625 -0.15625,0 -0.546875,0 -0.546875,0.4375 0,0.3125 0.234375,0.46875 0.453125,0.46875 0.15625,0 0.46875,-0.09375 0.46875,-0.484375 0,-0.59375 -0.4375,-1.078125 -1.265625,-1.078125 -1.28125,0 -2.625,1.28125 -2.625,3.484375 0,2.671875 1.15625,3.375 2.078125,3.375 1.109375,0 2.0625,-0.9375 2.0625,-2.25 0,-1.265625 -0.890625,-2.21875 -2,-2.21875 -0.671875,0 -1.046875,0.5 -1.25,0.984375 z M 2.5,-0.0625 c -0.625,0 -0.921875,-0.59375 -0.984375,-0.75 -0.1875,-0.46875 -0.1875,-1.265625 -0.1875,-1.4375 0,-0.78125 0.328125,-1.78125 1.21875,-1.78125 0.171875,0 0.625,0 0.9375,0.625 0.171875,0.359375 0.171875,0.875 0.171875,1.359375 0,0.484375 0,0.984375 -0.171875,1.34375 C 3.1875,-0.109375 2.734375,-0.0625 2.5,-0.0625 Z m 0,0"
               style="stroke:none"
               inkscape:connector-curvature="0" />
          </symbol>
        </g>
      </defs>
      <g
         id="lx-text87-surface1">
        <g
           id="g4833"
           style="fill:#000000;fill-opacity:1">
          <use
             id="use4831"
             y="0"
             x="0"
             xlink:href="#lx-text87-glyph0-1"
             width="100%"
             height="100%" />
        </g>
      </g>
    </g>
    <g
       id="lx-text91"
       transform="matrix(1.25,0,0,1.25,319.70551,235.35934)">
      <defs
         id="defs4861">
        <g
           id="g4859">
          <symbol
             id="lx-text91-glyph0-0"
             overflow="visible"
             style="overflow:visible">
            <path
               id="path4853"
               d=""
               style="stroke:none"
               inkscape:connector-curvature="0" />
          </symbol>
          <symbol
             id="lx-text91-glyph0-1"
             overflow="visible"
             style="overflow:visible">
            <path
               id="path4856"
               d="m 4.578125,-3.1875 c 0,-0.796875 -0.046875,-1.59375 -0.390625,-2.328125 -0.453125,-0.96875 -1.28125,-1.125 -1.6875,-1.125 -0.609375,0 -1.328125,0.265625 -1.75,1.1875 -0.3125,0.6875 -0.359375,1.46875 -0.359375,2.265625 0,0.75 0.03125,1.640625 0.453125,2.40625 0.421875,0.796875 1.15625,1 1.640625,1 0.53125,0 1.296875,-0.203125 1.734375,-1.15625 0.3125,-0.6875 0.359375,-1.46875 0.359375,-2.25 z M 2.484375,0 C 2.09375,0 1.5,-0.25 1.328125,-1.203125 1.21875,-1.796875 1.21875,-2.71875 1.21875,-3.3125 c 0,-0.640625 0,-1.296875 0.078125,-1.828125 0.1875,-1.1875 0.9375,-1.28125 1.1875,-1.28125 0.328125,0 0.984375,0.1875 1.171875,1.171875 0.109375,0.5625 0.109375,1.3125 0.109375,1.9375 0,0.75 0,1.421875 -0.109375,2.0625 C 3.5,-0.296875 2.9375,0 2.484375,0 Z m 0,0"
               style="stroke:none"
               inkscape:connector-curvature="0" />
          </symbol>
        </g>
      </defs>
      <g
         id="lx-text91-surface1">
        <g
           id="g4865"
           style="fill:#000000;fill-opacity:1">
          <use
             id="use4863"
             y="0"
             x="0"
             xlink:href="#lx-text91-glyph0-1"
             width="100%"
             height="100%" />
        </g>
      </g>
    </g>
    <g
       id="lx-text97"
       transform="matrix(1.25,0,0,1.25,339.43407,87.594965)">
      <defs
         id="defs4896">
        <g
           id="g4894">
          <symbol
             id="lx-text97-glyph0-0"
             overflow="visible"
             style="overflow:visible">
            <path
               id="path4885"
               d=""
               style="stroke:none"
               inkscape:connector-curvature="0" />
          </symbol>
          <symbol
             id="lx-text97-glyph0-1"
             overflow="visible"
             style="overflow:visible">
            <path
               id="path4888"
               d="m 2.9375,-6.375 c 0,-0.25 0,-0.265625 -0.234375,-0.265625 C 2.078125,-6 1.203125,-6 0.890625,-6 v 0.3125 c 0.203125,0 0.78125,0 1.296875,-0.265625 v 5.171875 c 0,0.359375 -0.03125,0.46875 -0.921875,0.46875 h -0.3125 V 0 c 0.34375,-0.03125 1.203125,-0.03125 1.609375,-0.03125 0.390625,0 1.265625,0 1.609375,0.03125 v -0.3125 h -0.3125 c -0.90625,0 -0.921875,-0.109375 -0.921875,-0.46875 z m 0,0"
               style="stroke:none"
               inkscape:connector-curvature="0" />
          </symbol>
          <symbol
             id="lx-text97-glyph0-2"
             overflow="visible"
             style="overflow:visible">
            <path
               id="path4891"
               d="m 4.578125,-3.1875 c 0,-0.796875 -0.046875,-1.59375 -0.390625,-2.328125 -0.453125,-0.96875 -1.28125,-1.125 -1.6875,-1.125 -0.609375,0 -1.328125,0.265625 -1.75,1.1875 -0.3125,0.6875 -0.359375,1.46875 -0.359375,2.265625 0,0.75 0.03125,1.640625 0.453125,2.40625 0.421875,0.796875 1.15625,1 1.640625,1 0.53125,0 1.296875,-0.203125 1.734375,-1.15625 0.3125,-0.6875 0.359375,-1.46875 0.359375,-2.25 z M 2.484375,0 C 2.09375,0 1.5,-0.25 1.328125,-1.203125 1.21875,-1.796875 1.21875,-2.71875 1.21875,-3.3125 c 0,-0.640625 0,-1.296875 0.078125,-1.828125 0.1875,-1.1875 0.9375,-1.28125 1.1875,-1.28125 0.328125,0 0.984375,0.1875 1.171875,1.171875 0.109375,0.5625 0.109375,1.3125 0.109375,1.9375 0,0.75 0,1.421875 -0.109375,2.0625 C 3.5,-0.296875 2.9375,0 2.484375,0 Z m 0,0"
               style="stroke:none"
               inkscape:connector-curvature="0" />
          </symbol>
        </g>
      </defs>
      <g
         id="lx-text97-surface1">
        <g
           id="g4902"
           style="fill:#000000;fill-opacity:1">
          <use
             id="use4898"
             y="0"
             x="0"
             xlink:href="#lx-text97-glyph0-1"
             width="100%"
             height="100%" />
          <use
             id="use4900"
             y="0"
             x="4.9812999"
             xlink:href="#lx-text97-glyph0-2"
             width="100%"
             height="100%" />
        </g>
      </g>
    </g>
    <g
       id="lx-text99"
       transform="matrix(1.25,0,0,1.25,339.43407,19.195315)">
      <defs
         id="defs4917">
        <g
           id="g4915">
          <symbol
             id="lx-text99-glyph0-0"
             overflow="visible"
             style="overflow:visible">
            <path
               id="path4906"
               d=""
               style="stroke:none"
               inkscape:connector-curvature="0" />
          </symbol>
          <symbol
             id="lx-text99-glyph0-1"
             overflow="visible"
             style="overflow:visible">
            <path
               id="path4909"
               d="m 2.9375,-6.375 c 0,-0.25 0,-0.265625 -0.234375,-0.265625 C 2.078125,-6 1.203125,-6 0.890625,-6 v 0.3125 c 0.203125,0 0.78125,0 1.296875,-0.265625 v 5.171875 c 0,0.359375 -0.03125,0.46875 -0.921875,0.46875 h -0.3125 V 0 c 0.34375,-0.03125 1.203125,-0.03125 1.609375,-0.03125 0.390625,0 1.265625,0 1.609375,0.03125 v -0.3125 h -0.3125 c -0.90625,0 -0.921875,-0.109375 -0.921875,-0.46875 z m 0,0"
               style="stroke:none"
               inkscape:connector-curvature="0" />
          </symbol>
          <symbol
             id="lx-text99-glyph0-2"
             overflow="visible"
             style="overflow:visible">
            <path
               id="path4912"
               d="m 4.46875,-2 c 0,-1.1875 -0.8125,-2.1875 -1.890625,-2.1875 -0.46875,0 -0.90625,0.15625 -1.265625,0.515625 V -5.625 c 0.203125,0.0625 0.53125,0.125 0.84375,0.125 1.234375,0 1.9375,-0.90625 1.9375,-1.03125 0,-0.0625 -0.03125,-0.109375 -0.109375,-0.109375 0,0 -0.03125,0 -0.078125,0.03125 C 3.703125,-6.515625 3.21875,-6.3125 2.546875,-6.3125 2.15625,-6.3125 1.6875,-6.390625 1.21875,-6.59375 1.140625,-6.625 1.125,-6.625 1.109375,-6.625 1,-6.625 1,-6.546875 1,-6.390625 V -3.4375 c 0,0.171875 0,0.25 0.140625,0.25 0.078125,0 0.09375,-0.015625 0.140625,-0.078125 C 1.390625,-3.421875 1.75,-3.96875 2.5625,-3.96875 c 0.515625,0 0.765625,0.453125 0.84375,0.640625 0.15625,0.375 0.1875,0.75 0.1875,1.25 0,0.359375 0,0.953125 -0.25,1.375 C 3.109375,-0.3125 2.734375,-0.0625 2.28125,-0.0625 c -0.71875,0 -1.296875,-0.53125 -1.46875,-1.109375 0.03125,0 0.0625,0.015625 0.171875,0.015625 0.328125,0 0.5,-0.25 0.5,-0.484375 0,-0.25 -0.171875,-0.5 -0.5,-0.5 C 0.84375,-2.140625 0.5,-2.0625 0.5,-1.609375 0.5,-0.75 1.1875,0.21875 2.296875,0.21875 3.453125,0.21875 4.46875,-0.734375 4.46875,-2 Z m 0,0"
               style="stroke:none"
               inkscape:connector-curvature="0" />
          </symbol>
        </g>
      </defs>
      <g
         id="lx-text99-surface1">
        <g
           id="g4923"
           style="fill:#000000;fill-opacity:1">
          <use
             id="use4919"
             y="0"
             x="0"
             xlink:href="#lx-text99-glyph0-1"
             width="100%"
             height="100%" />
          <use
             id="use4921"
             y="0"
             x="4.9812999"
             xlink:href="#lx-text99-glyph0-2"
             width="100%"
             height="100%" />
        </g>
      </g>
    </g>
    <path
       sodipodi:type="star"
       style="opacity:1;fill:none;fill-opacity:1;stroke:#94ae9e;stroke-width:1.67811024;stroke-miterlimit:4;stroke-dasharray:none;stroke-dashoffset:0;stroke-opacity:1"
       id="path5313"
       sodipodi:sides="4"
       sodipodi:cx="252.4705"
       sodipodi:cy="153.88715"
       sodipodi:r1="4.4261675"
       sodipodi:r2="0.84097183"
       sodipodi:arg1="0.87605805"
       sodipodi:arg2="1.6614562"
       inkscape:flatsided="false"
       inkscape:rounded="0"
       inkscape:randomized="0"
       d="m 255.30407,157.28742 -2.9097,-2.56276 -3.32414,1.99605 2.56276,-2.9097 -1.99605,-3.32414 2.9097,2.56276 3.32414,-1.99605 -2.56276,2.9097 z"
       inkscape:transform-center-x="0.12490293"
       inkscape:transform-center-y="-0.32423593"
       transform="rotate(-5.9226561,252.56128,154.22254)" />
    <path
       sodipodi:type="star"
       style="opacity:1;fill:none;fill-opacity:1;stroke:#94ae9e;stroke-width:1.67811024;stroke-miterlimit:4;stroke-dasharray:none;stroke-dashoffset:0;stroke-opacity:1"
       id="path5313-0"
       sodipodi:sides="4"
       sodipodi:cx="252.4705"
       sodipodi:cy="153.88715"
       sodipodi:r1="4.4261675"
       sodipodi:r2="0.84097183"
       sodipodi:arg1="0.87605805"
       sodipodi:arg2="1.6614562"
       inkscape:flatsided="false"
       inkscape:rounded="0"
       inkscape:randomized="0"
       d="m 255.30407,157.28742 -2.9097,-2.56276 -3.32414,1.99605 2.56276,-2.9097 -1.99605,-3.32414 2.9097,2.56276 3.32414,-1.99605 -2.56276,2.9097 z"
       inkscape:transform-center-x="0.12490293"
       inkscape:transform-center-y="-0.32423593"
       transform="rotate(-5.9226561,329.26018,-1330.5144)" />
    <g
       id="lx-text4644"
       transform="matrix(1.6558008,0,0,1.6558008,486.59064,59.189655)">
      <defs
         id="defs5688">
        <g
           id="g5686">
          <symbol
             id="lx-text4644-glyph0-0"
             overflow="visible"
             style="overflow:visible">
            <path
               id="path5653"
               d=""
               style="stroke:none"
               inkscape:connector-curvature="0" />
          </symbol>
          <symbol
             id="lx-text4644-glyph0-1"
             overflow="visible"
             style="overflow:visible">
            <path
               id="path5656"
               d="m 3.65625,-3.984375 h 0.859375 c 0.203125,0 0.296875,0 0.296875,-0.203125 0,-0.109375 -0.09375,-0.109375 -0.265625,-0.109375 H 3.71875 L 3.921875,-5.4375 c 0.046875,-0.203125 0.1875,-0.90625 0.25,-1.03125 0.078125,-0.1875 0.25,-0.34375 0.46875,-0.34375 0.03125,0 0.296875,0 0.484375,0.1875 -0.4375,0.03125 -0.546875,0.390625 -0.546875,0.53125 0,0.234375 0.1875,0.359375 0.375,0.359375 C 5.21875,-5.734375 5.5,-5.96875 5.5,-6.34375 c 0,-0.453125 -0.453125,-0.6875 -0.859375,-0.6875 -0.34375,0 -0.96875,0.1875 -1.265625,1.171875 -0.0625,0.203125 -0.09375,0.3125 -0.328125,1.5625 h -0.6875 c -0.203125,0 -0.3125,0 -0.3125,0.1875 0,0.125 0.09375,0.125 0.28125,0.125 h 0.65625 L 2.25,-0.046875 c -0.1875,0.96875 -0.359375,1.875 -0.875,1.875 -0.046875,0 -0.28125,0 -0.484375,-0.1875 C 1.359375,1.609375 1.453125,1.25 1.453125,1.109375 1.453125,0.875 1.265625,0.75 1.078125,0.75 0.8125,0.75 0.53125,0.984375 0.53125,1.359375 c 0,0.4375 0.4375,0.6875 0.84375,0.6875 0.546875,0 0.953125,-0.59375 1.125,-0.96875 0.328125,-0.625 0.546875,-1.828125 0.5625,-1.90625 z m 0,0"
               style="stroke:none"
               inkscape:connector-curvature="0" />
          </symbol>
          <symbol
             id="lx-text4644-glyph0-2"
             overflow="visible"
             style="overflow:visible">
            <path
               id="path5659"
               d="M 3.328125,-3.015625 C 3.390625,-3.265625 3.625,-4.1875 4.3125,-4.1875 c 0.046875,0 0.296875,0 0.5,0.125 C 4.53125,-4 4.34375,-3.765625 4.34375,-3.515625 c 0,0.15625 0.109375,0.34375 0.375,0.34375 0.21875,0 0.53125,-0.171875 0.53125,-0.578125 0,-0.515625 -0.578125,-0.65625 -0.921875,-0.65625 -0.578125,0 -0.921875,0.53125 -1.046875,0.75 -0.25,-0.65625 -0.78125,-0.75 -1.078125,-0.75 -1.03125,0 -1.609375,1.28125 -1.609375,1.53125 0,0.109375 0.109375,0.109375 0.125,0.109375 0.078125,0 0.109375,-0.03125 0.125,-0.109375 0.34375,-1.0625 1,-1.3125 1.34375,-1.3125 0.1875,0 0.53125,0.09375 0.53125,0.671875 0,0.3125 -0.171875,0.96875 -0.53125,2.375 -0.15625,0.609375 -0.515625,1.03125 -0.953125,1.03125 -0.0625,0 -0.28125,0 -0.5,-0.125 0.25,-0.0625 0.46875,-0.265625 0.46875,-0.546875 0,-0.265625 -0.21875,-0.34375 -0.359375,-0.34375 -0.3125,0 -0.546875,0.25 -0.546875,0.578125 0,0.453125 0.484375,0.65625 0.921875,0.65625 0.671875,0 1.03125,-0.703125 1.046875,-0.75 0.125,0.359375 0.484375,0.75 1.078125,0.75 1.03125,0 1.59375,-1.28125 1.59375,-1.53125 0,-0.109375 -0.078125,-0.109375 -0.109375,-0.109375 -0.09375,0 -0.109375,0.046875 -0.140625,0.109375 -0.328125,1.078125 -1,1.3125 -1.3125,1.3125 -0.390625,0 -0.546875,-0.3125 -0.546875,-0.65625 0,-0.21875 0.046875,-0.4375 0.15625,-0.875 z m 0,0"
               style="stroke:none"
               inkscape:connector-curvature="0" />
          </symbol>
          <symbol
             id="lx-text4644-glyph1-0"
             overflow="visible"
             style="overflow:visible">
            <path
               id="path5662"
               d=""
               style="stroke:none"
               inkscape:connector-curvature="0" />
          </symbol>
          <symbol
             id="lx-text4644-glyph1-1"
             overflow="visible"
             style="overflow:visible">
            <path
               id="path5665"
               d="m 3.296875,2.390625 c 0,-0.03125 0,-0.046875 -0.171875,-0.21875 C 1.890625,0.921875 1.5625,-0.96875 1.5625,-2.5 c 0,-1.734375 0.375,-3.46875 1.609375,-4.703125 0.125,-0.125 0.125,-0.140625 0.125,-0.171875 0,-0.078125 -0.03125,-0.109375 -0.09375,-0.109375 -0.109375,0 -1,0.6875 -1.59375,1.953125 -0.5,1.09375 -0.625,2.203125 -0.625,3.03125 0,0.78125 0.109375,1.984375 0.65625,3.125 C 2.25,1.84375 3.09375,2.5 3.203125,2.5 c 0.0625,0 0.09375,-0.03125 0.09375,-0.109375 z m 0,0"
               style="stroke:none"
               inkscape:connector-curvature="0" />
          </symbol>
          <symbol
             id="lx-text4644-glyph1-2"
             overflow="visible"
             style="overflow:visible">
            <path
               id="path5668"
               d="m 2.875,-2.5 c 0,-0.765625 -0.109375,-1.96875 -0.65625,-3.109375 -0.59375,-1.21875 -1.453125,-1.875 -1.546875,-1.875 -0.0625,0 -0.109375,0.046875 -0.109375,0.109375 0,0.03125 0,0.046875 0.1875,0.234375 0.984375,0.984375 1.546875,2.5625 1.546875,4.640625 0,1.71875 -0.359375,3.46875 -1.59375,4.71875 C 0.5625,2.34375 0.5625,2.359375 0.5625,2.390625 0.5625,2.453125 0.609375,2.5 0.671875,2.5 0.765625,2.5 1.671875,1.8125 2.25,0.546875 2.765625,-0.546875 2.875,-1.65625 2.875,-2.5 Z m 0,0"
               style="stroke:none"
               inkscape:connector-curvature="0" />
          </symbol>
          <symbol
             id="lx-text4644-glyph1-3"
             overflow="visible"
             style="overflow:visible">
            <path
               id="path5671"
               d="m 6.84375,-3.265625 c 0.15625,0 0.34375,0 0.34375,-0.1875 C 7.1875,-3.65625 7,-3.65625 6.859375,-3.65625 h -5.96875 c -0.140625,0 -0.328125,0 -0.328125,0.203125 0,0.1875 0.1875,0.1875 0.328125,0.1875 z m 0.015625,1.9375 c 0.140625,0 0.328125,0 0.328125,-0.203125 0,-0.1875 -0.1875,-0.1875 -0.34375,-0.1875 H 0.890625 c -0.140625,0 -0.328125,0 -0.328125,0.1875 0,0.203125 0.1875,0.203125 0.328125,0.203125 z m 0,0"
               style="stroke:none"
               inkscape:connector-curvature="0" />
          </symbol>
          <symbol
             id="lx-text4644-glyph1-4"
             overflow="visible"
             style="overflow:visible">
            <path
               id="path5674"
               d="m 4.078125,-2.296875 h 2.78125 C 7,-2.296875 7.1875,-2.296875 7.1875,-2.5 7.1875,-2.6875 7,-2.6875 6.859375,-2.6875 h -2.78125 v -2.796875 c 0,-0.140625 0,-0.328125 -0.203125,-0.328125 -0.203125,0 -0.203125,0.1875 -0.203125,0.328125 V -2.6875 h -2.78125 c -0.140625,0 -0.328125,0 -0.328125,0.1875 0,0.203125 0.1875,0.203125 0.328125,0.203125 h 2.78125 V 0.5 c 0,0.140625 0,0.328125 0.203125,0.328125 0.203125,0 0.203125,-0.1875 0.203125,-0.328125 z m 0,0"
               style="stroke:none"
               inkscape:connector-curvature="0" />
          </symbol>
          <symbol
             id="lx-text4644-glyph1-5"
             overflow="visible"
             style="overflow:visible">
            <path
               id="path5677"
               d="m 2.9375,-6.375 c 0,-0.25 0,-0.265625 -0.234375,-0.265625 C 2.078125,-6 1.203125,-6 0.890625,-6 v 0.3125 c 0.203125,0 0.78125,0 1.296875,-0.265625 v 5.171875 c 0,0.359375 -0.03125,0.46875 -0.921875,0.46875 h -0.3125 V 0 c 0.34375,-0.03125 1.203125,-0.03125 1.609375,-0.03125 0.390625,0 1.265625,0 1.609375,0.03125 v -0.3125 h -0.3125 c -0.90625,0 -0.921875,-0.109375 -0.921875,-0.46875 z m 0,0"
               style="stroke:none"
               inkscape:connector-curvature="0" />
          </symbol>
          <symbol
             id="lx-text4644-glyph2-0"
             overflow="visible"
             style="overflow:visible">
            <path
               id="path5680"
               d=""
               style="stroke:none"
               inkscape:connector-curvature="0" />
          </symbol>
          <symbol
             id="lx-text4644-glyph2-1"
             overflow="visible"
             style="overflow:visible">
            <path
               id="path5683"
               d="M 3.515625,-1.265625 H 3.28125 c -0.015625,0.15625 -0.09375,0.5625 -0.1875,0.625 C 3.046875,-0.59375 2.515625,-0.59375 2.40625,-0.59375 H 1.125 c 0.734375,-0.640625 0.984375,-0.84375 1.390625,-1.171875 0.515625,-0.40625 1,-0.84375 1,-1.5 0,-0.84375 -0.734375,-1.359375 -1.625,-1.359375 -0.859375,0 -1.453125,0.609375 -1.453125,1.25 0,0.34375 0.296875,0.390625 0.375,0.390625 0.15625,0 0.359375,-0.125 0.359375,-0.375 0,-0.125 -0.046875,-0.375 -0.40625,-0.375 C 0.984375,-4.21875 1.453125,-4.375 1.78125,-4.375 c 0.703125,0 1.0625,0.546875 1.0625,1.109375 0,0.609375 -0.4375,1.078125 -0.65625,1.328125 L 0.515625,-0.265625 C 0.4375,-0.203125 0.4375,-0.1875 0.4375,0 h 2.875 z m 0,0"
               style="stroke:none"
               inkscape:connector-curvature="0" />
          </symbol>
        </g>
      </defs>
      <g
         id="lx-text4644-surface1">
        <g
           id="g5692"
           style="fill:#000000;fill-opacity:1">
          <use
             id="use5690"
             y="0"
             x="0"
             xlink:href="#lx-text4644-glyph0-1"
             width="100%"
             height="100%" />
        </g>
        <g
           id="g5696"
           style="fill:#000000;fill-opacity:1">
          <use
             id="use5694"
             y="0"
             x="5.9499998"
             xlink:href="#lx-text4644-glyph1-1"
             width="100%"
             height="100%" />
        </g>
        <g
           id="g5700"
           style="fill:#000000;fill-opacity:1">
          <use
             id="use5698"
             y="0"
             x="9.8240004"
             xlink:href="#lx-text4644-glyph0-2"
             width="100%"
             height="100%" />
        </g>
        <g
           id="g5704"
           style="fill:#000000;fill-opacity:1">
          <use
             id="use5702"
             y="0"
             x="15.518"
             xlink:href="#lx-text4644-glyph1-2"
             width="100%"
             height="100%" />
        </g>
        <g
           id="g5708"
           style="fill:#000000;fill-opacity:1">
          <use
             id="use5706"
             y="0"
             x="22.162058"
             xlink:href="#lx-text4644-glyph1-3"
             width="100%"
             height="100%" />
        </g>
        <g
           id="g5712"
           style="fill:#000000;fill-opacity:1">
          <use
             id="use5710"
             y="0"
             x="32.675999"
             xlink:href="#lx-text4644-glyph0-2"
             width="100%"
             height="100%" />
        </g>
        <g
           id="g5716"
           style="fill:#000000;fill-opacity:1">
          <use
             id="use5714"
             y="-3.615"
             x="38.369999"
             xlink:href="#lx-text4644-glyph2-1"
             width="100%"
             height="100%" />
        </g>
        <g
           id="g5720"
           style="fill:#000000;fill-opacity:1">
          <use
             id="use5718"
             y="0"
             x="45.053001"
             xlink:href="#lx-text4644-glyph1-4"
             width="100%"
             height="100%" />
        </g>
        <g
           id="g5724"
           style="fill:#000000;fill-opacity:1">
          <use
             id="use5722"
             y="0"
             x="55.013607"
             xlink:href="#lx-text4644-glyph1-5"
             width="100%"
             height="100%" />
        </g>
      </g>
    </g>
    <g
       id="lx-text4648"
       transform="matrix(1.25,0,0,1.25,210.81712,158.42086)">
      <defs
         id="defs5754">
        <g
           id="g5752">
          <symbol
             id="lx-text4648-glyph0-0"
             overflow="visible"
             style="overflow:visible">
            <path
               id="path5728"
               d=""
               style="stroke:none"
               inkscape:connector-curvature="0" />
          </symbol>
          <symbol
             id="lx-text4648-glyph0-1"
             overflow="visible"
             style="overflow:visible">
            <path
               id="path5731"
               d="m 3.65625,-3.984375 h 0.859375 c 0.203125,0 0.296875,0 0.296875,-0.203125 0,-0.109375 -0.09375,-0.109375 -0.265625,-0.109375 H 3.71875 L 3.921875,-5.4375 c 0.046875,-0.203125 0.1875,-0.90625 0.25,-1.03125 0.078125,-0.1875 0.25,-0.34375 0.46875,-0.34375 0.03125,0 0.296875,0 0.484375,0.1875 -0.4375,0.03125 -0.546875,0.390625 -0.546875,0.53125 0,0.234375 0.1875,0.359375 0.375,0.359375 C 5.21875,-5.734375 5.5,-5.96875 5.5,-6.34375 c 0,-0.453125 -0.453125,-0.6875 -0.859375,-0.6875 -0.34375,0 -0.96875,0.1875 -1.265625,1.171875 -0.0625,0.203125 -0.09375,0.3125 -0.328125,1.5625 h -0.6875 c -0.203125,0 -0.3125,0 -0.3125,0.1875 0,0.125 0.09375,0.125 0.28125,0.125 h 0.65625 L 2.25,-0.046875 c -0.1875,0.96875 -0.359375,1.875 -0.875,1.875 -0.046875,0 -0.28125,0 -0.484375,-0.1875 C 1.359375,1.609375 1.453125,1.25 1.453125,1.109375 1.453125,0.875 1.265625,0.75 1.078125,0.75 0.8125,0.75 0.53125,0.984375 0.53125,1.359375 c 0,0.4375 0.4375,0.6875 0.84375,0.6875 0.546875,0 0.953125,-0.59375 1.125,-0.96875 0.328125,-0.625 0.546875,-1.828125 0.5625,-1.90625 z m 0,0"
               style="stroke:none"
               inkscape:connector-curvature="0" />
          </symbol>
          <symbol
             id="lx-text4648-glyph1-0"
             overflow="visible"
             style="overflow:visible">
            <path
               id="path5734"
               d=""
               style="stroke:none"
               inkscape:connector-curvature="0" />
          </symbol>
          <symbol
             id="lx-text4648-glyph1-1"
             overflow="visible"
             style="overflow:visible">
            <path
               id="path5737"
               d="m 3.296875,2.390625 c 0,-0.03125 0,-0.046875 -0.171875,-0.21875 C 1.890625,0.921875 1.5625,-0.96875 1.5625,-2.5 c 0,-1.734375 0.375,-3.46875 1.609375,-4.703125 0.125,-0.125 0.125,-0.140625 0.125,-0.171875 0,-0.078125 -0.03125,-0.109375 -0.09375,-0.109375 -0.109375,0 -1,0.6875 -1.59375,1.953125 -0.5,1.09375 -0.625,2.203125 -0.625,3.03125 0,0.78125 0.109375,1.984375 0.65625,3.125 C 2.25,1.84375 3.09375,2.5 3.203125,2.5 c 0.0625,0 0.09375,-0.03125 0.09375,-0.109375 z m 0,0"
               style="stroke:none"
               inkscape:connector-curvature="0" />
          </symbol>
          <symbol
             id="lx-text4648-glyph1-2"
             overflow="visible"
             style="overflow:visible">
            <path
               id="path5740"
               d="m 1.265625,-0.765625 1.0625,-1.03125 c 1.546875,-1.375 2.140625,-1.90625 2.140625,-2.90625 0,-1.140625 -0.890625,-1.9375 -2.109375,-1.9375 -1.125,0 -1.859375,0.921875 -1.859375,1.8125 0,0.546875 0.5,0.546875 0.53125,0.546875 0.171875,0 0.515625,-0.109375 0.515625,-0.53125 0,-0.25 -0.1875,-0.515625 -0.53125,-0.515625 -0.078125,0 -0.09375,0 -0.125,0.015625 0.21875,-0.65625 0.765625,-1.015625 1.34375,-1.015625 0.90625,0 1.328125,0.8125 1.328125,1.625 C 3.5625,-3.90625 3.078125,-3.125 2.515625,-2.5 l -1.90625,2.125 C 0.5,-0.265625 0.5,-0.234375 0.5,0 H 4.203125 L 4.46875,-1.734375 H 4.234375 C 4.171875,-1.4375 4.109375,-1 4,-0.84375 3.9375,-0.765625 3.28125,-0.765625 3.0625,-0.765625 Z m 0,0"
               style="stroke:none"
               inkscape:connector-curvature="0" />
          </symbol>
          <symbol
             id="lx-text4648-glyph1-3"
             overflow="visible"
             style="overflow:visible">
            <path
               id="path5743"
               d="m 2.875,-2.5 c 0,-0.765625 -0.109375,-1.96875 -0.65625,-3.109375 -0.59375,-1.21875 -1.453125,-1.875 -1.546875,-1.875 -0.0625,0 -0.109375,0.046875 -0.109375,0.109375 0,0.03125 0,0.046875 0.1875,0.234375 0.984375,0.984375 1.546875,2.5625 1.546875,4.640625 0,1.71875 -0.359375,3.46875 -1.59375,4.71875 C 0.5625,2.34375 0.5625,2.359375 0.5625,2.390625 0.5625,2.453125 0.609375,2.5 0.671875,2.5 0.765625,2.5 1.671875,1.8125 2.25,0.546875 2.765625,-0.546875 2.875,-1.65625 2.875,-2.5 Z m 0,0"
               style="stroke:none"
               inkscape:connector-curvature="0" />
          </symbol>
          <symbol
             id="lx-text4648-glyph2-0"
             overflow="visible"
             style="overflow:visible">
            <path
               id="path5746"
               d=""
               style="stroke:none"
               inkscape:connector-curvature="0" />
          </symbol>
          <symbol
             id="lx-text4648-glyph2-1"
             overflow="visible"
             style="overflow:visible">
            <path
               id="path5749"
               d="m 6.5625,-2.296875 c 0.171875,0 0.359375,0 0.359375,-0.203125 0,-0.1875 -0.1875,-0.1875 -0.359375,-0.1875 H 1.171875 c -0.171875,0 -0.34375,0 -0.34375,0.1875 0,0.203125 0.171875,0.203125 0.34375,0.203125 z m 0,0"
               style="stroke:none"
               inkscape:connector-curvature="0" />
          </symbol>
        </g>
      </defs>
      <g
         id="lx-text4648-surface1">
        <g
           id="g5758"
           style="fill:#000000;fill-opacity:1">
          <use
             id="use5756"
             y="0"
             x="0"
             xlink:href="#lx-text4648-glyph0-1"
             width="100%"
             height="100%" />
        </g>
        <g
           id="g5762"
           style="fill:#000000;fill-opacity:1">
          <use
             id="use5760"
             y="0"
             x="5.9499998"
             xlink:href="#lx-text4648-glyph1-1"
             width="100%"
             height="100%" />
        </g>
        <g
           id="g5766"
           style="fill:#000000;fill-opacity:1">
          <use
             id="use5764"
             y="0"
             x="9.8240004"
             xlink:href="#lx-text4648-glyph2-1"
             width="100%"
             height="100%" />
        </g>
        <g
           id="g5772"
           style="fill:#000000;fill-opacity:1">
          <use
             id="use5768"
             y="0"
             x="17.573"
             xlink:href="#lx-text4648-glyph1-2"
             width="100%"
             height="100%" />
          <use
             id="use5770"
             y="0"
             x="22.5543"
             xlink:href="#lx-text4648-glyph1-3"
             width="100%"
             height="100%" />
        </g>
      </g>
    </g>
    <g
       id="lx-text4652"
       transform="matrix(1.25,0,0,1.25,416.53382,157.28744)">
      <defs
         id="defs5796">
        <g
           id="g5794">
          <symbol
             id="lx-text4652-glyph0-0"
             overflow="visible"
             style="overflow:visible">
            <path
               id="path5776"
               d=""
               style="stroke:none"
               inkscape:connector-curvature="0" />
          </symbol>
          <symbol
             id="lx-text4652-glyph0-1"
             overflow="visible"
             style="overflow:visible">
            <path
               id="path5779"
               d="m 3.65625,-3.984375 h 0.859375 c 0.203125,0 0.296875,0 0.296875,-0.203125 0,-0.109375 -0.09375,-0.109375 -0.265625,-0.109375 H 3.71875 L 3.921875,-5.4375 c 0.046875,-0.203125 0.1875,-0.90625 0.25,-1.03125 0.078125,-0.1875 0.25,-0.34375 0.46875,-0.34375 0.03125,0 0.296875,0 0.484375,0.1875 -0.4375,0.03125 -0.546875,0.390625 -0.546875,0.53125 0,0.234375 0.1875,0.359375 0.375,0.359375 C 5.21875,-5.734375 5.5,-5.96875 5.5,-6.34375 c 0,-0.453125 -0.453125,-0.6875 -0.859375,-0.6875 -0.34375,0 -0.96875,0.1875 -1.265625,1.171875 -0.0625,0.203125 -0.09375,0.3125 -0.328125,1.5625 h -0.6875 c -0.203125,0 -0.3125,0 -0.3125,0.1875 0,0.125 0.09375,0.125 0.28125,0.125 h 0.65625 L 2.25,-0.046875 c -0.1875,0.96875 -0.359375,1.875 -0.875,1.875 -0.046875,0 -0.28125,0 -0.484375,-0.1875 C 1.359375,1.609375 1.453125,1.25 1.453125,1.109375 1.453125,0.875 1.265625,0.75 1.078125,0.75 0.8125,0.75 0.53125,0.984375 0.53125,1.359375 c 0,0.4375 0.4375,0.6875 0.84375,0.6875 0.546875,0 0.953125,-0.59375 1.125,-0.96875 0.328125,-0.625 0.546875,-1.828125 0.5625,-1.90625 z m 0,0"
               style="stroke:none"
               inkscape:connector-curvature="0" />
          </symbol>
          <symbol
             id="lx-text4652-glyph1-0"
             overflow="visible"
             style="overflow:visible">
            <path
               id="path5782"
               d=""
               style="stroke:none"
               inkscape:connector-curvature="0" />
          </symbol>
          <symbol
             id="lx-text4652-glyph1-1"
             overflow="visible"
             style="overflow:visible">
            <path
               id="path5785"
               d="m 3.296875,2.390625 c 0,-0.03125 0,-0.046875 -0.171875,-0.21875 C 1.890625,0.921875 1.5625,-0.96875 1.5625,-2.5 c 0,-1.734375 0.375,-3.46875 1.609375,-4.703125 0.125,-0.125 0.125,-0.140625 0.125,-0.171875 0,-0.078125 -0.03125,-0.109375 -0.09375,-0.109375 -0.109375,0 -1,0.6875 -1.59375,1.953125 -0.5,1.09375 -0.625,2.203125 -0.625,3.03125 0,0.78125 0.109375,1.984375 0.65625,3.125 C 2.25,1.84375 3.09375,2.5 3.203125,2.5 c 0.0625,0 0.09375,-0.03125 0.09375,-0.109375 z m 0,0"
               style="stroke:none"
               inkscape:connector-curvature="0" />
          </symbol>
          <symbol
             id="lx-text4652-glyph1-2"
             overflow="visible"
             style="overflow:visible">
            <path
               id="path5788"
               d="m 1.265625,-0.765625 1.0625,-1.03125 c 1.546875,-1.375 2.140625,-1.90625 2.140625,-2.90625 0,-1.140625 -0.890625,-1.9375 -2.109375,-1.9375 -1.125,0 -1.859375,0.921875 -1.859375,1.8125 0,0.546875 0.5,0.546875 0.53125,0.546875 0.171875,0 0.515625,-0.109375 0.515625,-0.53125 0,-0.25 -0.1875,-0.515625 -0.53125,-0.515625 -0.078125,0 -0.09375,0 -0.125,0.015625 0.21875,-0.65625 0.765625,-1.015625 1.34375,-1.015625 0.90625,0 1.328125,0.8125 1.328125,1.625 C 3.5625,-3.90625 3.078125,-3.125 2.515625,-2.5 l -1.90625,2.125 C 0.5,-0.265625 0.5,-0.234375 0.5,0 H 4.203125 L 4.46875,-1.734375 H 4.234375 C 4.171875,-1.4375 4.109375,-1 4,-0.84375 3.9375,-0.765625 3.28125,-0.765625 3.0625,-0.765625 Z m 0,0"
               style="stroke:none"
               inkscape:connector-curvature="0" />
          </symbol>
          <symbol
             id="lx-text4652-glyph1-3"
             overflow="visible"
             style="overflow:visible">
            <path
               id="path5791"
               d="m 2.875,-2.5 c 0,-0.765625 -0.109375,-1.96875 -0.65625,-3.109375 -0.59375,-1.21875 -1.453125,-1.875 -1.546875,-1.875 -0.0625,0 -0.109375,0.046875 -0.109375,0.109375 0,0.03125 0,0.046875 0.1875,0.234375 0.984375,0.984375 1.546875,2.5625 1.546875,4.640625 0,1.71875 -0.359375,3.46875 -1.59375,4.71875 C 0.5625,2.34375 0.5625,2.359375 0.5625,2.390625 0.5625,2.453125 0.609375,2.5 0.671875,2.5 0.765625,2.5 1.671875,1.8125 2.25,0.546875 2.765625,-0.546875 2.875,-1.65625 2.875,-2.5 Z m 0,0"
               style="stroke:none"
               inkscape:connector-curvature="0" />
          </symbol>
        </g>
      </defs>
      <g
         id="lx-text4652-surface1">
        <g
           id="g5800"
           style="fill:#000000;fill-opacity:1">
          <use
             id="use5798"
             y="0"
             x="0"
             xlink:href="#lx-text4652-glyph0-1"
             width="100%"
             height="100%" />
        </g>
        <g
           id="g5808"
           style="fill:#000000;fill-opacity:1">
          <use
             id="use5802"
             y="0"
             x="5.9499998"
             xlink:href="#lx-text4652-glyph1-1"
             width="100%"
             height="100%" />
          <use
             id="use5804"
             y="0"
             x="9.8244553"
             xlink:href="#lx-text4652-glyph1-2"
             width="100%"
             height="100%" />
          <use
             id="use5806"
             y="0"
             x="14.805755"
             xlink:href="#lx-text4652-glyph1-3"
             width="100%"
             height="100%" />
        </g>
      </g>
    </g>
    <g
       id="lx-text5475"
       transform="matrix(1.25,0,0,1.25,340.89418,157.28743)">
      <defs
         id="defs5820">
        <g
           id="g5818">
          <symbol
             id="lx-text5475-glyph0-0"
             overflow="visible"
             style="overflow:visible">
            <path
               id="path5812"
               d=""
               style="stroke:none"
               inkscape:connector-curvature="0" />
          </symbol>
          <symbol
             id="lx-text5475-glyph0-1"
             overflow="visible"
             style="overflow:visible">
            <path
               id="path5815"
               d="m 4.46875,-2 c 0,-1.1875 -0.8125,-2.1875 -1.890625,-2.1875 -0.46875,0 -0.90625,0.15625 -1.265625,0.515625 V -5.625 c 0.203125,0.0625 0.53125,0.125 0.84375,0.125 1.234375,0 1.9375,-0.90625 1.9375,-1.03125 0,-0.0625 -0.03125,-0.109375 -0.109375,-0.109375 0,0 -0.03125,0 -0.078125,0.03125 C 3.703125,-6.515625 3.21875,-6.3125 2.546875,-6.3125 2.15625,-6.3125 1.6875,-6.390625 1.21875,-6.59375 1.140625,-6.625 1.125,-6.625 1.109375,-6.625 1,-6.625 1,-6.546875 1,-6.390625 V -3.4375 c 0,0.171875 0,0.25 0.140625,0.25 0.078125,0 0.09375,-0.015625 0.140625,-0.078125 C 1.390625,-3.421875 1.75,-3.96875 2.5625,-3.96875 c 0.515625,0 0.765625,0.453125 0.84375,0.640625 0.15625,0.375 0.1875,0.75 0.1875,1.25 0,0.359375 0,0.953125 -0.25,1.375 C 3.109375,-0.3125 2.734375,-0.0625 2.28125,-0.0625 c -0.71875,0 -1.296875,-0.53125 -1.46875,-1.109375 0.03125,0 0.0625,0.015625 0.171875,0.015625 0.328125,0 0.5,-0.25 0.5,-0.484375 0,-0.25 -0.171875,-0.5 -0.5,-0.5 C 0.84375,-2.140625 0.5,-2.0625 0.5,-1.609375 0.5,-0.75 1.1875,0.21875 2.296875,0.21875 3.453125,0.21875 4.46875,-0.734375 4.46875,-2 Z m 0,0"
               style="stroke:none"
               inkscape:connector-curvature="0" />
          </symbol>
        </g>
      </defs>
      <g
         id="lx-text5475-surface1">
        <g
           id="g5824"
           style="fill:#000000;fill-opacity:1">
          <use
             id="use5822"
             y="0"
             x="0"
             xlink:href="#lx-text5475-glyph0-1"
             width="100%"
             height="100%" />
        </g>
      </g>
    </g>
  </g>
</svg>
