<?xml version="1.0" encoding="UTF-8" standalone="no"?>
<svg
   xmlns:rendltx="http://NOTSET"
   xmlns:dc="http://purl.org/dc/elements/1.1/"
   xmlns:cc="http://creativecommons.org/ns#"
   xmlns:rdf="http://www.w3.org/1999/02/22-rdf-syntax-ns#"
   xmlns:svg="http://www.w3.org/2000/svg"
   xmlns="http://www.w3.org/2000/svg"
   xmlns:xlink="http://www.w3.org/1999/xlink"
   xmlns:sodipodi="http://sodipodi.sourceforge.net/DTD/sodipodi-0.dtd"
   xmlns:inkscape="http://www.inkscape.org/namespaces/inkscape"
   x="0"
   y="0"
   width="427.5"
   height="270"
   style="fill:none"
   version="1.1"
   id="svg127"
   sodipodi:docname="Graphic7.svg"
   inkscape:version="0.92.5 (2060ec1f9f, 2020-04-08)">
  <metadata
     id="metadata133">
    <rdf:RDF>
      <cc:Work
         rdf:about="">
        <dc:format>image/svg+xml</dc:format>
        <dc:type
           rdf:resource="http://purl.org/dc/dcmitype/StillImage" />
        <dc:title></dc:title>
      </cc:Work>
    </rdf:RDF>
  </metadata>
  <defs
     id="defs131" />
  <sodipodi:namedview
     pagecolor="#ffffff"
     bordercolor="#666666"
     borderopacity="1"
     objecttolerance="10"
     gridtolerance="10"
     guidetolerance="10"
     inkscape:pageopacity="0"
     inkscape:pageshadow="2"
     inkscape:window-width="1920"
     inkscape:window-height="986"
     id="namedview129"
     showgrid="false"
     inkscape:zoom="1.674839"
     inkscape:cx="151.67215"
     inkscape:cy="157.0339"
     inkscape:window-x="-11"
     inkscape:window-y="-11"
     inkscape:window-maximized="1"
     inkscape:current-layer="ltx-render-layer" />
  <svg
     version="1.1"
     id="svg2"
     width="100%"
     height="100%"
     transform="translate(-21,-9)" />
  <g
     style="fill:none;stroke:#000000"
     id="g18"
     class="test-xgi">
    <line
       style="fill:none;stroke:#c3c3c3;stroke-width:0.5"
       id="line4"
       y2="270"
       x2="28.232555"
       y1="0"
       x1="28.232555" />
    <line
       style="fill:none;stroke:#c3c3c3;stroke-width:0.5"
       id="line6"
       y2="270"
       x2="89.732552"
       y1="0"
       x1="89.732552" />
    <line
       style="fill:none;stroke:#c3c3c3;stroke-width:0.5"
       id="line8"
       y2="270"
       x2="151.23256"
       y1="0"
       x1="151.23256" />
    <line
       style="fill:none;stroke:#c3c3c3;stroke-width:0.5"
       id="line10"
       y2="270"
       x2="212.73256"
       y1="0"
       x1="212.73256" />
    <line
       style="fill:none;stroke:#c3c3c3;stroke-width:0.5"
       id="line12"
       y2="270"
       x2="274.23254"
       y1="0"
       x1="274.23254" />
    <line
       style="fill:none;stroke:#c3c3c3;stroke-width:0.5"
       id="line14"
       y2="270"
       x2="335.73254"
       y1="0"
       x1="335.73254" />
    <line
       style="fill:none;stroke:#c3c3c3;stroke-width:0.5"
       id="line16"
       y2="270"
       x2="397.23254"
       y1="0"
       x1="397.23254" />
  </g>
  <g
     style="fill:none;stroke:#000000"
     id="g28"
     class="test-ygi">
    <line
       style="fill:none;stroke:#c3c3c3;stroke-width:0.5"
       id="line20"
       y2="215.12741"
       x2="427.5"
       y1="215.12741"
       x1="0" />
    <line
       style="fill:none;stroke:#c3c3c3;stroke-width:0.5"
       id="line22"
       y2="146.72777"
       x2="427.5"
       y1="146.72777"
       x1="0" />
    <line
       style="fill:none;stroke:#c3c3c3;stroke-width:0.5"
       id="line24"
       y2="78.328117"
       x2="427.5"
       y1="78.328117"
       x1="0" />
    <line
       style="fill:none;stroke:#c3c3c3;stroke-width:0.5"
       id="line26"
       y2="9.9284639"
       x2="427.5"
       y1="9.9284639"
       x1="0" />
  </g>
  <g
     style="fill:none;stroke:#000000"
     id="g99">
    <g
       class="test-xti"
       style="font-family:Asana-Math, Asana"
       id="g48">
      <line
         x1="0"
         y1="215.12741"
         x2="423.5"
         y2="215.12741"
         id="line32"
         style="fill:none;stroke:#323232;stroke-width:1;stroke-opacity:1" />
      <line
         x1="28.232555"
         y1="211.12741"
         x2="28.232555"
         y2="219.12741"
         id="line34"
         style="fill:none;stroke:#323232;stroke-width:1;stroke-opacity:1" />
      <line
         x1="89.732552"
         y1="211.12741"
         x2="89.732552"
         y2="219.12741"
         id="line36"
         style="fill:none;stroke:#323232;stroke-width:1;stroke-opacity:1" />
      <line
         x1="151.23256"
         y1="211.12741"
         x2="151.23256"
         y2="219.12741"
         id="line38"
         style="fill:none;stroke:#323232;stroke-width:1;stroke-opacity:1" />
      <line
         x1="274.23254"
         y1="211.12741"
         x2="274.23254"
         y2="219.12741"
         id="line40"
         style="fill:none;stroke:#323232;stroke-width:1;stroke-opacity:1" />
      <line
         x1="335.73254"
         y1="211.12741"
         x2="335.73254"
         y2="219.12741"
         id="line42"
         style="fill:none;stroke:#323232;stroke-width:1;stroke-opacity:1" />
      <line
         x1="397.23254"
         y1="211.12741"
         x2="397.23254"
         y2="219.12741"
         id="line44"
         style="fill:none;stroke:#323232;stroke-width:1;stroke-opacity:1" />
      <path
         d="m 418.5,211.52741 8,3.6 -8,3.6 z"
         id="path46"
         inkscape:connector-curvature="0"
         style="fill:#323232;fill-opacity:1;stroke:none;stroke-width:1" />
    </g>
    <g
       class="test-yti"
       style="font-family:Asana-Math, Asana"
       id="g60">
      <line
         x1="212.73256"
         y1="4"
         x2="212.73256"
         y2="270"
         id="line50"
         style="fill:none;stroke:#323232;stroke-width:1;stroke-opacity:1" />
      <line
         x1="208.73256"
         y1="146.72777"
         x2="216.73256"
         y2="146.72777"
         id="line52"
         style="fill:none;stroke:#323232;stroke-width:1;stroke-opacity:1" />
      <line
         x1="208.73256"
         y1="78.328117"
         x2="216.73256"
         y2="78.328117"
         id="line54"
         style="fill:none;stroke:#323232;stroke-width:1;stroke-opacity:1" />
      <line
         x1="208.73256"
         y1="9.9284639"
         x2="216.73256"
         y2="9.9284639"
         id="line56"
         style="fill:none;stroke:#323232;stroke-width:1;stroke-opacity:1" />
      <path
         d="m 209.13256,9 3.6,-8 3.6,8 z"
         id="path58"
         inkscape:connector-curvature="0"
         style="fill:#323232;fill-opacity:1;stroke:none;stroke-width:1" />
    </g>
    <g
       class="test-plot-expression"
       id="g71">
      <defs
         id="defs65">
        <clipPath
           id="cp2mijwljbb">
          <rect
             x="1"
             y="1"
             width="425.5"
             height="268"
             id="rect62" />
        </clipPath>
      </defs>
      <g
         clip-path="url(#cp2mijwljbb)"
         id="g69">
        <path
           d="m 0,-21.47 0.5,0.56 0.5,0.55 0.5,0.56 0.5,0.56 0.5,0.55 0.5,0.56 0.5,0.56 0.5,0.55 0.51,0.56 0.5,0.56 0.5,0.55 0.5,0.56 0.5,0.56 0.5,0.55 0.5,0.56 0.5,0.56 0.5,0.55 0.5,0.56 0.5,0.56 0.5,0.55 0.5,0.56 0.5,0.56 0.5,0.55 0.5,0.56 0.5,0.56 0.51,0.55 0.5,0.56 0.5,0.56 0.5,0.55 0.5,0.56 0.5,0.56 0.5,0.55 0.5,0.56 0.5,0.56 0.5,0.55 0.5,0.56 0.5,0.56 0.5,0.55 0.5,0.56 0.5,0.56 0.5,0.56 0.5,0.55 0.51,0.56 0.5,0.56 0.5,0.55 0.5,0.56 0.5,0.56 0.5,0.55 0.5,0.56 0.5,0.56 0.5,0.55 0.5,0.56 0.5,0.56 0.5,0.55 0.5,0.56 0.5,0.56 0.5,0.55 0.5,0.56 0.5,0.56 0.51,0.55 0.5,0.56 0.5,0.56 0.5,0.55 0.5,0.56 0.5,0.56 0.5,0.55 0.5,0.56 0.5,0.56 0.5,0.55 0.5,0.56 0.5,0.56 0.5,0.55 0.5,0.56 0.5,0.56 0.5,0.55 0.5,0.56 0.51,0.56 0.5,0.55 0.5,0.56 0.5,0.56 0.5,0.55 0.5,0.56 0.5,0.56 0.5,0.56 0.5,0.55 0.5,0.56 0.5,0.56 0.5,0.55 0.5,0.56 0.5,0.56 0.5,0.55 0.5,0.56 0.5,0.56 0.51,0.55 0.5,0.56 0.5,0.56 0.5,0.55 0.5,0.56 0.5,0.56 0.5,0.55 0.5,0.56 0.5,0.56 0.5,0.55 0.5,0.56 0.5,0.56 0.5,0.55 0.5,0.56 0.5,0.56 0.5,0.55 0.5,0.56 0.5,0.56 0.51,0.55 0.5,0.56 0.5,0.56 0.5,0.55 0.5,0.56 0.5,0.56 0.5,0.55 0.5,0.56 0.5,0.56 0.5,0.55 0.5,0.56 0.5,0.56 0.5,0.56 0.5,0.55 0.5,0.56 0.5,0.56 0.5,0.55 0.51,0.56 0.5,0.56 0.5,0.55 0.5,0.56 0.5,0.56 0.5,0.55 0.5,0.56 0.5,0.56 0.5,0.55 0.5,0.56 0.5,0.56 0.5,0.55 0.5,0.56 0.5,0.56 0.5,0.55 0.5,0.56 0.5,0.56 0.51,0.55 0.5,0.56 0.5,0.56 0.5,0.55 0.5,0.56 0.5,0.56 0.5,0.55 0.5,0.56 0.5,0.56 0.5,0.55 0.5,0.56 0.5,0.56 0.5,0.55 0.5,0.56 0.5,0.56 0.5,0.55 0.5,0.56 0.51,0.56 0.5,0.55 0.5,0.56 0.5,0.56 0.5,0.56 0.5,0.55 0.5,0.56 0.5,0.56 0.5,0.55 0.5,0.56 0.5,0.56 0.5,0.55 0.5,0.56 0.5,0.56 0.5,0.55 0.5,0.56 0.5,0.56 0.51,0.55 0.5,0.56 0.5,0.56 0.5,0.55 0.5,0.56 0.5,0.56 0.5,0.55 0.5,0.56 0.5,0.56 0.5,0.55 0.5,0.56 0.5,0.56 0.5,0.55 0.5,0.56 0.5,0.56 0.5,0.55 0.5,0.56 0.51,0.56 0.5,0.55 0.5,0.56 0.5,0.56 0.5,0.55 0.5,0.56 0.5,0.56 0.5,0.55 0.5,0.56 0.5,0.56 0.5,0.55 0.5,0.56 0.5,0.56 0.5,0.56 0.5,0.55 0.5,0.56 0.5,0.56 0.51,0.55 0.5,0.56 0.5,0.56 0.5,0.55 0.5,0.56 0.5,0.56 0.5,0.55 0.5,0.56 0.5,0.56 0.5,0.55 0.5,0.56 0.5,0.56 0.5,0.55 0.5,0.56 0.5,0.56 0.5,0.55 0.5,0.56 0.51,0.56 0.5,0.55 0.5,0.56 0.5,0.56 0.5,0.55 0.5,0.56 0.5,0.56 0.5,0.55 0.5,0.56 0.5,0.56 0.5,0.55 0.5,0.56 0.5,0.56 0.5,0.55 0.5,0.56 0.5,0.56 0.5,0.55 0.51,0.56 0.5,0.56 0.5,0.55 0.5,0.56 0.5,0.56 0.5,0.56 0.5,0.55 0.5,0.56 0.5,0.56 0.5,0.55 0.5,0.56 0.5,0.56 0.5,0.55 0.5,0.56 0.5,0.56 0.5,0.55 0.5,0.56 0.51,0.56 0.5,0.55 0.5,0.56 0.5,0.56 0.5,0.55 0.5,0.56 0.5,0.56 0.5,0.55 0.5,0.56 0.5,0.56 0.5,0.55 0.5,0.56 0.5,0.56 0.5,0.55 0.5,0.56 0.5,0.56 0.5,0.55 0.51,0.56 0.5,0.56 0.5,0.55 0.5,0.56 0.5,0.56 0.5,0.55 0.5,0.56 0.5,0.56 0.5,0.55 0.5,0.56 0.5,0.56 0.5,0.56 0.5,0.55 0.5,0.56 0.5,0.56 0.5,0.55 0.5,0.56 0.51,0.56 0.5,0.55 0.5,0.56 0.5,0.56 0.5,0.55 0.5,0.56 0.5,0.56 0.5,0.55 0.5,0.56 0.5,0.56 0.5,0.55 0.5,0.56 0.5,0.56 0.5,0.55 0.5,0.56 0.5,0.56 0.5,0.55 0.51,0.56 0.5,0.56 0.5,0.55 0.5,0.56 0.5,0.56 0.5,0.55 0.5,0.56 0.5,0.56 0.5,0.55 0.5,0.56 0.5,0.56 0.5,0.55 0.5,0.56 0.5,0.56 0.5,0.55 0.5,0.56 0.5,0.56 0.5,0.55 0.51,0.56 0.5,0.56 0.5,0.56 0.5,0.55 0.5,0.56 0.5,0.56 0.5,0.55 0.5,0.56 0.5,0.56 0.5,0.55 0.5,0.56 0.5,0.56 0.5,0.55 0.5,0.56 0.5,0.56 0.5,0.55 0.5,0.56 0.51,0.56 0.5,0.55 0.5,0.56 0.5,0.56 0.5,0.55 0.5,0.56 0.5,0.56 0.5,0.55 0.5,0.56 0.5,0.56 0.5,0.55 0.5,0.56 0.5,0.56 0.5,0.55 0.5,0.56 0.5,0.56 0.5,0.55 0.51,0.56 0.5,0.56 0.5,0.55 0.5,0.56 0.5,0.56 0.5,0.55 0.5,0.56 0.5,0.56 0.5,0.55 0.5,0.56 0.5,0.56 0.5,0.56 0.5,0.55 0.5,0.56 0.5,0.56 0.5,0.55 0.5,0.56 0.51,0.56 0.5,0.55 0.5,0.56 0.5,0.56 0.5,0.55 0.5,0.56 0.5,0.56 0.5,0.55 0.5,0.56 0.5,0.56 0.5,0.55 0.5,0.56 0.5,0.56 0.5,0.55 0.5,0.56 0.5,0.56 0.5,0.55 0.51,0.56 0.5,0.56 0.5,0.55 0.5,0.56 0.5,0.56 0.5,0.55 0.5,0.56 0.5,0.56 0.5,0.55 0.5,0.56 0.5,0.56 0.5,0.55 0.5,0.56 0.5,0.56 0.5,0.55 0.5,0.56 0.5,0.56 0.51,0.56 0.5,0.55 0.5,0.56 0.5,0.56 0.5,0.55 0.5,0.56 0.5,0.52 0.5,-0.56 0.5,-0.55 0.5,-0.56 0.5,-0.56 0.5,-0.55 0.5,-0.56 0.5,-0.56 0.5,-0.55 0.5,-0.56 0.5,-0.56 0.51,-0.55 0.5,-0.56 0.5,-0.56 0.5,-0.56 0.5,-0.55 0.5,-0.56 0.5,-0.56 0.5,-0.55 0.5,-0.56 0.5,-0.56 0.5,-0.55 0.5,-0.56 0.5,-0.56 0.5,-0.55 0.5,-0.56 0.5,-0.56 0.5,-0.55 0.51,-0.56 0.5,-0.56 0.5,-0.55 0.5,-0.56 0.5,-0.56 0.5,-0.55 0.5,-0.56 0.5,-0.56 0.5,-0.55 0.5,-0.56 0.5,-0.56 0.5,-0.55 0.5,-0.56 0.5,-0.56 0.5,-0.55 0.5,-0.56 0.5,-0.56 0.51,-0.55 0.5,-0.56 0.5,-0.56 0.5,-0.55 0.5,-0.56 0.5,-0.56 0.5,-0.55 0.5,-0.56 0.5,-0.56 0.5,-0.55 0.5,-0.56 0.5,-0.56 0.5,-0.56 0.5,-0.55 0.5,-0.56 0.5,-0.56 0.5,-0.55 0.51,-0.56 0.5,-0.56 0.5,-0.55 0.5,-0.56 0.5,-0.56 0.5,-0.55 0.5,-0.56 0.5,-0.56 0.5,-0.55 0.5,-0.56 0.5,-0.56 0.5,-0.55 0.5,-0.56 0.5,-0.56 0.5,-0.55 0.5,-0.56 0.5,-0.56 0.51,-0.55 0.5,-0.56 0.5,-0.56 0.5,-0.55 0.5,-0.56 0.5,-0.56 0.5,-0.55 0.5,-0.56 0.5,-0.56 0.5,-0.55 0.5,-0.56 0.5,-0.56 0.5,-0.55 0.5,-0.56 0.5,-0.56 0.5,-0.55 0.5,-0.56 0.51,-0.56 0.5,-0.56 0.5,-0.55 0.5,-0.56 0.5,-0.56 0.5,-0.55 0.5,-0.56 0.5,-0.56 0.5,-0.55 0.5,-0.56 0.5,-0.56 0.5,-0.55 0.5,-0.56 0.5,-0.56 0.5,-0.55 0.5,-0.56 0.5,-0.56 0.5,-0.55 0.51,-0.56 0.5,-0.56 0.5,-0.55 0.5,-0.56 0.5,-0.56 0.5,-0.55 0.5,-0.56 0.5,-0.56 0.5,-0.55 0.5,-0.56 0.5,-0.56 0.5,-0.55 0.5,-0.56 0.5,-0.56 0.5,-0.55 0.5,-0.56 0.5,-0.56 0.51,-0.55 0.5,-0.56 0.5,-0.56 0.5,-0.55 0.5,-0.56 0.5,-0.56 0.5,-0.55 0.5,-0.56 0.5,-0.56 0.5,-0.56 0.5,-0.55 0.5,-0.56 0.5,-0.56 0.5,-0.55 0.5,-0.56 0.5,-0.56 0.5,-0.55 0.51,-0.56 0.5,-0.56 0.5,-0.55 0.5,-0.56 0.5,-0.56 0.5,-0.55 0.5,-0.56 0.5,-0.56 0.5,-0.55 0.5,-0.56 0.5,-0.56 0.5,-0.55 0.5,-0.56 0.5,-0.56 0.5,-0.55 0.5,-0.56 0.5,-0.56 0.51,-0.55 0.5,-0.56 0.5,-0.56 0.5,-0.55 0.5,-0.56 0.5,-0.56 0.5,-0.55 0.5,-0.56 0.5,-0.56 0.5,-0.55 0.5,-0.56 0.5,-0.56 0.5,-0.55 0.5,-0.56 0.5,-0.56 0.5,-0.55 0.5,-0.56 0.51,-0.56 0.5,-0.56 0.5,-0.55 0.5,-0.56 0.5,-0.56 0.5,-0.55 0.5,-0.56 0.5,-0.56 0.5,-0.55 0.5,-0.56 0.5,-0.56 0.5,-0.55 0.5,-0.56 0.5,-0.56 0.5,-0.55 0.5,-0.56 0.5,-0.56 0.51,-0.55 0.5,-0.56 0.5,-0.56 0.5,-0.55 0.5,-0.56 0.5,-0.56 0.5,-0.55 0.5,-0.56 0.5,-0.56 0.5,-0.55 0.5,-0.56 0.5,-0.56 0.5,-0.55 0.5,-0.56 0.5,-0.56 0.5,-0.55 0.5,-0.56 0.51,-0.56 0.5,-0.55 0.5,-0.56 0.5,-0.56 0.5,-0.55 0.5,-0.56 0.5,-0.56 0.5,-0.56 0.5,-0.55 0.5,-0.56 0.5,-0.56 0.5,-0.55 0.5,-0.56 0.5,-0.56 0.5,-0.55 0.5,-0.56 0.5,-0.56 0.51,-0.55 0.5,-0.56 0.5,-0.56 0.5,-0.55 0.5,-0.56 0.5,-0.56 0.5,-0.55 0.5,-0.56 0.5,-0.56 0.5,-0.55 0.5,-0.56 0.5,-0.56 0.5,-0.55 0.5,-0.56 0.5,-0.56 0.5,-0.55 0.5,-0.56 0.51,-0.56 0.5,-0.55 0.5,-0.56 0.5,-0.56 0.5,-0.55 0.5,-0.56 0.5,-0.56 0.5,-0.55 0.5,-0.56 0.5,-0.56 0.5,-0.55 0.5,-0.56 0.5,-0.56 0.5,-0.55 0.5,-0.56 0.5,-0.56 0.5,-0.56 0.51,-0.55 0.5,-0.56 0.5,-0.56 0.5,-0.55 0.5,-0.56 0.5,-0.56 0.5,-0.55 0.5,-0.56 0.5,-0.56 0.5,-0.55 0.5,-0.56 0.5,-0.56 0.5,-0.55 0.5,-0.56 0.5,-0.56 0.5,-0.55 0.5,-0.56 0.51,-0.56 0.5,-0.55 0.5,-0.56 0.5,-0.56 0.5,-0.55 0.5,-0.56 0.5,-0.56 0.5,-0.55 0.5,-0.56 0.5,-0.56 0.5,-0.55 0.5,-0.56 0.5,-0.56 0.5,-0.55 0.5,-0.56 0.5,-0.56 0.5,-0.55 0.51,-0.56 0.5,-0.56 0.5,-0.55 0.5,-0.56 0.5,-0.56 0.5,-0.55 0.5,-0.56 0.5,-0.56 0.5,-0.56 0.5,-0.55 0.5,-0.56 0.5,-0.56 0.5,-0.55 0.5,-0.56 0.5,-0.56 0.5,-0.55 0.5,-0.56 0.51,-0.56 0.5,-0.55 0.5,-0.56 0.5,-0.56 0.5,-0.55 0.5,-0.56 0.5,-0.56 0.5,-0.55 0.5,-0.56 0.5,-0.56 0.5,-0.55 0.5,-0.56 0.5,-0.56 0.5,-0.55 0.5,-0.56 0.5,-0.56 0.5,-0.55 0.5,-0.56 0.51,-0.56 0.5,-0.55 0.5,-0.56 0.5,-0.56 0.5,-0.55 0.5,-0.56 0.5,-0.56 0.5,-0.55 0.5,-0.56 0.5,-0.56 0.5,-0.55 0.5,-0.56 0.5,-0.56 0.5,-0.55 0.5,-0.56 0.5,-0.56 0.5,-0.56 0.51,-0.55 0.5,-0.56 0.5,-0.56 0.5,-0.55 0.5,-0.56 0.5,-0.56 0.5,-0.55 0.5,-0.56 0.5,-0.56 0.5,-0.55 0.5,-0.56 0.5,-0.56 0.5,-0.55 0.5,-0.56 0.5,-0.56 0.5,-0.55 0.5,-0.56 0.51,-0.56 0.5,-0.55 0.5,-0.56 0.5,-0.56 0.5,-0.55 0.5,-0.56 0.5,-0.56 0.5,-0.55 0.5,-0.56 0.5,-0.56 0.5,-0.55 0.5,-0.56 0.5,-0.56 0.5,-0.55 0.5,-0.56 0.5,-0.56 0.5,-0.55 0.51,-0.56 0.5,-0.56 0.5,-0.55 0.5,-0.56 0.5,-0.56 0.5,-0.56 0.5,-0.55 0.5,-0.56 0.5,-0.56 0.5,-0.55 0.5,-0.56 0.5,-0.56 0.5,-0.55 0.5,-0.56 0.5,-0.56 0.5,-0.55 0.5,-0.56 0.51,-0.56 0.5,-0.55 0.5,-0.56 0.5,-0.56 0.5,-0.55 0.5,-0.56 0.5,-0.56 0.5,-0.55 0.5,-0.56 0.5,-0.56 0.5,-0.55 0.5,-0.56 0.5,-0.56 0.5,-0.55 0.5,-0.56 0.5,-0.56 0.5,-0.55 0.51,-0.56 0.5,-0.56 0.5,-0.55 0.5,-0.56 0.5,-0.56 0.5,-0.55 0.5,-0.56 0.5,-0.56 0.5,-0.55"
           style="stroke:#a6bcaf;stroke-width:2;stroke-opacity:1"
           id="path67"
           inkscape:connector-curvature="0" />
      </g>
    </g>
    <rect
       class="real"
       x="1"
       y="1"
       width="425.5"
       height="268"
       style="stroke:none"
       id="rect97" />
  </g>
  <g
     style="fill:none;stroke:#000000"
     id="g105"
     transform="translate(-21,-9)" />
  <g
     id="g109"
     transform="translate(-21,-9)" />
  <g
     id="g111"
     transform="translate(-21,-9)" />
  <g
     id="g113"
     transform="translate(-21,-9)" />
  <svg
     width="660"
     height="310"
     style="font-family:Asana-Math, Asana"
     version="1.1"
     id="svg125"
     transform="translate(-21,-9)">
    <g
       id="g119">
      <g
         id="g117" />
    </g>
    <g
       id="g123">
      <g
         id="g121" />
    </g>
  </svg>
  <g
     inkscape:groupmode="layer"
     id="layer1"
     inkscape:label="text"
     transform="translate(-21,-9)"
     style="display:none">
    <text
       xml:space="preserve"
       style="font-style:normal;font-weight:normal;font-size:17.33333397px;line-height:7.25;font-family:sans-serif;letter-spacing:0px;word-spacing:0px;fill:#000000;fill-opacity:1;stroke:none"
       x="333.2688"
       y="132.71729"
       id="text1163"><tspan
         sodipodi:role="line"
         id="tspan1161"
         x="333.2688"
         y="132.71729">$f(x)=|x|$</tspan></text>
  </g>
  <g
     rendltx:math="False"
     rendltx:newline="False"
     rendltx:fontsize="10"
     rendltx:depth="0"
     rendltx:scale="1.0"
     rendltx:packages="amsmath,amssymb"
     rendltx:preamble=""
     id="ltx-render-layer"
     inkscape:groupmode="layer"
     inkscape:label="Rendered Latex">
    <g
       id="lx-text73"
       transform="matrix(1.25,0,0,1.25,22.994266,234.06886)">
      <defs
         id="defs1243">
        <g
           id="g1241">
          <symbol
             id="lx-text73-glyph0-0"
             overflow="visible"
             style="overflow:visible">
            <path
               id="path1229"
               d=""
               style="stroke:none"
               inkscape:connector-curvature="0" />
          </symbol>
          <symbol
             id="lx-text73-glyph0-1"
             overflow="visible"
             style="overflow:visible">
            <path
               id="path1232"
               d="M 2.75,-1.859375 V -2.4375 H 0.109375 v 0.578125 z m 0,0"
               style="stroke:none"
               inkscape:connector-curvature="0" />
          </symbol>
          <symbol
             id="lx-text73-glyph0-2"
             overflow="visible"
             style="overflow:visible">
            <path
               id="path1235"
               d="m 2.9375,-6.375 c 0,-0.25 0,-0.265625 -0.234375,-0.265625 C 2.078125,-6 1.203125,-6 0.890625,-6 v 0.3125 c 0.203125,0 0.78125,0 1.296875,-0.265625 v 5.171875 c 0,0.359375 -0.03125,0.46875 -0.921875,0.46875 h -0.3125 V 0 c 0.34375,-0.03125 1.203125,-0.03125 1.609375,-0.03125 0.390625,0 1.265625,0 1.609375,0.03125 v -0.3125 h -0.3125 c -0.90625,0 -0.921875,-0.109375 -0.921875,-0.46875 z m 0,0"
               style="stroke:none"
               inkscape:connector-curvature="0" />
          </symbol>
          <symbol
             id="lx-text73-glyph0-3"
             overflow="visible"
             style="overflow:visible">
            <path
               id="path1238"
               d="m 4.46875,-2 c 0,-1.1875 -0.8125,-2.1875 -1.890625,-2.1875 -0.46875,0 -0.90625,0.15625 -1.265625,0.515625 V -5.625 c 0.203125,0.0625 0.53125,0.125 0.84375,0.125 1.234375,0 1.9375,-0.90625 1.9375,-1.03125 0,-0.0625 -0.03125,-0.109375 -0.109375,-0.109375 0,0 -0.03125,0 -0.078125,0.03125 C 3.703125,-6.515625 3.21875,-6.3125 2.546875,-6.3125 2.15625,-6.3125 1.6875,-6.390625 1.21875,-6.59375 1.140625,-6.625 1.125,-6.625 1.109375,-6.625 1,-6.625 1,-6.546875 1,-6.390625 V -3.4375 c 0,0.171875 0,0.25 0.140625,0.25 0.078125,0 0.09375,-0.015625 0.140625,-0.078125 C 1.390625,-3.421875 1.75,-3.96875 2.5625,-3.96875 c 0.515625,0 0.765625,0.453125 0.84375,0.640625 0.15625,0.375 0.1875,0.75 0.1875,1.25 0,0.359375 0,0.953125 -0.25,1.375 C 3.109375,-0.3125 2.734375,-0.0625 2.28125,-0.0625 c -0.71875,0 -1.296875,-0.53125 -1.46875,-1.109375 0.03125,0 0.0625,0.015625 0.171875,0.015625 0.328125,0 0.5,-0.25 0.5,-0.484375 0,-0.25 -0.171875,-0.5 -0.5,-0.5 C 0.84375,-2.140625 0.5,-2.0625 0.5,-1.609375 0.5,-0.75 1.1875,0.21875 2.296875,0.21875 3.453125,0.21875 4.46875,-0.734375 4.46875,-2 Z m 0,0"
               style="stroke:none"
               inkscape:connector-curvature="0" />
          </symbol>
        </g>
      </defs>
      <g
         id="lx-text73-surface1">
        <g
           id="g1251"
           style="fill:#000000;fill-opacity:1">
          <use
             id="use1245"
             y="0"
             x="0"
             xlink:href="#lx-text73-glyph0-1"
             width="100%"
             height="100%" />
          <use
             id="use1247"
             y="0"
             x="3.3205349"
             xlink:href="#lx-text73-glyph0-2"
             width="100%"
             height="100%" />
          <use
             id="use1249"
             y="0"
             x="8.3018351"
             xlink:href="#lx-text73-glyph0-3"
             width="100%"
             height="100%" />
        </g>
      </g>
    </g>
    <g
       id="lx-text75"
       transform="matrix(1.25,0,0,1.25,84.494264,234.06886)">
      <defs
         id="defs1269">
        <g
           id="g1267">
          <symbol
             id="lx-text75-glyph0-0"
             overflow="visible"
             style="overflow:visible">
            <path
               id="path1255"
               d=""
               style="stroke:none"
               inkscape:connector-curvature="0" />
          </symbol>
          <symbol
             id="lx-text75-glyph0-1"
             overflow="visible"
             style="overflow:visible">
            <path
               id="path1258"
               d="M 2.75,-1.859375 V -2.4375 H 0.109375 v 0.578125 z m 0,0"
               style="stroke:none"
               inkscape:connector-curvature="0" />
          </symbol>
          <symbol
             id="lx-text75-glyph0-2"
             overflow="visible"
             style="overflow:visible">
            <path
               id="path1261"
               d="m 2.9375,-6.375 c 0,-0.25 0,-0.265625 -0.234375,-0.265625 C 2.078125,-6 1.203125,-6 0.890625,-6 v 0.3125 c 0.203125,0 0.78125,0 1.296875,-0.265625 v 5.171875 c 0,0.359375 -0.03125,0.46875 -0.921875,0.46875 h -0.3125 V 0 c 0.34375,-0.03125 1.203125,-0.03125 1.609375,-0.03125 0.390625,0 1.265625,0 1.609375,0.03125 v -0.3125 h -0.3125 c -0.90625,0 -0.921875,-0.109375 -0.921875,-0.46875 z m 0,0"
               style="stroke:none"
               inkscape:connector-curvature="0" />
          </symbol>
          <symbol
             id="lx-text75-glyph0-3"
             overflow="visible"
             style="overflow:visible">
            <path
               id="path1264"
               d="m 4.578125,-3.1875 c 0,-0.796875 -0.046875,-1.59375 -0.390625,-2.328125 -0.453125,-0.96875 -1.28125,-1.125 -1.6875,-1.125 -0.609375,0 -1.328125,0.265625 -1.75,1.1875 -0.3125,0.6875 -0.359375,1.46875 -0.359375,2.265625 0,0.75 0.03125,1.640625 0.453125,2.40625 0.421875,0.796875 1.15625,1 1.640625,1 0.53125,0 1.296875,-0.203125 1.734375,-1.15625 0.3125,-0.6875 0.359375,-1.46875 0.359375,-2.25 z M 2.484375,0 C 2.09375,0 1.5,-0.25 1.328125,-1.203125 1.21875,-1.796875 1.21875,-2.71875 1.21875,-3.3125 c 0,-0.640625 0,-1.296875 0.078125,-1.828125 0.1875,-1.1875 0.9375,-1.28125 1.1875,-1.28125 0.328125,0 0.984375,0.1875 1.171875,1.171875 0.109375,0.5625 0.109375,1.3125 0.109375,1.9375 0,0.75 0,1.421875 -0.109375,2.0625 C 3.5,-0.296875 2.9375,0 2.484375,0 Z m 0,0"
               style="stroke:none"
               inkscape:connector-curvature="0" />
          </symbol>
        </g>
      </defs>
      <g
         id="lx-text75-surface1">
        <g
           id="g1277"
           style="fill:#000000;fill-opacity:1">
          <use
             id="use1271"
             y="0"
             x="0"
             xlink:href="#lx-text75-glyph0-1"
             width="100%"
             height="100%" />
          <use
             id="use1273"
             y="0"
             x="3.3205349"
             xlink:href="#lx-text75-glyph0-2"
             width="100%"
             height="100%" />
          <use
             id="use1275"
             y="0"
             x="8.3018351"
             xlink:href="#lx-text75-glyph0-3"
             width="100%"
             height="100%" />
        </g>
      </g>
    </g>
    <g
       id="lx-text77"
       transform="matrix(1.25,0,0,1.25,145.99426,234.06886)">
      <defs
         id="defs1292">
        <g
           id="g1290">
          <symbol
             id="lx-text77-glyph0-0"
             overflow="visible"
             style="overflow:visible">
            <path
               id="path1281"
               d=""
               style="stroke:none"
               inkscape:connector-curvature="0" />
          </symbol>
          <symbol
             id="lx-text77-glyph0-1"
             overflow="visible"
             style="overflow:visible">
            <path
               id="path1284"
               d="M 2.75,-1.859375 V -2.4375 H 0.109375 v 0.578125 z m 0,0"
               style="stroke:none"
               inkscape:connector-curvature="0" />
          </symbol>
          <symbol
             id="lx-text77-glyph0-2"
             overflow="visible"
             style="overflow:visible">
            <path
               id="path1287"
               d="m 4.46875,-2 c 0,-1.1875 -0.8125,-2.1875 -1.890625,-2.1875 -0.46875,0 -0.90625,0.15625 -1.265625,0.515625 V -5.625 c 0.203125,0.0625 0.53125,0.125 0.84375,0.125 1.234375,0 1.9375,-0.90625 1.9375,-1.03125 0,-0.0625 -0.03125,-0.109375 -0.109375,-0.109375 0,0 -0.03125,0 -0.078125,0.03125 C 3.703125,-6.515625 3.21875,-6.3125 2.546875,-6.3125 2.15625,-6.3125 1.6875,-6.390625 1.21875,-6.59375 1.140625,-6.625 1.125,-6.625 1.109375,-6.625 1,-6.625 1,-6.546875 1,-6.390625 V -3.4375 c 0,0.171875 0,0.25 0.140625,0.25 0.078125,0 0.09375,-0.015625 0.140625,-0.078125 C 1.390625,-3.421875 1.75,-3.96875 2.5625,-3.96875 c 0.515625,0 0.765625,0.453125 0.84375,0.640625 0.15625,0.375 0.1875,0.75 0.1875,1.25 0,0.359375 0,0.953125 -0.25,1.375 C 3.109375,-0.3125 2.734375,-0.0625 2.28125,-0.0625 c -0.71875,0 -1.296875,-0.53125 -1.46875,-1.109375 0.03125,0 0.0625,0.015625 0.171875,0.015625 0.328125,0 0.5,-0.25 0.5,-0.484375 0,-0.25 -0.171875,-0.5 -0.5,-0.5 C 0.84375,-2.140625 0.5,-2.0625 0.5,-1.609375 0.5,-0.75 1.1875,0.21875 2.296875,0.21875 3.453125,0.21875 4.46875,-0.734375 4.46875,-2 Z m 0,0"
               style="stroke:none"
               inkscape:connector-curvature="0" />
          </symbol>
        </g>
      </defs>
      <g
         id="lx-text77-surface1">
        <g
           id="g1298"
           style="fill:#000000;fill-opacity:1">
          <use
             id="use1294"
             y="0"
             x="0"
             xlink:href="#lx-text77-glyph0-1"
             width="100%"
             height="100%" />
          <use
             id="use1296"
             y="0"
             x="3.3205349"
             xlink:href="#lx-text77-glyph0-2"
             width="100%"
             height="100%" />
        </g>
      </g>
    </g>
    <g
       id="lx-text79"
       transform="matrix(1.25,0,0,1.25,269.45596,234.06886)">
      <defs
         id="defs1310">
        <g
           id="g1308">
          <symbol
             id="lx-text79-glyph0-0"
             overflow="visible"
             style="overflow:visible">
            <path
               id="path1302"
               d=""
               style="stroke:none"
               inkscape:connector-curvature="0" />
          </symbol>
          <symbol
             id="lx-text79-glyph0-1"
             overflow="visible"
             style="overflow:visible">
            <path
               id="path1305"
               d="m 4.46875,-2 c 0,-1.1875 -0.8125,-2.1875 -1.890625,-2.1875 -0.46875,0 -0.90625,0.15625 -1.265625,0.515625 V -5.625 c 0.203125,0.0625 0.53125,0.125 0.84375,0.125 1.234375,0 1.9375,-0.90625 1.9375,-1.03125 0,-0.0625 -0.03125,-0.109375 -0.109375,-0.109375 0,0 -0.03125,0 -0.078125,0.03125 C 3.703125,-6.515625 3.21875,-6.3125 2.546875,-6.3125 2.15625,-6.3125 1.6875,-6.390625 1.21875,-6.59375 1.140625,-6.625 1.125,-6.625 1.109375,-6.625 1,-6.625 1,-6.546875 1,-6.390625 V -3.4375 c 0,0.171875 0,0.25 0.140625,0.25 0.078125,0 0.09375,-0.015625 0.140625,-0.078125 C 1.390625,-3.421875 1.75,-3.96875 2.5625,-3.96875 c 0.515625,0 0.765625,0.453125 0.84375,0.640625 0.15625,0.375 0.1875,0.75 0.1875,1.25 0,0.359375 0,0.953125 -0.25,1.375 C 3.109375,-0.3125 2.734375,-0.0625 2.28125,-0.0625 c -0.71875,0 -1.296875,-0.53125 -1.46875,-1.109375 0.03125,0 0.0625,0.015625 0.171875,0.015625 0.328125,0 0.5,-0.25 0.5,-0.484375 0,-0.25 -0.171875,-0.5 -0.5,-0.5 C 0.84375,-2.140625 0.5,-2.0625 0.5,-1.609375 0.5,-0.75 1.1875,0.21875 2.296875,0.21875 3.453125,0.21875 4.46875,-0.734375 4.46875,-2 Z m 0,0"
               style="stroke:none"
               inkscape:connector-curvature="0" />
          </symbol>
        </g>
      </defs>
      <g
         id="lx-text79-surface1">
        <g
           id="g1314"
           style="fill:#000000;fill-opacity:1">
          <use
             id="use1312"
             y="0"
             x="0"
             xlink:href="#lx-text79-glyph0-1"
             width="100%"
             height="100%" />
        </g>
      </g>
    </g>
    <g
       id="lx-text81"
       transform="matrix(1.25,0,0,1.25,330.95596,234.06886)">
      <defs
         id="defs1329">
        <g
           id="g1327">
          <symbol
             id="lx-text81-glyph0-0"
             overflow="visible"
             style="overflow:visible">
            <path
               id="path1318"
               d=""
               style="stroke:none"
               inkscape:connector-curvature="0" />
          </symbol>
          <symbol
             id="lx-text81-glyph0-1"
             overflow="visible"
             style="overflow:visible">
            <path
               id="path1321"
               d="m 2.9375,-6.375 c 0,-0.25 0,-0.265625 -0.234375,-0.265625 C 2.078125,-6 1.203125,-6 0.890625,-6 v 0.3125 c 0.203125,0 0.78125,0 1.296875,-0.265625 v 5.171875 c 0,0.359375 -0.03125,0.46875 -0.921875,0.46875 h -0.3125 V 0 c 0.34375,-0.03125 1.203125,-0.03125 1.609375,-0.03125 0.390625,0 1.265625,0 1.609375,0.03125 v -0.3125 h -0.3125 c -0.90625,0 -0.921875,-0.109375 -0.921875,-0.46875 z m 0,0"
               style="stroke:none"
               inkscape:connector-curvature="0" />
          </symbol>
          <symbol
             id="lx-text81-glyph0-2"
             overflow="visible"
             style="overflow:visible">
            <path
               id="path1324"
               d="m 4.578125,-3.1875 c 0,-0.796875 -0.046875,-1.59375 -0.390625,-2.328125 -0.453125,-0.96875 -1.28125,-1.125 -1.6875,-1.125 -0.609375,0 -1.328125,0.265625 -1.75,1.1875 -0.3125,0.6875 -0.359375,1.46875 -0.359375,2.265625 0,0.75 0.03125,1.640625 0.453125,2.40625 0.421875,0.796875 1.15625,1 1.640625,1 0.53125,0 1.296875,-0.203125 1.734375,-1.15625 0.3125,-0.6875 0.359375,-1.46875 0.359375,-2.25 z M 2.484375,0 C 2.09375,0 1.5,-0.25 1.328125,-1.203125 1.21875,-1.796875 1.21875,-2.71875 1.21875,-3.3125 c 0,-0.640625 0,-1.296875 0.078125,-1.828125 0.1875,-1.1875 0.9375,-1.28125 1.1875,-1.28125 0.328125,0 0.984375,0.1875 1.171875,1.171875 0.109375,0.5625 0.109375,1.3125 0.109375,1.9375 0,0.75 0,1.421875 -0.109375,2.0625 C 3.5,-0.296875 2.9375,0 2.484375,0 Z m 0,0"
               style="stroke:none"
               inkscape:connector-curvature="0" />
          </symbol>
        </g>
      </defs>
      <g
         id="lx-text81-surface1">
        <g
           id="g1335"
           style="fill:#000000;fill-opacity:1">
          <use
             id="use1331"
             y="0"
             x="0"
             xlink:href="#lx-text81-glyph0-1"
             width="100%"
             height="100%" />
          <use
             id="use1333"
             y="0"
             x="4.9812999"
             xlink:href="#lx-text81-glyph0-2"
             width="100%"
             height="100%" />
        </g>
      </g>
    </g>
    <g
       id="lx-text83"
       transform="matrix(1.25,0,0,1.25,392.45596,234.06886)">
      <defs
         id="defs1350">
        <g
           id="g1348">
          <symbol
             id="lx-text83-glyph0-0"
             overflow="visible"
             style="overflow:visible">
            <path
               id="path1339"
               d=""
               style="stroke:none"
               inkscape:connector-curvature="0" />
          </symbol>
          <symbol
             id="lx-text83-glyph0-1"
             overflow="visible"
             style="overflow:visible">
            <path
               id="path1342"
               d="m 2.9375,-6.375 c 0,-0.25 0,-0.265625 -0.234375,-0.265625 C 2.078125,-6 1.203125,-6 0.890625,-6 v 0.3125 c 0.203125,0 0.78125,0 1.296875,-0.265625 v 5.171875 c 0,0.359375 -0.03125,0.46875 -0.921875,0.46875 h -0.3125 V 0 c 0.34375,-0.03125 1.203125,-0.03125 1.609375,-0.03125 0.390625,0 1.265625,0 1.609375,0.03125 v -0.3125 h -0.3125 c -0.90625,0 -0.921875,-0.109375 -0.921875,-0.46875 z m 0,0"
               style="stroke:none"
               inkscape:connector-curvature="0" />
          </symbol>
          <symbol
             id="lx-text83-glyph0-2"
             overflow="visible"
             style="overflow:visible">
            <path
               id="path1345"
               d="m 4.46875,-2 c 0,-1.1875 -0.8125,-2.1875 -1.890625,-2.1875 -0.46875,0 -0.90625,0.15625 -1.265625,0.515625 V -5.625 c 0.203125,0.0625 0.53125,0.125 0.84375,0.125 1.234375,0 1.9375,-0.90625 1.9375,-1.03125 0,-0.0625 -0.03125,-0.109375 -0.109375,-0.109375 0,0 -0.03125,0 -0.078125,0.03125 C 3.703125,-6.515625 3.21875,-6.3125 2.546875,-6.3125 2.15625,-6.3125 1.6875,-6.390625 1.21875,-6.59375 1.140625,-6.625 1.125,-6.625 1.109375,-6.625 1,-6.625 1,-6.546875 1,-6.390625 V -3.4375 c 0,0.171875 0,0.25 0.140625,0.25 0.078125,0 0.09375,-0.015625 0.140625,-0.078125 C 1.390625,-3.421875 1.75,-3.96875 2.5625,-3.96875 c 0.515625,0 0.765625,0.453125 0.84375,0.640625 0.15625,0.375 0.1875,0.75 0.1875,1.25 0,0.359375 0,0.953125 -0.25,1.375 C 3.109375,-0.3125 2.734375,-0.0625 2.28125,-0.0625 c -0.71875,0 -1.296875,-0.53125 -1.46875,-1.109375 0.03125,0 0.0625,0.015625 0.171875,0.015625 0.328125,0 0.5,-0.25 0.5,-0.484375 0,-0.25 -0.171875,-0.5 -0.5,-0.5 C 0.84375,-2.140625 0.5,-2.0625 0.5,-1.609375 0.5,-0.75 1.1875,0.21875 2.296875,0.21875 3.453125,0.21875 4.46875,-0.734375 4.46875,-2 Z m 0,0"
               style="stroke:none"
               inkscape:connector-curvature="0" />
          </symbol>
        </g>
      </defs>
      <g
         id="lx-text83-surface1">
        <g
           id="g1356"
           style="fill:#000000;fill-opacity:1">
          <use
             id="use1352"
             y="0"
             x="0"
             xlink:href="#lx-text83-glyph0-1"
             width="100%"
             height="100%" />
          <use
             id="use1354"
             y="0"
             x="4.9812999"
             xlink:href="#lx-text83-glyph0-2"
             width="100%"
             height="100%" />
        </g>
      </g>
    </g>
    <g
       id="lx-text85"
       transform="matrix(1.25,0,0,1.25,202.34427,229.68057)">
      <defs
         id="defs1368">
        <g
           id="g1366">
          <symbol
             id="lx-text85-glyph0-0"
             overflow="visible"
             style="overflow:visible">
            <path
               id="path1360"
               d=""
               style="stroke:none"
               inkscape:connector-curvature="0" />
          </symbol>
          <symbol
             id="lx-text85-glyph0-1"
             overflow="visible"
             style="overflow:visible">
            <path
               id="path1363"
               d="m 4.578125,-3.1875 c 0,-0.796875 -0.046875,-1.59375 -0.390625,-2.328125 -0.453125,-0.96875 -1.28125,-1.125 -1.6875,-1.125 -0.609375,0 -1.328125,0.265625 -1.75,1.1875 -0.3125,0.6875 -0.359375,1.46875 -0.359375,2.265625 0,0.75 0.03125,1.640625 0.453125,2.40625 0.421875,0.796875 1.15625,1 1.640625,1 0.53125,0 1.296875,-0.203125 1.734375,-1.15625 0.3125,-0.6875 0.359375,-1.46875 0.359375,-2.25 z M 2.484375,0 C 2.09375,0 1.5,-0.25 1.328125,-1.203125 1.21875,-1.796875 1.21875,-2.71875 1.21875,-3.3125 c 0,-0.640625 0,-1.296875 0.078125,-1.828125 0.1875,-1.1875 0.9375,-1.28125 1.1875,-1.28125 0.328125,0 0.984375,0.1875 1.171875,1.171875 0.109375,0.5625 0.109375,1.3125 0.109375,1.9375 0,0.75 0,1.421875 -0.109375,2.0625 C 3.5,-0.296875 2.9375,0 2.484375,0 Z m 0,0"
               style="stroke:none"
               inkscape:connector-curvature="0" />
          </symbol>
        </g>
      </defs>
      <g
         id="lx-text85-surface1">
        <g
           id="g1372"
           style="fill:#000000;fill-opacity:1">
          <use
             id="use1370"
             y="0"
             x="0"
             xlink:href="#lx-text85-glyph0-1"
             width="100%"
             height="100%" />
        </g>
      </g>
    </g>
    <g
       id="lx-text89"
       transform="matrix(1.25,0,0,1.25,221.45058,150.3102)">
      <defs
         id="defs1384">
        <g
           id="g1382">
          <symbol
             id="lx-text89-glyph0-0"
             overflow="visible"
             style="overflow:visible">
            <path
               id="path1376"
               d=""
               style="stroke:none"
               inkscape:connector-curvature="0" />
          </symbol>
          <symbol
             id="lx-text89-glyph0-1"
             overflow="visible"
             style="overflow:visible">
            <path
               id="path1379"
               d="m 4.46875,-2 c 0,-1.1875 -0.8125,-2.1875 -1.890625,-2.1875 -0.46875,0 -0.90625,0.15625 -1.265625,0.515625 V -5.625 c 0.203125,0.0625 0.53125,0.125 0.84375,0.125 1.234375,0 1.9375,-0.90625 1.9375,-1.03125 0,-0.0625 -0.03125,-0.109375 -0.109375,-0.109375 0,0 -0.03125,0 -0.078125,0.03125 C 3.703125,-6.515625 3.21875,-6.3125 2.546875,-6.3125 2.15625,-6.3125 1.6875,-6.390625 1.21875,-6.59375 1.140625,-6.625 1.125,-6.625 1.109375,-6.625 1,-6.625 1,-6.546875 1,-6.390625 V -3.4375 c 0,0.171875 0,0.25 0.140625,0.25 0.078125,0 0.09375,-0.015625 0.140625,-0.078125 C 1.390625,-3.421875 1.75,-3.96875 2.5625,-3.96875 c 0.515625,0 0.765625,0.453125 0.84375,0.640625 0.15625,0.375 0.1875,0.75 0.1875,1.25 0,0.359375 0,0.953125 -0.25,1.375 C 3.109375,-0.3125 2.734375,-0.0625 2.28125,-0.0625 c -0.71875,0 -1.296875,-0.53125 -1.46875,-1.109375 0.03125,0 0.0625,0.015625 0.171875,0.015625 0.328125,0 0.5,-0.25 0.5,-0.484375 0,-0.25 -0.171875,-0.5 -0.5,-0.5 C 0.84375,-2.140625 0.5,-2.0625 0.5,-1.609375 0.5,-0.75 1.1875,0.21875 2.296875,0.21875 3.453125,0.21875 4.46875,-0.734375 4.46875,-2 Z m 0,0"
               style="stroke:none"
               inkscape:connector-curvature="0" />
          </symbol>
        </g>
      </defs>
      <g
         id="lx-text89-surface1">
        <g
           id="g1388"
           style="fill:#000000;fill-opacity:1">
          <use
             id="use1386"
             y="0"
             x="0"
             xlink:href="#lx-text89-glyph0-1"
             width="100%"
             height="100%" />
        </g>
      </g>
    </g>
    <g
       id="lx-text91"
       transform="matrix(1.25,0,0,1.25,221.45058,81.910551)">
      <defs
         id="defs1403">
        <g
           id="g1401">
          <symbol
             id="lx-text91-glyph0-0"
             overflow="visible"
             style="overflow:visible">
            <path
               id="path1392"
               d=""
               style="stroke:none"
               inkscape:connector-curvature="0" />
          </symbol>
          <symbol
             id="lx-text91-glyph0-1"
             overflow="visible"
             style="overflow:visible">
            <path
               id="path1395"
               d="m 2.9375,-6.375 c 0,-0.25 0,-0.265625 -0.234375,-0.265625 C 2.078125,-6 1.203125,-6 0.890625,-6 v 0.3125 c 0.203125,0 0.78125,0 1.296875,-0.265625 v 5.171875 c 0,0.359375 -0.03125,0.46875 -0.921875,0.46875 h -0.3125 V 0 c 0.34375,-0.03125 1.203125,-0.03125 1.609375,-0.03125 0.390625,0 1.265625,0 1.609375,0.03125 v -0.3125 h -0.3125 c -0.90625,0 -0.921875,-0.109375 -0.921875,-0.46875 z m 0,0"
               style="stroke:none"
               inkscape:connector-curvature="0" />
          </symbol>
          <symbol
             id="lx-text91-glyph0-2"
             overflow="visible"
             style="overflow:visible">
            <path
               id="path1398"
               d="m 4.578125,-3.1875 c 0,-0.796875 -0.046875,-1.59375 -0.390625,-2.328125 -0.453125,-0.96875 -1.28125,-1.125 -1.6875,-1.125 -0.609375,0 -1.328125,0.265625 -1.75,1.1875 -0.3125,0.6875 -0.359375,1.46875 -0.359375,2.265625 0,0.75 0.03125,1.640625 0.453125,2.40625 0.421875,0.796875 1.15625,1 1.640625,1 0.53125,0 1.296875,-0.203125 1.734375,-1.15625 0.3125,-0.6875 0.359375,-1.46875 0.359375,-2.25 z M 2.484375,0 C 2.09375,0 1.5,-0.25 1.328125,-1.203125 1.21875,-1.796875 1.21875,-2.71875 1.21875,-3.3125 c 0,-0.640625 0,-1.296875 0.078125,-1.828125 0.1875,-1.1875 0.9375,-1.28125 1.1875,-1.28125 0.328125,0 0.984375,0.1875 1.171875,1.171875 0.109375,0.5625 0.109375,1.3125 0.109375,1.9375 0,0.75 0,1.421875 -0.109375,2.0625 C 3.5,-0.296875 2.9375,0 2.484375,0 Z m 0,0"
               style="stroke:none"
               inkscape:connector-curvature="0" />
          </symbol>
        </g>
      </defs>
      <g
         id="lx-text91-surface1">
        <g
           id="g1409"
           style="fill:#000000;fill-opacity:1">
          <use
             id="use1405"
             y="0"
             x="0"
             xlink:href="#lx-text91-glyph0-1"
             width="100%"
             height="100%" />
          <use
             id="use1407"
             y="0"
             x="4.9812999"
             xlink:href="#lx-text91-glyph0-2"
             width="100%"
             height="100%" />
        </g>
      </g>
    </g>
    <g
       id="lx-text93"
       transform="matrix(1.25,0,0,1.25,221.45058,13.510898)">
      <defs
         id="defs1424">
        <g
           id="g1422">
          <symbol
             id="lx-text93-glyph0-0"
             overflow="visible"
             style="overflow:visible">
            <path
               id="path1413"
               d=""
               style="stroke:none"
               inkscape:connector-curvature="0" />
          </symbol>
          <symbol
             id="lx-text93-glyph0-1"
             overflow="visible"
             style="overflow:visible">
            <path
               id="path1416"
               d="m 2.9375,-6.375 c 0,-0.25 0,-0.265625 -0.234375,-0.265625 C 2.078125,-6 1.203125,-6 0.890625,-6 v 0.3125 c 0.203125,0 0.78125,0 1.296875,-0.265625 v 5.171875 c 0,0.359375 -0.03125,0.46875 -0.921875,0.46875 h -0.3125 V 0 c 0.34375,-0.03125 1.203125,-0.03125 1.609375,-0.03125 0.390625,0 1.265625,0 1.609375,0.03125 v -0.3125 h -0.3125 c -0.90625,0 -0.921875,-0.109375 -0.921875,-0.46875 z m 0,0"
               style="stroke:none"
               inkscape:connector-curvature="0" />
          </symbol>
          <symbol
             id="lx-text93-glyph0-2"
             overflow="visible"
             style="overflow:visible">
            <path
               id="path1419"
               d="m 4.46875,-2 c 0,-1.1875 -0.8125,-2.1875 -1.890625,-2.1875 -0.46875,0 -0.90625,0.15625 -1.265625,0.515625 V -5.625 c 0.203125,0.0625 0.53125,0.125 0.84375,0.125 1.234375,0 1.9375,-0.90625 1.9375,-1.03125 0,-0.0625 -0.03125,-0.109375 -0.109375,-0.109375 0,0 -0.03125,0 -0.078125,0.03125 C 3.703125,-6.515625 3.21875,-6.3125 2.546875,-6.3125 2.15625,-6.3125 1.6875,-6.390625 1.21875,-6.59375 1.140625,-6.625 1.125,-6.625 1.109375,-6.625 1,-6.625 1,-6.546875 1,-6.390625 V -3.4375 c 0,0.171875 0,0.25 0.140625,0.25 0.078125,0 0.09375,-0.015625 0.140625,-0.078125 C 1.390625,-3.421875 1.75,-3.96875 2.5625,-3.96875 c 0.515625,0 0.765625,0.453125 0.84375,0.640625 0.15625,0.375 0.1875,0.75 0.1875,1.25 0,0.359375 0,0.953125 -0.25,1.375 C 3.109375,-0.3125 2.734375,-0.0625 2.28125,-0.0625 c -0.71875,0 -1.296875,-0.53125 -1.46875,-1.109375 0.03125,0 0.0625,0.015625 0.171875,0.015625 0.328125,0 0.5,-0.25 0.5,-0.484375 0,-0.25 -0.171875,-0.5 -0.5,-0.5 C 0.84375,-2.140625 0.5,-2.0625 0.5,-1.609375 0.5,-0.75 1.1875,0.21875 2.296875,0.21875 3.453125,0.21875 4.46875,-0.734375 4.46875,-2 Z m 0,0"
               style="stroke:none"
               inkscape:connector-curvature="0" />
          </symbol>
        </g>
      </defs>
      <g
         id="lx-text93-surface1">
        <g
           id="g1430"
           style="fill:#000000;fill-opacity:1">
          <use
             id="use1426"
             y="0"
             x="0"
             xlink:href="#lx-text93-glyph0-1"
             width="100%"
             height="100%" />
          <use
             id="use1428"
             y="0"
             x="4.9812999"
             xlink:href="#lx-text93-glyph0-2"
             width="100%"
             height="100%" />
        </g>
      </g>
    </g>
    <g
       id="lx-text1163"
       transform="matrix(1.25,0,0,1.25,331.97219,108.19341)">
      <defs
         id="defs1463">
        <g
           id="g1461">
          <symbol
             id="lx-text1163-glyph0-0"
             overflow="visible"
             style="overflow:visible">
            <path
               id="path1434"
               d=""
               style="stroke:none"
               inkscape:connector-curvature="0" />
          </symbol>
          <symbol
             id="lx-text1163-glyph0-1"
             overflow="visible"
             style="overflow:visible">
            <path
               id="path1437"
               d="m 3.65625,-3.984375 h 0.859375 c 0.203125,0 0.296875,0 0.296875,-0.203125 0,-0.109375 -0.09375,-0.109375 -0.265625,-0.109375 H 3.71875 L 3.921875,-5.4375 c 0.046875,-0.203125 0.1875,-0.90625 0.25,-1.03125 0.078125,-0.1875 0.25,-0.34375 0.46875,-0.34375 0.03125,0 0.296875,0 0.484375,0.1875 -0.4375,0.03125 -0.546875,0.390625 -0.546875,0.53125 0,0.234375 0.1875,0.359375 0.375,0.359375 C 5.21875,-5.734375 5.5,-5.96875 5.5,-6.34375 c 0,-0.453125 -0.453125,-0.6875 -0.859375,-0.6875 -0.34375,0 -0.96875,0.1875 -1.265625,1.171875 -0.0625,0.203125 -0.09375,0.3125 -0.328125,1.5625 h -0.6875 c -0.203125,0 -0.3125,0 -0.3125,0.1875 0,0.125 0.09375,0.125 0.28125,0.125 h 0.65625 L 2.25,-0.046875 c -0.1875,0.96875 -0.359375,1.875 -0.875,1.875 -0.046875,0 -0.28125,0 -0.484375,-0.1875 C 1.359375,1.609375 1.453125,1.25 1.453125,1.109375 1.453125,0.875 1.265625,0.75 1.078125,0.75 0.8125,0.75 0.53125,0.984375 0.53125,1.359375 c 0,0.4375 0.4375,0.6875 0.84375,0.6875 0.546875,0 0.953125,-0.59375 1.125,-0.96875 0.328125,-0.625 0.546875,-1.828125 0.5625,-1.90625 z m 0,0"
               style="stroke:none"
               inkscape:connector-curvature="0" />
          </symbol>
          <symbol
             id="lx-text1163-glyph0-2"
             overflow="visible"
             style="overflow:visible">
            <path
               id="path1440"
               d="M 3.328125,-3.015625 C 3.390625,-3.265625 3.625,-4.1875 4.3125,-4.1875 c 0.046875,0 0.296875,0 0.5,0.125 C 4.53125,-4 4.34375,-3.765625 4.34375,-3.515625 c 0,0.15625 0.109375,0.34375 0.375,0.34375 0.21875,0 0.53125,-0.171875 0.53125,-0.578125 0,-0.515625 -0.578125,-0.65625 -0.921875,-0.65625 -0.578125,0 -0.921875,0.53125 -1.046875,0.75 -0.25,-0.65625 -0.78125,-0.75 -1.078125,-0.75 -1.03125,0 -1.609375,1.28125 -1.609375,1.53125 0,0.109375 0.109375,0.109375 0.125,0.109375 0.078125,0 0.109375,-0.03125 0.125,-0.109375 0.34375,-1.0625 1,-1.3125 1.34375,-1.3125 0.1875,0 0.53125,0.09375 0.53125,0.671875 0,0.3125 -0.171875,0.96875 -0.53125,2.375 -0.15625,0.609375 -0.515625,1.03125 -0.953125,1.03125 -0.0625,0 -0.28125,0 -0.5,-0.125 0.25,-0.0625 0.46875,-0.265625 0.46875,-0.546875 0,-0.265625 -0.21875,-0.34375 -0.359375,-0.34375 -0.3125,0 -0.546875,0.25 -0.546875,0.578125 0,0.453125 0.484375,0.65625 0.921875,0.65625 0.671875,0 1.03125,-0.703125 1.046875,-0.75 0.125,0.359375 0.484375,0.75 1.078125,0.75 1.03125,0 1.59375,-1.28125 1.59375,-1.53125 0,-0.109375 -0.078125,-0.109375 -0.109375,-0.109375 -0.09375,0 -0.109375,0.046875 -0.140625,0.109375 -0.328125,1.078125 -1,1.3125 -1.3125,1.3125 -0.390625,0 -0.546875,-0.3125 -0.546875,-0.65625 0,-0.21875 0.046875,-0.4375 0.15625,-0.875 z m 0,0"
               style="stroke:none"
               inkscape:connector-curvature="0" />
          </symbol>
          <symbol
             id="lx-text1163-glyph1-0"
             overflow="visible"
             style="overflow:visible">
            <path
               id="path1443"
               d=""
               style="stroke:none"
               inkscape:connector-curvature="0" />
          </symbol>
          <symbol
             id="lx-text1163-glyph1-1"
             overflow="visible"
             style="overflow:visible">
            <path
               id="path1446"
               d="m 3.296875,2.390625 c 0,-0.03125 0,-0.046875 -0.171875,-0.21875 C 1.890625,0.921875 1.5625,-0.96875 1.5625,-2.5 c 0,-1.734375 0.375,-3.46875 1.609375,-4.703125 0.125,-0.125 0.125,-0.140625 0.125,-0.171875 0,-0.078125 -0.03125,-0.109375 -0.09375,-0.109375 -0.109375,0 -1,0.6875 -1.59375,1.953125 -0.5,1.09375 -0.625,2.203125 -0.625,3.03125 0,0.78125 0.109375,1.984375 0.65625,3.125 C 2.25,1.84375 3.09375,2.5 3.203125,2.5 c 0.0625,0 0.09375,-0.03125 0.09375,-0.109375 z m 0,0"
               style="stroke:none"
               inkscape:connector-curvature="0" />
          </symbol>
          <symbol
             id="lx-text1163-glyph1-2"
             overflow="visible"
             style="overflow:visible">
            <path
               id="path1449"
               d="m 2.875,-2.5 c 0,-0.765625 -0.109375,-1.96875 -0.65625,-3.109375 -0.59375,-1.21875 -1.453125,-1.875 -1.546875,-1.875 -0.0625,0 -0.109375,0.046875 -0.109375,0.109375 0,0.03125 0,0.046875 0.1875,0.234375 0.984375,0.984375 1.546875,2.5625 1.546875,4.640625 0,1.71875 -0.359375,3.46875 -1.59375,4.71875 C 0.5625,2.34375 0.5625,2.359375 0.5625,2.390625 0.5625,2.453125 0.609375,2.5 0.671875,2.5 0.765625,2.5 1.671875,1.8125 2.25,0.546875 2.765625,-0.546875 2.875,-1.65625 2.875,-2.5 Z m 0,0"
               style="stroke:none"
               inkscape:connector-curvature="0" />
          </symbol>
          <symbol
             id="lx-text1163-glyph1-3"
             overflow="visible"
             style="overflow:visible">
            <path
               id="path1452"
               d="m 6.84375,-3.265625 c 0.15625,0 0.34375,0 0.34375,-0.1875 C 7.1875,-3.65625 7,-3.65625 6.859375,-3.65625 h -5.96875 c -0.140625,0 -0.328125,0 -0.328125,0.203125 0,0.1875 0.1875,0.1875 0.328125,0.1875 z m 0.015625,1.9375 c 0.140625,0 0.328125,0 0.328125,-0.203125 0,-0.1875 -0.1875,-0.1875 -0.34375,-0.1875 H 0.890625 c -0.140625,0 -0.328125,0 -0.328125,0.1875 0,0.203125 0.1875,0.203125 0.328125,0.203125 z m 0,0"
               style="stroke:none"
               inkscape:connector-curvature="0" />
          </symbol>
          <symbol
             id="lx-text1163-glyph2-0"
             overflow="visible"
             style="overflow:visible">
            <path
               id="path1455"
               d=""
               style="stroke:none"
               inkscape:connector-curvature="0" />
          </symbol>
          <symbol
             id="lx-text1163-glyph2-1"
             overflow="visible"
             style="overflow:visible">
            <path
               id="path1458"
               d="m 1.578125,-7.125 c 0,-0.171875 0,-0.359375 -0.1875,-0.359375 -0.203125,0 -0.203125,0.1875 -0.203125,0.359375 v 9.265625 c 0,0.171875 0,0.359375 0.203125,0.359375 0.1875,0 0.1875,-0.1875 0.1875,-0.359375 z m 0,0"
               style="stroke:none"
               inkscape:connector-curvature="0" />
          </symbol>
        </g>
      </defs>
      <g
         id="lx-text1163-surface1">
        <g
           id="g1467"
           style="fill:#000000;fill-opacity:1">
          <use
             id="use1465"
             y="0"
             x="0"
             xlink:href="#lx-text1163-glyph0-1"
             width="100%"
             height="100%" />
        </g>
        <g
           id="g1471"
           style="fill:#000000;fill-opacity:1">
          <use
             id="use1469"
             y="0"
             x="5.9499998"
             xlink:href="#lx-text1163-glyph1-1"
             width="100%"
             height="100%" />
        </g>
        <g
           id="g1475"
           style="fill:#000000;fill-opacity:1">
          <use
             id="use1473"
             y="0"
             x="9.8240004"
             xlink:href="#lx-text1163-glyph0-2"
             width="100%"
             height="100%" />
        </g>
        <g
           id="g1479"
           style="fill:#000000;fill-opacity:1">
          <use
             id="use1477"
             y="0"
             x="15.518"
             xlink:href="#lx-text1163-glyph1-2"
             width="100%"
             height="100%" />
        </g>
        <g
           id="g1483"
           style="fill:#000000;fill-opacity:1">
          <use
             id="use1481"
             y="0"
             x="22.162058"
             xlink:href="#lx-text1163-glyph1-3"
             width="100%"
             height="100%" />
        </g>
        <g
           id="g1487"
           style="fill:#000000;fill-opacity:1">
          <use
             id="use1485"
             y="0"
             x="32.675999"
             xlink:href="#lx-text1163-glyph2-1"
             width="100%"
             height="100%" />
        </g>
        <g
           id="g1491"
           style="fill:#000000;fill-opacity:1">
          <use
             id="use1489"
             y="0"
             x="35.444"
             xlink:href="#lx-text1163-glyph0-2"
             width="100%"
             height="100%" />
        </g>
        <g
           id="g1495"
           style="fill:#000000;fill-opacity:1">
          <use
             id="use1493"
             y="0"
             x="41.138"
             xlink:href="#lx-text1163-glyph2-1"
             width="100%"
             height="100%" />
        </g>
      </g>
    </g>
  </g>
</svg>
